<?xml version="1.0" encoding="UTF-8" standalone="no"?>
<!DOCTYPE svg PUBLIC "-//W3C//DTD SVG 1.1//EN"
 "http://www.w3.org/Graphics/SVG/1.1/DTD/svg11.dtd">
<!-- Generated by graphviz version 2.43.0 (0)
 -->
<!-- Title: print_str Pages: 1 -->
<!--zoomable 386 -->
<svg id="main" version="1.1" xmlns="http://www.w3.org/2000/svg" xmlns:xlink="http://www.w3.org/1999/xlink" xml:space="preserve" onload="init(evt)">
<style type="text/css"><![CDATA[
.edge:hover path { stroke: red; }
.edge:hover polygon { stroke: red; fill: red; }
]]></style>
<script type="text/javascript"><![CDATA[
var edges = document.getElementsByTagName('g');
if (edges && edges.length) {
  for (var i=0;i<edges.length;i++) {
    if (edges[i].id.substr(0,4)=='edge') {
      edges[i].setAttribute('class','edge');
    }
  }
}
]]></script>
        <defs>
                <circle id="rim" cx="0" cy="0" r="7"/>
                <circle id="rim2" cx="0" cy="0" r="3.5"/>
                <g id="zoomPlus">
                        <use xlink:href="#rim" fill="#404040">
                                <set attributeName="fill" to="#808080" begin="zoomplus.mouseover" end="zoomplus.mouseout"/>
                        </use>
                        <path d="M-4,0h8M0,-4v8" fill="none" stroke="white" stroke-width="1.5" pointer-events="none"/>
                </g>
                <g id="zoomMin">
                        <use xlink:href="#rim" fill="#404040">
                                <set attributeName="fill" to="#808080" begin="zoomminus.mouseover" end="zoomminus.mouseout"/>
                        </use>
                        <path d="M-4,0h8" fill="none" stroke="white" stroke-width="1.5" pointer-events="none"/>
                </g>
                <g id="dirArrow">
                        <path fill="none" stroke="white" stroke-width="1.5" d="M0,-3.0v7 M-2.5,-0.5L0,-3.0L2.5,-0.5"/>
                </g>
               <g id="resetDef">
                       <use xlink:href="#rim2" fill="#404040">
                               <set attributeName="fill" to="#808080" begin="reset.mouseover" end="reset.mouseout"/>
                       </use>
               </g>
        </defs>

<script type="text/javascript">
var viewWidth = 862;
var viewHeight = 386;
var sectionId = 'dynsection-3';
</script>
<script xlink:href="svgpan.js"/>
<svg id="graph" class="graph">
<g id="viewport">
<title>print_str</title>
<!-- Node1 -->
<g id="node1" class="node">
<title>Node1</title>
<g id="a_node1"><a xlink:title=" ">
<polygon fill="#bfbfbf" stroke="black" points="0,-285.5 0,-304.5 57,-304.5 57,-285.5 0,-285.5"/>
<text text-anchor="middle" x="28.5" y="-292.5" font-family="Helvetica,sans-Serif" font-size="10.00">print_str</text>
</a>
</g>
</g>
<!-- Node2 -->
<g id="node2" class="node">
<title>Node2</title>
<g id="a_node2"><a xlink:href="ft__putchar__fd_8c.html#ae54b488501b5183426fccd79db9f9f7f" target="_top" xlink:title=" ">
<polygon fill="none" stroke="black" points="462,-304.5 462,-323.5 542,-323.5 542,-304.5 462,-304.5"/>
<text text-anchor="middle" x="502" y="-311.5" font-family="Helvetica,sans-Serif" font-size="10.00">ft_putchar_fd</text>
</a>
</g>
</g>
<!-- Node1&#45;&gt;Node2 -->
<g id="edge1" class="edge">
<title>Node1&#45;&gt;Node2</title>
<path fill="none" stroke="midnightblue" d="M48.5,-304.6C84.16,-322.01 163.98,-358.17 236,-371 319.74,-385.92 344.83,-373.45 426,-348 442.51,-342.82 460.18,-334.94 474.22,-328.07"/>
<polygon fill="midnightblue" stroke="midnightblue" points="475.93,-331.12 483.3,-323.51 472.79,-324.87 475.93,-331.12"/>
</g>
<!-- Node3 -->
<g id="node3" class="node">
<title>Node3</title>
<g id="a_node3"><a xlink:href="ft__printf_8h.html#af29dc335f4bec333dd094f728dbed242" target="_top" xlink:title=" ">
<polygon fill="none" stroke="black" points="93,-190.5 93,-209.5 200,-209.5 200,-190.5 93,-190.5"/>
<text text-anchor="middle" x="146.5" y="-197.5" font-family="Helvetica,sans-Serif" font-size="10.00">handle_convertion</text>
</a>
</g>
</g>
<!-- Node1&#45;&gt;Node3 -->
<g id="edge2" class="edge">
<title>Node1&#45;&gt;Node3</title>
<path fill="none" stroke="midnightblue" d="M41.48,-285.19C61.46,-268.82 101.8,-235.79 125.95,-216.01"/>
<polygon fill="midnightblue" stroke="midnightblue" points="128.24,-218.66 133.76,-209.61 123.81,-213.24 128.24,-218.66"/>
</g>
<!-- Node3&#45;&gt;Node2 -->
<g id="edge3" class="edge">
<title>Node3&#45;&gt;Node2</title>
<path fill="none" stroke="midnightblue" d="M161.99,-209.51C192.76,-229.19 267.53,-274.27 337,-295 374.42,-306.17 418.47,-310.83 451.48,-312.75"/>
<polygon fill="midnightblue" stroke="midnightblue" points="451.63,-316.26 461.79,-313.28 451.99,-309.27 451.63,-316.26"/>
</g>
<!-- Node4 -->
<g id="node4" class="node">
<title>Node4</title>
<g id="a_node4"><a xlink:href="print__alpha_8c.html#a2ea448ba44b40c51e2f57cbf40e425b6" target="_top" xlink:title=" ">
<polygon fill="none" stroke="black" points="236,-342.5 236,-361.5 301,-361.5 301,-342.5 236,-342.5"/>
<text text-anchor="middle" x="268.5" y="-349.5" font-family="Helvetica,sans-Serif" font-size="10.00">print_char</text>
</a>
</g>
</g>
<!-- Node3&#45;&gt;Node4 -->
<g id="edge4" class="edge">
<title>Node3&#45;&gt;Node4</title>
<path fill="none" stroke="midnightblue" d="M152.81,-209.75C165.33,-232.22 198.5,-288.73 236,-328 238.67,-330.8 241.7,-333.53 244.78,-336.08"/>
<polygon fill="midnightblue" stroke="midnightblue" points="242.86,-339.02 252.91,-342.37 247.14,-333.48 242.86,-339.02"/>
</g>
<!-- Node5 -->
<g id="node5" class="node">
<title>Node5</title>
<g id="a_node5"><a xlink:href="print__numerals_8c.html#ad8a0a2e8f704f3e61fa57f371f831f68" target="_top" xlink:title=" ">
<polygon fill="none" stroke="black" points="348.5,-38.5 348.5,-57.5 414.5,-57.5 414.5,-38.5 348.5,-38.5"/>
<text text-anchor="middle" x="381.5" y="-45.5" font-family="Helvetica,sans-Serif" font-size="10.00">print_num</text>
</a>
</g>
</g>
<!-- Node3&#45;&gt;Node5 -->
<g id="edge6" class="edge">
<title>Node3&#45;&gt;Node5</title>
<path fill="none" stroke="midnightblue" d="M154.2,-190.32C167.67,-171.49 199.87,-129.63 236,-105 267.53,-83.51 308.36,-68.36 338.56,-59.11"/>
<polygon fill="midnightblue" stroke="midnightblue" points="339.78,-62.4 348.37,-56.2 337.79,-55.69 339.78,-62.4"/>
</g>
<!-- Node13 -->
<g id="node13" class="node">
<title>Node13</title>
<g id="a_node13"><a xlink:href="print__alpha_8c.html#a274ecc29567e3f09dfed8b445b495e6e" target="_top" xlink:title=" ">
<polygon fill="none" stroke="black" points="239.5,-209.5 239.5,-228.5 297.5,-228.5 297.5,-209.5 239.5,-209.5"/>
<text text-anchor="middle" x="268.5" y="-216.5" font-family="Helvetica,sans-Serif" font-size="10.00">print_ptr</text>
</a>
</g>
</g>
<!-- Node3&#45;&gt;Node13 -->
<g id="edge15" class="edge">
<title>Node3&#45;&gt;Node13</title>
<path fill="none" stroke="midnightblue" d="M200.13,-208.33C209.93,-209.88 219.98,-211.48 229.24,-212.94"/>
<polygon fill="midnightblue" stroke="midnightblue" points="228.87,-216.43 239.3,-214.53 229.97,-209.51 228.87,-216.43"/>
</g>
<!-- Node16 -->
<g id="node16" class="node">
<title>Node16</title>
<g id="a_node16"><a xlink:href="print__alpha_8c.html#a655acf7b940358263742a5cd25320c91" target="_top" xlink:title=" ">
<polygon fill="none" stroke="black" points="466,-228.5 466,-247.5 538,-247.5 538,-228.5 466,-228.5"/>
<text text-anchor="middle" x="502" y="-235.5" font-family="Helvetica,sans-Serif" font-size="10.00">print_string</text>
</a>
</g>
</g>
<!-- Node3&#45;&gt;Node16 -->
<g id="edge20" class="edge">
<title>Node3&#45;&gt;Node16</title>
<path fill="none" stroke="midnightblue" d="M200.15,-198.04C229.81,-197.43 267.52,-197.47 301,-200 357.03,-204.23 370.92,-207.86 426,-219 435.97,-221.02 446.61,-223.5 456.65,-226"/>
<polygon fill="midnightblue" stroke="midnightblue" points="455.88,-229.42 466.43,-228.5 457.61,-222.64 455.88,-229.42"/>
</g>
<!-- Node17 -->
<g id="node17" class="node">
<title>Node17</title>
<g id="a_node17"><a xlink:href="print__numerals_8c.html#a7f1bbbd7509918fa898e6d7d1253da17" target="_top" xlink:title=" ">
<polygon fill="none" stroke="black" points="237,-38.5 237,-57.5 300,-57.5 300,-38.5 237,-38.5"/>
<text text-anchor="middle" x="268.5" y="-45.5" font-family="Helvetica,sans-Serif" font-size="10.00">print_unit</text>
</a>
</g>
</g>
<!-- Node3&#45;&gt;Node17 -->
<g id="edge23" class="edge">
<title>Node3&#45;&gt;Node17</title>
<path fill="none" stroke="midnightblue" d="M152.81,-190.25C165.33,-167.78 198.5,-111.27 236,-72 238.67,-69.2 241.7,-66.47 244.78,-63.92"/>
<polygon fill="midnightblue" stroke="midnightblue" points="247.14,-66.52 252.91,-57.63 242.86,-60.98 247.14,-66.52"/>
</g>
<!-- Node19 -->
<g id="node19" class="node">
<title>Node19</title>
<g id="a_node19"><a xlink:href="print__numerals_8c.html#a22834cd20b2b265c651ddca592399e75" target="_top" xlink:title=" ">
<polygon fill="none" stroke="black" points="243.5,-114.5 243.5,-133.5 293.5,-133.5 293.5,-114.5 243.5,-114.5"/>
<text text-anchor="middle" x="268.5" y="-121.5" font-family="Helvetica,sans-Serif" font-size="10.00">print_x</text>
</a>
</g>
</g>
<!-- Node3&#45;&gt;Node19 -->
<g id="edge27" class="edge">
<title>Node3&#45;&gt;Node19</title>
<path fill="none" stroke="midnightblue" d="M162.7,-190.37C183.17,-177.41 219.79,-154.21 243.87,-138.96"/>
<polygon fill="midnightblue" stroke="midnightblue" points="245.85,-141.85 252.43,-133.55 242.1,-135.94 245.85,-141.85"/>
</g>
<!-- Node4&#45;&gt;Node2 -->
<g id="edge5" class="edge">
<title>Node4&#45;&gt;Node2</title>
<path fill="none" stroke="midnightblue" d="M301.02,-347.47C332.66,-342.86 382.78,-335.35 426,-328 434.35,-326.58 443.21,-325 451.81,-323.42"/>
<polygon fill="midnightblue" stroke="midnightblue" points="452.53,-326.84 461.73,-321.58 451.26,-319.96 452.53,-326.84"/>
</g>
<!-- Node6 -->
<g id="node6" class="node">
<title>Node6</title>
<g id="a_node6"><a xlink:href="ft__putnbr__fd_8c.html#aefeaea4471b82ac562928b55fec4da3c" target="_top" xlink:title=" ">
<polygon fill="none" stroke="black" points="464.5,-38.5 464.5,-57.5 539.5,-57.5 539.5,-38.5 464.5,-38.5"/>
<text text-anchor="middle" x="502" y="-45.5" font-family="Helvetica,sans-Serif" font-size="10.00">ft_putnbr_fd</text>
</a>
</g>
</g>
<!-- Node5&#45;&gt;Node6 -->
<g id="edge7" class="edge">
<title>Node5&#45;&gt;Node6</title>
<path fill="none" stroke="midnightblue" d="M414.57,-48C426.68,-48 440.73,-48 453.94,-48"/>
<polygon fill="midnightblue" stroke="midnightblue" points="454.3,-51.5 464.3,-48 454.3,-44.5 454.3,-51.5"/>
</g>
<!-- Node12 -->
<g id="node12" class="node">
<title>Node12</title>
<g id="a_node12"><a xlink:href="utils_8c.html#a7f88a9fc8bd1da879b09f8f3a12c3e3f" target="_top" xlink:title=" ">
<polygon fill="none" stroke="black" points="473.5,-76.5 473.5,-95.5 530.5,-95.5 530.5,-76.5 473.5,-76.5"/>
<text text-anchor="middle" x="502" y="-83.5" font-family="Helvetica,sans-Serif" font-size="10.00">get_size</text>
</a>
</g>
</g>
<!-- Node5&#45;&gt;Node12 -->
<g id="edge14" class="edge">
<title>Node5&#45;&gt;Node12</title>
<path fill="none" stroke="midnightblue" d="M412.4,-57.59C427.85,-62.54 446.85,-68.64 463.29,-73.91"/>
<polygon fill="midnightblue" stroke="midnightblue" points="462.55,-77.35 473.14,-77.07 464.69,-70.68 462.55,-77.35"/>
</g>
<!-- Node7 -->
<g id="node7" class="node">
<title>Node7</title>
<g id="a_node7"><a xlink:href="ft__itoa_8c.html#ae5e08fbfd5d8129c2bf3a6c42fc7734c" target="_top" xlink:title=" ">
<polygon fill="none" stroke="black" points="590.5,-76.5 590.5,-95.5 637.5,-95.5 637.5,-76.5 590.5,-76.5"/>
<text text-anchor="middle" x="614" y="-83.5" font-family="Helvetica,sans-Serif" font-size="10.00">ft_itoa</text>
</a>
</g>
</g>
<!-- Node6&#45;&gt;Node7 -->
<g id="edge8" class="edge">
<title>Node6&#45;&gt;Node7</title>
<path fill="none" stroke="midnightblue" d="M530.76,-57.59C545.9,-62.82 564.72,-69.32 580.54,-74.79"/>
<polygon fill="midnightblue" stroke="midnightblue" points="579.84,-78.25 590.43,-78.2 582.12,-71.63 579.84,-78.25"/>
</g>
<!-- Node11 -->
<g id="node11" class="node">
<title>Node11</title>
<g id="a_node11"><a xlink:href="ft__putstr__fd_8c.html#a2c0d915a8579fdf1d3a383a358b23357" target="_top" xlink:title=" ">
<polygon fill="none" stroke="black" points="578,-190.5 578,-209.5 650,-209.5 650,-190.5 578,-190.5"/>
<text text-anchor="middle" x="614" y="-197.5" font-family="Helvetica,sans-Serif" font-size="10.00">ft_putstr_fd</text>
</a>
</g>
</g>
<!-- Node6&#45;&gt;Node11 -->
<g id="edge12" class="edge">
<title>Node6&#45;&gt;Node11</title>
<path fill="none" stroke="midnightblue" d="M528.43,-57.5C533.3,-60.09 538.1,-63.24 542,-67 575.94,-99.71 597.27,-152.22 606.93,-180.48"/>
<polygon fill="midnightblue" stroke="midnightblue" points="603.72,-181.94 610.16,-190.35 610.37,-179.76 603.72,-181.94"/>
</g>
<!-- Node8 -->
<g id="node8" class="node">
<title>Node8</title>
<g id="a_node8"><a xlink:href="ft__strdup_8c.html#ad10f516982133d7c72bfbf4ae150dbf0" target="_top" xlink:title=" ">
<polygon fill="none" stroke="black" points="694.5,-76.5 694.5,-95.5 753.5,-95.5 753.5,-76.5 694.5,-76.5"/>
<text text-anchor="middle" x="724" y="-83.5" font-family="Helvetica,sans-Serif" font-size="10.00">ft_strdup</text>
</a>
</g>
</g>
<!-- Node7&#45;&gt;Node8 -->
<g id="edge9" class="edge">
<title>Node7&#45;&gt;Node8</title>
<path fill="none" stroke="midnightblue" d="M637.64,-86C651.01,-86 668.3,-86 683.82,-86"/>
<polygon fill="midnightblue" stroke="midnightblue" points="684.21,-89.5 694.21,-86 684.21,-82.5 684.21,-89.5"/>
</g>
<!-- Node10 -->
<g id="node10" class="node">
<title>Node10</title>
<g id="a_node10"><a xlink:href="ft__itoa_8c.html#a1e8e028a284928bdb68527df9b0da5ad" target="_top" xlink:title=" ">
<polygon fill="none" stroke="black" points="686,-114.5 686,-133.5 762,-133.5 762,-114.5 686,-114.5"/>
<text text-anchor="middle" x="724" y="-121.5" font-family="Helvetica,sans-Serif" font-size="10.00">get_baselen</text>
</a>
</g>
</g>
<!-- Node7&#45;&gt;Node10 -->
<g id="edge11" class="edge">
<title>Node7&#45;&gt;Node10</title>
<path fill="none" stroke="midnightblue" d="M637.64,-93.97C651.68,-98.9 670.04,-105.36 686.13,-111.03"/>
<polygon fill="midnightblue" stroke="midnightblue" points="685.21,-114.41 695.8,-114.43 687.53,-107.81 685.21,-114.41"/>
</g>
<!-- Node9 -->
<g id="node9" class="node">
<title>Node9</title>
<g id="a_node9"><a xlink:href="ft__strlen_8c.html#abbb8c6c4ed85d892e7f1509f65f5768a" target="_top" xlink:title=" ">
<polygon fill="none" stroke="black" points="798,-190.5 798,-209.5 854,-209.5 854,-190.5 798,-190.5"/>
<text text-anchor="middle" x="826" y="-197.5" font-family="Helvetica,sans-Serif" font-size="10.00">ft_strlen</text>
</a>
</g>
</g>
<!-- Node8&#45;&gt;Node9 -->
<g id="edge10" class="edge">
<title>Node8&#45;&gt;Node9</title>
<path fill="none" stroke="midnightblue" d="M748.09,-95.54C752.99,-98.18 757.91,-101.34 762,-105 786.59,-127 805.87,-160.64 816.33,-181.42"/>
<polygon fill="midnightblue" stroke="midnightblue" points="813.22,-183.03 820.74,-190.49 819.51,-179.96 813.22,-183.03"/>
</g>
<!-- Node11&#45;&gt;Node9 -->
<g id="edge13" class="edge">
<title>Node11&#45;&gt;Node9</title>
<path fill="none" stroke="midnightblue" d="M650.15,-200C688.14,-200 748.47,-200 787.4,-200"/>
<polygon fill="midnightblue" stroke="midnightblue" points="787.77,-203.5 797.77,-200 787.77,-196.5 787.77,-203.5"/>
</g>
<!-- Node13&#45;&gt;Node11 -->
<g id="edge16" class="edge">
<title>Node13&#45;&gt;Node11</title>
<path fill="none" stroke="midnightblue" d="M297.61,-217.45C357.02,-214.16 495.77,-206.48 567.81,-202.5"/>
<polygon fill="midnightblue" stroke="midnightblue" points="568.14,-205.99 577.93,-201.94 567.75,-199 568.14,-205.99"/>
</g>
<!-- Node14 -->
<g id="node14" class="node">
<title>Node14</title>
<g id="a_node14"><a xlink:href="utils_8c.html#a34f85bf1b5e1d7fefd8ca540d87b8fe3" target="_top" xlink:title=" ">
<polygon fill="none" stroke="black" points="343,-266.5 343,-285.5 420,-285.5 420,-266.5 343,-266.5"/>
<text text-anchor="middle" x="381.5" y="-273.5" font-family="Helvetica,sans-Serif" font-size="10.00">print_adress</text>
</a>
</g>
</g>
<!-- Node13&#45;&gt;Node14 -->
<g id="edge17" class="edge">
<title>Node13&#45;&gt;Node14</title>
<path fill="none" stroke="midnightblue" d="M285.35,-228.52C298.87,-236.5 318.95,-248 337,-257 340.55,-258.77 344.3,-260.54 348.06,-262.26"/>
<polygon fill="midnightblue" stroke="midnightblue" points="346.71,-265.49 357.27,-266.37 349.56,-259.1 346.71,-265.49"/>
</g>
<!-- Node15 -->
<g id="node15" class="node">
<title>Node15</title>
<g id="a_node15"><a xlink:href="utils_8c.html#a360d0d61647491d7b257e97bec3cacb8" target="_top" xlink:title=" ">
<polygon fill="none" stroke="black" points="354,-228.5 354,-247.5 409,-247.5 409,-228.5 354,-228.5"/>
<text text-anchor="middle" x="381.5" y="-235.5" font-family="Helvetica,sans-Serif" font-size="10.00">ptr_size</text>
</a>
</g>
</g>
<!-- Node13&#45;&gt;Node15 -->
<g id="edge19" class="edge">
<title>Node13&#45;&gt;Node15</title>
<path fill="none" stroke="midnightblue" d="M297.51,-223.79C311.49,-226.19 328.6,-229.12 343.63,-231.69"/>
<polygon fill="midnightblue" stroke="midnightblue" points="343.2,-235.17 353.65,-233.4 344.38,-228.27 343.2,-235.17"/>
</g>
<!-- Node14&#45;&gt;Node2 -->
<g id="edge18" class="edge">
<title>Node14&#45;&gt;Node2</title>
<path fill="none" stroke="midnightblue" d="M412.4,-285.59C427.28,-290.36 445.46,-296.19 461.47,-301.32"/>
<polygon fill="midnightblue" stroke="midnightblue" points="460.52,-304.69 471.11,-304.41 462.65,-298.03 460.52,-304.69"/>
</g>
<!-- Node16&#45;&gt;Node9 -->
<g id="edge22" class="edge">
<title>Node16&#45;&gt;Node9</title>
<path fill="none" stroke="midnightblue" d="M538.36,-236.14C588.39,-233.19 682.59,-226.45 762,-214 770.42,-212.68 779.4,-210.91 787.86,-209.07"/>
<polygon fill="midnightblue" stroke="midnightblue" points="788.87,-212.43 797.85,-206.82 787.33,-205.6 788.87,-212.43"/>
</g>
<!-- Node16&#45;&gt;Node11 -->
<g id="edge21" class="edge">
<title>Node16&#45;&gt;Node11</title>
<path fill="none" stroke="midnightblue" d="M530.76,-228.41C544.31,-223.73 560.81,-218.03 575.46,-212.97"/>
<polygon fill="midnightblue" stroke="midnightblue" points="576.94,-216.16 585.25,-209.59 574.66,-209.54 576.94,-216.16"/>
</g>
<!-- Node17&#45;&gt;Node12 -->
<g id="edge24" class="edge">
<title>Node17&#45;&gt;Node12</title>
<path fill="none" stroke="midnightblue" d="M299.49,-57.55C311.11,-60.95 324.58,-64.55 337,-67 379.76,-75.44 429.57,-80.56 462.98,-83.32"/>
<polygon fill="midnightblue" stroke="midnightblue" points="462.98,-86.83 473.23,-84.14 463.54,-79.85 462.98,-86.83"/>
</g>
<!-- Node18 -->
<g id="node18" class="node">
<title>Node18</title>
<g id="a_node18"><a xlink:href="utils_8c.html#a9e33b5b3b6df9fac201aaba8b0e01f6e" target="_top" xlink:title=" ">
<polygon fill="none" stroke="black" points="337,-0.5 337,-19.5 426,-19.5 426,-0.5 337,-0.5"/>
<text text-anchor="middle" x="381.5" y="-7.5" font-family="Helvetica,sans-Serif" font-size="10.00">print_unsigned</text>
</a>
</g>
</g>
<!-- Node17&#45;&gt;Node18 -->
<g id="edge25" class="edge">
<title>Node17&#45;&gt;Node18</title>
<path fill="none" stroke="midnightblue" d="M297.51,-38.41C311.18,-33.73 327.83,-28.03 342.62,-22.97"/>
<polygon fill="midnightblue" stroke="midnightblue" points="344.17,-26.14 352.5,-19.59 341.9,-19.51 344.17,-26.14"/>
</g>
<!-- Node18&#45;&gt;Node6 -->
<g id="edge26" class="edge">
<title>Node18&#45;&gt;Node6</title>
<path fill="none" stroke="midnightblue" d="M412.4,-19.59C427.28,-24.36 445.46,-30.19 461.47,-35.32"/>
<polygon fill="midnightblue" stroke="midnightblue" points="460.52,-38.69 471.11,-38.41 462.65,-32.03 460.52,-38.69"/>
</g>
<!-- Node20 -->
<g id="node20" class="node">
<title>Node20</title>
<g id="a_node20"><a xlink:href="utils_8c.html#a22701b95daf4c95098e59dbcf0038d36" target="_top" xlink:title=" ">
<polygon fill="none" stroke="black" points="350.5,-114.5 350.5,-133.5 412.5,-133.5 412.5,-114.5 350.5,-114.5"/>
<text text-anchor="middle" x="381.5" y="-121.5" font-family="Helvetica,sans-Serif" font-size="10.00">print_hex</text>
</a>
</g>
</g>
<!-- Node19&#45;&gt;Node20 -->
<g id="edge28" class="edge">
<title>Node19&#45;&gt;Node20</title>
<path fill="none" stroke="midnightblue" d="M293.59,-124C307.06,-124 324.21,-124 339.71,-124"/>
<polygon fill="midnightblue" stroke="midnightblue" points="340.11,-127.5 350.11,-124 340.11,-120.5 340.11,-127.5"/>
</g>
<!-- Node20&#45;&gt;Node2 -->
<g id="edge29" class="edge">
<title>Node20&#45;&gt;Node2</title>
<path fill="none" stroke="midnightblue" d="M388.08,-133.8C400.79,-156 432.99,-211.69 462,-257 470.48,-270.25 480.52,-284.9 488.29,-296.03"/>
<polygon fill="midnightblue" stroke="midnightblue" points="485.58,-298.27 494.19,-304.44 491.31,-294.24 485.58,-298.27"/>
</g>
<!-- Node20&#45;&gt;Node12 -->
<g id="edge30" class="edge">
<title>Node20&#45;&gt;Node12</title>
<path fill="none" stroke="midnightblue" d="M412.4,-114.41C427.85,-109.46 446.85,-103.36 463.29,-98.09"/>
<polygon fill="midnightblue" stroke="midnightblue" points="464.69,-101.32 473.14,-94.93 462.55,-94.65 464.69,-101.32"/>
</g>
</g>
</svg>
        <g id="navigator" transform="translate(0 0)" fill="#404254">
                <rect fill="#f2f5e9" fill-opacity="0.5" stroke="#606060" stroke-width=".5" x="0" y="0" width="60" height="60"/>
                <use id="zoomplus" xlink:href="#zoomPlus" x="17" y="9" onmousedown="handleZoom(evt,'in')"/>
                <use id="zoomminus" xlink:href="#zoomMin" x="42" y="9" onmousedown="handleZoom(evt,'out')"/>
                <use id="reset" xlink:href="#resetDef" x="30" y="36" onmousedown="handleReset()"/>
                <g id="arrowUp" xlink:href="#dirArrow" transform="translate(30 24)" onmousedown="handlePan(0,-1)">
                  <use xlink:href="#rim" fill="#404040">
                        <set attributeName="fill" to="#808080" begin="arrowUp.mouseover" end="arrowUp.mouseout"/>
                  </use>
                  <path fill="none" stroke="white" stroke-width="1.5" d="M0,-3.0v7 M-2.5,-0.5L0,-3.0L2.5,-0.5"/>
                </g>
                <g id="arrowRight" xlink:href="#dirArrow" transform="rotate(90) translate(36 -43)" onmousedown="handlePan(1,0)">
                  <use xlink:href="#rim" fill="#404040">
                        <set attributeName="fill" to="#808080" begin="arrowRight.mouseover" end="arrowRight.mouseout"/>
                  </use>
                  <path fill="none" stroke="white" stroke-width="1.5" d="M0,-3.0v7 M-2.5,-0.5L0,-3.0L2.5,-0.5"/>
                </g>
                <g id="arrowDown" xlink:href="#dirArrow" transform="rotate(180) translate(-30 -48)" onmousedown="handlePan(0,1)">
                  <use xlink:href="#rim" fill="#404040">
                        <set attributeName="fill" to="#808080" begin="arrowDown.mouseover" end="arrowDown.mouseout"/>
                  </use>
                  <path fill="none" stroke="white" stroke-width="1.5" d="M0,-3.0v7 M-2.5,-0.5L0,-3.0L2.5,-0.5"/>
                </g>
                <g id="arrowLeft" xlink:href="#dirArrow" transform="rotate(270) translate(-36 17)" onmousedown="handlePan(-1,0)">
                  <use xlink:href="#rim" fill="#404040">
                        <set attributeName="fill" to="#808080" begin="arrowLeft.mouseover" end="arrowLeft.mouseout"/>
                  </use>
                  <path fill="none" stroke="white" stroke-width="1.5" d="M0,-3.0v7 M-2.5,-0.5L0,-3.0L2.5,-0.5"/>
                </g>
        </g>
        <svg viewBox="0 0 15 15" width="100%" height="30px" preserveAspectRatio="xMaxYMin meet">
         <g id="arrow_out" transform="scale(0.3 0.3)">
          <a xlink:href="ft__printf_8c_a3405fc8c14988dfacb1adb5b5c415f98_cgraph_org.svg" target="_base">
           <rect id="button" ry="5" rx="5" y="6" x="6" height="38" width="38"
                fill="#f2f5e9" fill-opacity="0.5" stroke="#606060" stroke-width="1.0"/>
           <path id="arrow"
             d="M 11.500037,31.436501 C 11.940474,20.09759 22.043105,11.32322 32.158766,21.979434 L 37.068811,17.246167 C 37.068811,17.246167 37.088388,32 37.088388,32 L 22.160133,31.978069 C 22.160133,31.978069 26.997745,27.140456 26.997745,27.140456 C 18.528582,18.264221 13.291696,25.230495 11.500037,31.436501 z"
             style="fill:#404040;"/>
          </a>
         </g>
        </svg>
</svg>
