<?xml version="1.0" encoding="UTF-8" standalone="no"?>
<!DOCTYPE svg PUBLIC "-//W3C//DTD SVG 1.1//EN"
 "http://www.w3.org/Graphics/SVG/1.1/DTD/svg11.dtd">
<!-- Generated by graphviz version 2.43.0 (0)
 -->
<!-- Title: ft_isdouble Pages: 1 -->
<!--zoomable 340 -->
<svg id="main" version="1.1" xmlns="http://www.w3.org/2000/svg" xmlns:xlink="http://www.w3.org/1999/xlink" xml:space="preserve" onload="init(evt)">
<style type="text/css"><![CDATA[
.edge:hover path { stroke: red; }
.edge:hover polygon { stroke: red; fill: red; }
]]></style>
<script type="text/javascript"><![CDATA[
var edges = document.getElementsByTagName('g');
if (edges && edges.length) {
  for (var i=0;i<edges.length;i++) {
    if (edges[i].id.substr(0,4)=='edge') {
      edges[i].setAttribute('class','edge');
    }
  }
}
]]></script>
        <defs>
                <circle id="rim" cx="0" cy="0" r="7"/>
                <circle id="rim2" cx="0" cy="0" r="3.5"/>
                <g id="zoomPlus">
                        <use xlink:href="#rim" fill="#404040">
                                <set attributeName="fill" to="#808080" begin="zoomplus.mouseover" end="zoomplus.mouseout"/>
                        </use>
                        <path d="M-4,0h8M0,-4v8" fill="none" stroke="white" stroke-width="1.5" pointer-events="none"/>
                </g>
                <g id="zoomMin">
                        <use xlink:href="#rim" fill="#404040">
                                <set attributeName="fill" to="#808080" begin="zoomminus.mouseover" end="zoomminus.mouseout"/>
                        </use>
                        <path d="M-4,0h8" fill="none" stroke="white" stroke-width="1.5" pointer-events="none"/>
                </g>
                <g id="dirArrow">
                        <path fill="none" stroke="white" stroke-width="1.5" d="M0,-3.0v7 M-2.5,-0.5L0,-3.0L2.5,-0.5"/>
                </g>
               <g id="resetDef">
                       <use xlink:href="#rim2" fill="#404040">
                               <set attributeName="fill" to="#808080" begin="reset.mouseover" end="reset.mouseout"/>
                       </use>
               </g>
        </defs>

<script type="text/javascript">
var viewWidth = 999;
var viewHeight = 340;
var sectionId = 'dynsection-2';
</script>
<script xlink:href="svgpan.js"/>
<svg id="graph" class="graph">
<g id="viewport">
<title>ft_isdouble</title>
<!-- Node1 -->
<g id="node1" class="node">
<title>Node1</title>
<g id="a_node1"><a xlink:title=" ">
<polygon fill="#bfbfbf" stroke="black" points="921,-152.5 921,-171.5 991,-171.5 991,-152.5 921,-152.5"/>
<text text-anchor="middle" x="956" y="-159.5" font-family="Helvetica,sans-Serif" font-size="10.00">ft_isdouble</text>
</a>
</g>
</g>
<!-- Node2 -->
<g id="node2" class="node">
<title>Node2</title>
<g id="a_node2"><a xlink:href="pars__by__id_8c.html#aae9d8e45bb777526ea8b8b8763b56532" target="_top" xlink:title="parse the ambiant light line data by data to check if everything seems to be in the right format">
<polygon fill="none" stroke="black" points="503,-304.5 503,-323.5 598,-323.5 598,-304.5 503,-304.5"/>
<text text-anchor="middle" x="550.5" y="-311.5" font-family="Helvetica,sans-Serif" font-size="10.00">check_amb_line</text>
</a>
</g>
</g>
<!-- Node1&#45;&gt;Node2 -->
<g id="edge1" class="edge">
<title>Node1&#45;&gt;Node2</title>
<path fill="none" stroke="midnightblue" d="M949.91,-181.57C941.51,-209.62 921.87,-260.53 885,-285 797.35,-343.17 666.93,-333.58 598.03,-322.97"/>
<polygon fill="midnightblue" stroke="midnightblue" points="953.34,-182.31 952.68,-171.73 946.6,-180.41 953.34,-182.31"/>
</g>
<!-- Node8 -->
<g id="node8" class="node">
<title>Node8</title>
<g id="a_node8"><a xlink:href="pars__by__id_8c.html#a93ffc8bba67d516facc6a1ac5e2bd38f" target="_top" xlink:title="parse the light line data by data to check if everything seems to be in the right format">
<polygon fill="none" stroke="black" points="503,-266.5 503,-285.5 598,-285.5 598,-266.5 503,-266.5"/>
<text text-anchor="middle" x="550.5" y="-273.5" font-family="Helvetica,sans-Serif" font-size="10.00">check_light_line</text>
</a>
</g>
</g>
<!-- Node1&#45;&gt;Node8 -->
<g id="edge7" class="edge">
<title>Node1&#45;&gt;Node8</title>
<path fill="none" stroke="midnightblue" d="M947.13,-181.01C936.65,-203.6 915.78,-240.33 885,-257 793.34,-306.64 665.98,-295.94 598.24,-285.16"/>
<polygon fill="midnightblue" stroke="midnightblue" points="950.38,-182.31 951.21,-171.75 943.98,-179.49 950.38,-182.31"/>
</g>
<!-- Node9 -->
<g id="node9" class="node">
<title>Node9</title>
<g id="a_node9"><a xlink:href="pars__by__id__utils_8c.html#a6c5774f7d1ec5f7c07ef6d73755acfe3" target="_top" xlink:title=" ">
<polygon fill="none" stroke="black" points="637,-152.5 637,-171.5 759,-171.5 759,-152.5 637,-152.5"/>
<text text-anchor="middle" x="698" y="-159.5" font-family="Helvetica,sans-Serif" font-size="10.00">check_n_pass_double</text>
</a>
</g>
</g>
<!-- Node1&#45;&gt;Node9 -->
<g id="edge9" class="edge">
<title>Node1&#45;&gt;Node9</title>
<path fill="none" stroke="midnightblue" d="M910.56,-162C868.63,-162 805.45,-162 759.04,-162"/>
<polygon fill="midnightblue" stroke="midnightblue" points="910.74,-165.5 920.74,-162 910.74,-158.5 910.74,-165.5"/>
</g>
<!-- Node11 -->
<g id="node11" class="node">
<title>Node11</title>
<g id="a_node11"><a xlink:href="pars__by__id__2_8c.html#a005ec2ea2912f984015d46521f60ea1d" target="_top" xlink:title="parse the sphere line data by data to check if everything seems to be in the right format">
<polygon fill="none" stroke="black" points="500,-114.5 500,-133.5 601,-133.5 601,-114.5 500,-114.5"/>
<text text-anchor="middle" x="550.5" y="-121.5" font-family="Helvetica,sans-Serif" font-size="10.00">check_spher_line</text>
</a>
</g>
</g>
<!-- Node1&#45;&gt;Node11 -->
<g id="edge12" class="edge">
<title>Node1&#45;&gt;Node11</title>
<path fill="none" stroke="midnightblue" d="M910.51,-157.62C870.79,-153.72 811.02,-147.9 759,-143 705.16,-137.93 643.44,-132.3 601.4,-128.49"/>
<polygon fill="midnightblue" stroke="midnightblue" points="910.37,-161.12 920.66,-158.62 911.05,-154.16 910.37,-161.12"/>
</g>
<!-- Node12 -->
<g id="node12" class="node">
<title>Node12</title>
<g id="a_node12"><a xlink:href="init__by__id_8c.html#a68f19e79246a8fb7d714af2730635a6c" target="_top" xlink:title=" ">
<polygon fill="none" stroke="black" points="655,-76.5 655,-95.5 741,-95.5 741,-76.5 655,-76.5"/>
<text text-anchor="middle" x="698" y="-83.5" font-family="Helvetica,sans-Serif" font-size="10.00">init_ambl_line</text>
</a>
</g>
</g>
<!-- Node1&#45;&gt;Node12 -->
<g id="edge14" class="edge">
<title>Node1&#45;&gt;Node12</title>
<path fill="none" stroke="midnightblue" d="M938.16,-145.56C924.86,-133.61 905.23,-118.16 885,-110 838.2,-91.11 779.89,-86.3 741.16,-85.44"/>
<polygon fill="midnightblue" stroke="midnightblue" points="935.87,-148.2 945.57,-152.45 940.63,-143.08 935.87,-148.2"/>
</g>
<!-- Node15 -->
<g id="node15" class="node">
<title>Node15</title>
<g id="a_node15"><a xlink:href="init__by__id__2_8c.html#a9000aac2ed117ef0115410bcee6bd22f" target="_top" xlink:title=" ">
<polygon fill="none" stroke="black" points="805.5,-38.5 805.5,-57.5 874.5,-57.5 874.5,-38.5 805.5,-38.5"/>
<text text-anchor="middle" x="840" y="-45.5" font-family="Helvetica,sans-Serif" font-size="10.00">init_cy_obj</text>
</a>
</g>
</g>
<!-- Node1&#45;&gt;Node15 -->
<g id="edge18" class="edge">
<title>Node1&#45;&gt;Node15</title>
<path fill="none" stroke="midnightblue" d="M943.99,-143.68C931.54,-124.1 909.76,-93.04 885,-72 878.37,-66.36 870.21,-61.47 862.72,-57.6"/>
<polygon fill="midnightblue" stroke="midnightblue" points="941.08,-145.62 949.32,-152.28 947.03,-141.93 941.08,-145.62"/>
</g>
<!-- Node17 -->
<g id="node17" class="node">
<title>Node17</title>
<g id="a_node17"><a xlink:href="init__by__id__2_8c.html#a9c253a587aec0eef958de34c177e7706" target="_top" xlink:title=" ">
<polygon fill="none" stroke="black" points="805.5,-0.5 805.5,-19.5 874.5,-19.5 874.5,-0.5 805.5,-0.5"/>
<text text-anchor="middle" x="840" y="-7.5" font-family="Helvetica,sans-Serif" font-size="10.00">init_sp_obj</text>
</a>
</g>
</g>
<!-- Node1&#45;&gt;Node17 -->
<g id="edge21" class="edge">
<title>Node1&#45;&gt;Node17</title>
<path fill="none" stroke="midnightblue" d="M949.4,-142.65C940.27,-114.22 919.63,-61.07 885,-29 880.97,-25.27 876.09,-22.2 871.08,-19.7"/>
<polygon fill="midnightblue" stroke="midnightblue" points="946.07,-143.71 952.34,-152.24 952.76,-141.66 946.07,-143.71"/>
</g>
<!-- Node18 -->
<g id="node18" class="node">
<title>Node18</title>
<g id="a_node18"><a xlink:href="pars__by__id__utils_8c.html#abea1fb599a76ff548d9490880767d112" target="_top" xlink:title=" ">
<polygon fill="none" stroke="black" points="795,-228.5 795,-247.5 885,-247.5 885,-228.5 795,-228.5"/>
<text text-anchor="middle" x="840" y="-235.5" font-family="Helvetica,sans-Serif" font-size="10.00">non_last_value</text>
</a>
</g>
</g>
<!-- Node1&#45;&gt;Node18 -->
<g id="edge23" class="edge">
<title>Node1&#45;&gt;Node18</title>
<path fill="none" stroke="midnightblue" d="M937.16,-178.86C923.6,-191.08 904.08,-207.42 885,-219 879.31,-222.45 872.88,-225.6 866.73,-228.3"/>
<polygon fill="midnightblue" stroke="midnightblue" points="939.78,-181.21 944.78,-171.87 935.05,-176.05 939.78,-181.21"/>
</g>
<!-- Node22 -->
<g id="node22" class="node">
<title>Node22</title>
<g id="a_node22"><a xlink:href="pars__by__id__utils_8c.html#a15f7d82d0fd11191ef82dd2cf3867781" target="_top" xlink:title=" ">
<polygon fill="none" stroke="black" points="804.5,-190.5 804.5,-209.5 875.5,-209.5 875.5,-190.5 804.5,-190.5"/>
<text text-anchor="middle" x="840" y="-197.5" font-family="Helvetica,sans-Serif" font-size="10.00">third_value</text>
</a>
</g>
</g>
<!-- Node1&#45;&gt;Node22 -->
<g id="edge33" class="edge">
<title>Node1&#45;&gt;Node22</title>
<path fill="none" stroke="midnightblue" d="M916.52,-174.83C901.23,-179.92 883.93,-185.69 869.76,-190.41"/>
<polygon fill="midnightblue" stroke="midnightblue" points="917.85,-178.07 926.23,-171.59 915.64,-171.43 917.85,-178.07"/>
</g>
<!-- Node3 -->
<g id="node3" class="node">
<title>Node3</title>
<g id="a_node3"><a xlink:href="pars__by__id_8c.html#aa07cb52cd6b72392127269e515aefcfd" target="_top" xlink:title="use the id&#39;s buffer to send the line in the dedicated function">
<polygon fill="none" stroke="black" points="387,-190.5 387,-209.5 464,-209.5 464,-190.5 387,-190.5"/>
<text text-anchor="middle" x="425.5" y="-197.5" font-family="Helvetica,sans-Serif" font-size="10.00">check_by_id</text>
</a>
</g>
</g>
<!-- Node2&#45;&gt;Node3 -->
<g id="edge2" class="edge">
<title>Node2&#45;&gt;Node3</title>
<path fill="none" stroke="midnightblue" d="M507.91,-300.05C505.14,-298.52 502.47,-296.84 500,-295 467.54,-270.86 442.07,-228.75 431.63,-209.77"/>
<polygon fill="midnightblue" stroke="midnightblue" points="506.48,-303.25 517.01,-304.46 509.54,-296.95 506.48,-303.25"/>
</g>
<!-- Node4 -->
<g id="node4" class="node">
<title>Node4</title>
<g id="a_node4"><a xlink:href="parsing_8c.html#a95628579f07d1fb4d6c3503291b9b9ce" target="_top" xlink:title="The .rt file contains whole the information of the scene The function goes throught the line and chec...">
<polygon fill="none" stroke="black" points="294.5,-181.5 294.5,-200.5 348.5,-200.5 348.5,-181.5 294.5,-181.5"/>
<text text-anchor="middle" x="321.5" y="-188.5" font-family="Helvetica,sans-Serif" font-size="10.00">is_valid</text>
</a>
</g>
</g>
<!-- Node3&#45;&gt;Node4 -->
<g id="edge3" class="edge">
<title>Node3&#45;&gt;Node4</title>
<path fill="none" stroke="midnightblue" d="M376.8,-195.79C367.08,-194.93 357.2,-194.06 348.59,-193.3"/>
<polygon fill="midnightblue" stroke="midnightblue" points="376.54,-199.28 386.81,-196.67 377.16,-192.31 376.54,-199.28"/>
</g>
<!-- Node5 -->
<g id="node5" class="node">
<title>Node5</title>
<g id="a_node5"><a xlink:href="init_8c.html#ae9e383a98f96a7271fe4a4756d461647" target="_top" xlink:title="Open the file and exctrat the first line to send it int the checker function if it&#39;s usable,...">
<polygon fill="none" stroke="black" points="178,-143.5 178,-162.5 256,-162.5 256,-143.5 178,-143.5"/>
<text text-anchor="middle" x="217" y="-150.5" font-family="Helvetica,sans-Serif" font-size="10.00">extract_data</text>
</a>
</g>
</g>
<!-- Node4&#45;&gt;Node5 -->
<g id="edge4" class="edge">
<title>Node4&#45;&gt;Node5</title>
<path fill="none" stroke="midnightblue" d="M285.12,-177.88C271.56,-172.86 256.36,-167.22 243.86,-162.59"/>
<polygon fill="midnightblue" stroke="midnightblue" points="284.04,-181.22 294.63,-181.41 286.48,-174.65 284.04,-181.22"/>
</g>
<!-- Node6 -->
<g id="node6" class="node">
<title>Node6</title>
<g id="a_node6"><a xlink:href="init_8c.html#a07e4aac387087ca3bf395a13c7c66408" target="_top" xlink:title="Open the file passed as argument, check the format of the fd then if the data are well configurated....">
<polygon fill="none" stroke="black" points="77,-143.5 77,-162.5 142,-162.5 142,-143.5 77,-143.5"/>
<text text-anchor="middle" x="109.5" y="-150.5" font-family="Helvetica,sans-Serif" font-size="10.00">init_struct</text>
</a>
</g>
</g>
<!-- Node5&#45;&gt;Node6 -->
<g id="edge5" class="edge">
<title>Node5&#45;&gt;Node6</title>
<path fill="none" stroke="midnightblue" d="M167.86,-153C159.19,-153 150.34,-153 142.28,-153"/>
<polygon fill="midnightblue" stroke="midnightblue" points="167.91,-156.5 177.91,-153 167.91,-149.5 167.91,-156.5"/>
</g>
<!-- Node7 -->
<g id="node7" class="node">
<title>Node7</title>
<g id="a_node7"><a xlink:href="sources_2main_8c.html#a0c99d968a34e803d378692bde2e3f18f" target="_top" xlink:title=" ">
<polygon fill="none" stroke="black" points="0,-143.5 0,-162.5 41,-162.5 41,-143.5 0,-143.5"/>
<text text-anchor="middle" x="20.5" y="-150.5" font-family="Helvetica,sans-Serif" font-size="10.00">main</text>
</a>
</g>
</g>
<!-- Node6&#45;&gt;Node7 -->
<g id="edge6" class="edge">
<title>Node6&#45;&gt;Node7</title>
<path fill="none" stroke="midnightblue" d="M66.32,-153C57.47,-153 48.54,-153 41,-153"/>
<polygon fill="midnightblue" stroke="midnightblue" points="66.6,-156.5 76.6,-153 66.6,-149.5 66.6,-156.5"/>
</g>
<!-- Node8&#45;&gt;Node3 -->
<g id="edge8" class="edge">
<title>Node8&#45;&gt;Node3</title>
<path fill="none" stroke="midnightblue" d="M510.94,-262.49C507.17,-260.79 503.46,-258.95 500,-257 475.52,-243.21 450.36,-221.83 436.76,-209.55"/>
<polygon fill="midnightblue" stroke="midnightblue" points="509.74,-265.78 520.32,-266.43 512.46,-259.33 509.74,-265.78"/>
</g>
<!-- Node10 -->
<g id="node10" class="node">
<title>Node10</title>
<g id="a_node10"><a xlink:href="pars__by__id__2_8c.html#a43cfc0fbfc0ff7163ba7a8b65d2e1ee8" target="_top" xlink:title="parse the cylinder line data by data to check if everything seems to be in the right format">
<polygon fill="none" stroke="black" points="502,-152.5 502,-171.5 599,-171.5 599,-152.5 502,-152.5"/>
<text text-anchor="middle" x="550.5" y="-159.5" font-family="Helvetica,sans-Serif" font-size="10.00">check_cylin_line</text>
</a>
</g>
</g>
<!-- Node9&#45;&gt;Node10 -->
<g id="edge10" class="edge">
<title>Node9&#45;&gt;Node10</title>
<path fill="none" stroke="midnightblue" d="M626.92,-162C617.6,-162 608.22,-162 599.39,-162"/>
<polygon fill="midnightblue" stroke="midnightblue" points="626.98,-165.5 636.98,-162 626.98,-158.5 626.98,-165.5"/>
</g>
<!-- Node10&#45;&gt;Node3 -->
<g id="edge11" class="edge">
<title>Node10&#45;&gt;Node3</title>
<path fill="none" stroke="midnightblue" d="M508.46,-174.68C491.84,-179.81 472.97,-185.64 457.53,-190.41"/>
<polygon fill="midnightblue" stroke="midnightblue" points="509.94,-177.88 518.46,-171.59 507.87,-171.2 509.94,-177.88"/>
</g>
<!-- Node11&#45;&gt;Node3 -->
<g id="edge13" class="edge">
<title>Node11&#45;&gt;Node3</title>
<path fill="none" stroke="midnightblue" d="M510.94,-137.51C507.17,-139.21 503.46,-141.05 500,-143 475.52,-156.79 450.36,-178.17 436.76,-190.45"/>
<polygon fill="midnightblue" stroke="midnightblue" points="512.46,-140.67 520.32,-133.57 509.74,-134.22 512.46,-140.67"/>
</g>
<!-- Node13 -->
<g id="node13" class="node">
<title>Node13</title>
<g id="a_node13"><a xlink:href="init__by__id_8c.html#a03e9084d346bb883c0aeee720e9645ae" target="_top" xlink:title=" ">
<polygon fill="none" stroke="black" points="518.5,-76.5 518.5,-95.5 582.5,-95.5 582.5,-76.5 518.5,-76.5"/>
<text text-anchor="middle" x="550.5" y="-83.5" font-family="Helvetica,sans-Serif" font-size="10.00">init_by_id</text>
</a>
</g>
</g>
<!-- Node12&#45;&gt;Node13 -->
<g id="edge15" class="edge">
<title>Node12&#45;&gt;Node13</title>
<path fill="none" stroke="midnightblue" d="M644.67,-86C623.97,-86 600.87,-86 582.86,-86"/>
<polygon fill="midnightblue" stroke="midnightblue" points="644.92,-89.5 654.92,-86 644.92,-82.5 644.92,-89.5"/>
</g>
<!-- Node14 -->
<g id="node14" class="node">
<title>Node14</title>
<g id="a_node14"><a xlink:href="init_8c.html#abd340417bb5b18b52228a304625f9ef7" target="_top" xlink:title="get the id of the element, then use it to store the datas in the correct struct">
<polygon fill="none" stroke="black" points="292,-124.5 292,-143.5 351,-143.5 351,-124.5 292,-124.5"/>
<text text-anchor="middle" x="321.5" y="-131.5" font-family="Helvetica,sans-Serif" font-size="10.00">get_data</text>
</a>
</g>
</g>
<!-- Node13&#45;&gt;Node14 -->
<g id="edge16" class="edge">
<title>Node13&#45;&gt;Node14</title>
<path fill="none" stroke="midnightblue" d="M508.58,-94.65C463.1,-104.27 390.83,-119.55 351.07,-127.96"/>
<polygon fill="midnightblue" stroke="midnightblue" points="509.35,-98.07 518.41,-92.57 507.9,-91.22 509.35,-98.07"/>
</g>
<!-- Node14&#45;&gt;Node5 -->
<g id="edge17" class="edge">
<title>Node14&#45;&gt;Node5</title>
<path fill="none" stroke="midnightblue" d="M282.02,-141.13C273.63,-142.69 264.75,-144.33 256.36,-145.89"/>
<polygon fill="midnightblue" stroke="midnightblue" points="282.75,-144.56 291.95,-139.29 281.48,-137.67 282.75,-144.56"/>
</g>
<!-- Node16 -->
<g id="node16" class="node">
<title>Node16</title>
<g id="a_node16"><a xlink:href="init__by__id__2_8c.html#af36607a497f6ea371746b827597257f4" target="_top" xlink:title=" ">
<polygon fill="none" stroke="black" points="664,-38.5 664,-57.5 732,-57.5 732,-38.5 664,-38.5"/>
<text text-anchor="middle" x="698" y="-45.5" font-family="Helvetica,sans-Serif" font-size="10.00">init_object</text>
</a>
</g>
</g>
<!-- Node15&#45;&gt;Node16 -->
<g id="edge19" class="edge">
<title>Node15&#45;&gt;Node16</title>
<path fill="none" stroke="midnightblue" d="M795.19,-48C774.86,-48 751.09,-48 732.26,-48"/>
<polygon fill="midnightblue" stroke="midnightblue" points="795.47,-51.5 805.47,-48 795.47,-44.5 795.47,-51.5"/>
</g>
<!-- Node16&#45;&gt;Node13 -->
<g id="edge20" class="edge">
<title>Node16&#45;&gt;Node13</title>
<path fill="none" stroke="midnightblue" d="M654.19,-59.18C631.35,-65.15 603.73,-72.36 582.89,-77.8"/>
<polygon fill="midnightblue" stroke="midnightblue" points="655.19,-62.54 663.98,-56.62 653.42,-55.76 655.19,-62.54"/>
</g>
<!-- Node17&#45;&gt;Node16 -->
<g id="edge22" class="edge">
<title>Node17&#45;&gt;Node16</title>
<path fill="none" stroke="midnightblue" d="M795.75,-21.74C775.3,-27.29 751.26,-33.82 732.26,-38.97"/>
<polygon fill="midnightblue" stroke="midnightblue" points="796.73,-25.1 805.47,-19.1 794.9,-18.34 796.73,-25.1"/>
</g>
<!-- Node19 -->
<g id="node19" class="node">
<title>Node19</title>
<g id="a_node19"><a xlink:href="pars__by__id__utils_8c.html#adb6f8132fd53f6936a75a9f6bd486a6b" target="_top" xlink:title=" ">
<polygon fill="none" stroke="black" points="643,-209.5 643,-228.5 753,-228.5 753,-209.5 643,-209.5"/>
<text text-anchor="middle" x="698" y="-216.5" font-family="Helvetica,sans-Serif" font-size="10.00">three_follow_value</text>
</a>
</g>
</g>
<!-- Node18&#45;&gt;Node19 -->
<g id="edge24" class="edge">
<title>Node18&#45;&gt;Node19</title>
<path fill="none" stroke="midnightblue" d="M784.56,-230.61C774.22,-229.21 763.4,-227.74 753.08,-226.34"/>
<polygon fill="midnightblue" stroke="midnightblue" points="784.32,-234.11 794.7,-231.99 785.26,-227.18 784.32,-234.11"/>
</g>
<!-- Node19&#45;&gt;Node2 -->
<g id="edge25" class="edge">
<title>Node19&#45;&gt;Node2</title>
<path fill="none" stroke="midnightblue" d="M679.54,-235.54C661.15,-252.27 630.79,-278.02 601,-295 594.68,-298.6 587.55,-301.79 580.71,-304.48"/>
<polygon fill="midnightblue" stroke="midnightblue" points="682.13,-237.91 687.1,-228.55 677.38,-232.77 682.13,-237.91"/>
</g>
<!-- Node19&#45;&gt;Node8 -->
<g id="edge29" class="edge">
<title>Node19&#45;&gt;Node8</title>
<path fill="none" stroke="midnightblue" d="M663.54,-232.34C645.11,-239.67 621.81,-248.89 601,-257 593.02,-260.11 584.31,-263.47 576.45,-266.48"/>
<polygon fill="midnightblue" stroke="midnightblue" points="664.96,-235.54 672.96,-228.6 662.38,-229.04 664.96,-235.54"/>
</g>
<!-- Node19&#45;&gt;Node10 -->
<g id="edge28" class="edge">
<title>Node19&#45;&gt;Node10</title>
<path fill="none" stroke="midnightblue" d="M663.54,-205.66C645.11,-198.33 621.81,-189.11 601,-181 593.02,-177.89 584.31,-174.53 576.45,-171.52"/>
<polygon fill="midnightblue" stroke="midnightblue" points="662.38,-208.96 672.96,-209.4 664.96,-202.46 662.38,-208.96"/>
</g>
<!-- Node19&#45;&gt;Node11 -->
<g id="edge32" class="edge">
<title>Node19&#45;&gt;Node11</title>
<path fill="none" stroke="midnightblue" d="M670.75,-204.32C659.88,-197.75 647.41,-189.57 637,-181 619.04,-166.22 620.34,-155.93 601,-143 595.41,-139.26 588.99,-136.11 582.66,-133.52"/>
<polygon fill="midnightblue" stroke="midnightblue" points="669.02,-207.36 679.42,-209.42 672.58,-201.33 669.02,-207.36"/>
</g>
<!-- Node20 -->
<g id="node20" class="node">
<title>Node20</title>
<g id="a_node20"><a xlink:href="pars__by__id_8c.html#aa9fb5025efa91f457dfb1dd8c7f45a87" target="_top" xlink:title="parse the camera line data by data to check if everything seems to be in the right format">
<polygon fill="none" stroke="black" points="503,-228.5 503,-247.5 598,-247.5 598,-228.5 503,-228.5"/>
<text text-anchor="middle" x="550.5" y="-235.5" font-family="Helvetica,sans-Serif" font-size="10.00">check_cam_line</text>
</a>
</g>
</g>
<!-- Node19&#45;&gt;Node20 -->
<g id="edge26" class="edge">
<title>Node19&#45;&gt;Node20</title>
<path fill="none" stroke="midnightblue" d="M632.69,-227.4C621.04,-228.92 609.1,-230.48 598.08,-231.92"/>
<polygon fill="midnightblue" stroke="midnightblue" points="633.36,-230.84 642.82,-226.07 632.45,-223.9 633.36,-230.84"/>
</g>
<!-- Node21 -->
<g id="node21" class="node">
<title>Node21</title>
<g id="a_node21"><a xlink:href="pars__by__id__2_8c.html#a2efcbf6f6d7c44df98e12589820ed909" target="_top" xlink:title="parse the plane line data by data to check if everything seems to be in the right format">
<polygon fill="none" stroke="black" points="500,-190.5 500,-209.5 601,-209.5 601,-190.5 500,-190.5"/>
<text text-anchor="middle" x="550.5" y="-197.5" font-family="Helvetica,sans-Serif" font-size="10.00">check_plane_line</text>
</a>
</g>
</g>
<!-- Node19&#45;&gt;Node21 -->
<g id="edge30" class="edge">
<title>Node19&#45;&gt;Node21</title>
<path fill="none" stroke="midnightblue" d="M632.83,-210.62C622.29,-209.24 611.51,-207.84 601.39,-206.52"/>
<polygon fill="midnightblue" stroke="midnightblue" points="632.45,-214.1 642.82,-211.93 633.36,-207.16 632.45,-214.1"/>
</g>
<!-- Node20&#45;&gt;Node3 -->
<g id="edge27" class="edge">
<title>Node20&#45;&gt;Node3</title>
<path fill="none" stroke="midnightblue" d="M508.46,-225.32C491.84,-220.19 472.97,-214.36 457.53,-209.59"/>
<polygon fill="midnightblue" stroke="midnightblue" points="507.87,-228.8 518.46,-228.41 509.94,-222.12 507.87,-228.8"/>
</g>
<!-- Node21&#45;&gt;Node3 -->
<g id="edge31" class="edge">
<title>Node21&#45;&gt;Node3</title>
<path fill="none" stroke="midnightblue" d="M489.71,-200C481.04,-200 472.32,-200 464.25,-200"/>
<polygon fill="midnightblue" stroke="midnightblue" points="489.83,-203.5 499.83,-200 489.83,-196.5 489.83,-203.5"/>
</g>
<!-- Node22&#45;&gt;Node19 -->
<g id="edge34" class="edge">
<title>Node22&#45;&gt;Node19</title>
<path fill="none" stroke="midnightblue" d="M794.23,-206.08C781.14,-207.85 766.7,-209.81 753.1,-211.66"/>
<polygon fill="midnightblue" stroke="midnightblue" points="794.95,-209.51 804.39,-204.7 794.01,-202.57 794.95,-209.51"/>
</g>
</g>
</svg>
        <g id="navigator" transform="translate(0 0)" fill="#404254">
                <rect fill="#f2f5e9" fill-opacity="0.5" stroke="#606060" stroke-width=".5" x="0" y="0" width="60" height="60"/>
                <use id="zoomplus" xlink:href="#zoomPlus" x="17" y="9" onmousedown="handleZoom(evt,'in')"/>
                <use id="zoomminus" xlink:href="#zoomMin" x="42" y="9" onmousedown="handleZoom(evt,'out')"/>
                <use id="reset" xlink:href="#resetDef" x="30" y="36" onmousedown="handleReset()"/>
                <g id="arrowUp" xlink:href="#dirArrow" transform="translate(30 24)" onmousedown="handlePan(0,-1)">
                  <use xlink:href="#rim" fill="#404040">
                        <set attributeName="fill" to="#808080" begin="arrowUp.mouseover" end="arrowUp.mouseout"/>
                  </use>
                  <path fill="none" stroke="white" stroke-width="1.5" d="M0,-3.0v7 M-2.5,-0.5L0,-3.0L2.5,-0.5"/>
                </g>
                <g id="arrowRight" xlink:href="#dirArrow" transform="rotate(90) translate(36 -43)" onmousedown="handlePan(1,0)">
                  <use xlink:href="#rim" fill="#404040">
                        <set attributeName="fill" to="#808080" begin="arrowRight.mouseover" end="arrowRight.mouseout"/>
                  </use>
                  <path fill="none" stroke="white" stroke-width="1.5" d="M0,-3.0v7 M-2.5,-0.5L0,-3.0L2.5,-0.5"/>
                </g>
                <g id="arrowDown" xlink:href="#dirArrow" transform="rotate(180) translate(-30 -48)" onmousedown="handlePan(0,1)">
                  <use xlink:href="#rim" fill="#404040">
                        <set attributeName="fill" to="#808080" begin="arrowDown.mouseover" end="arrowDown.mouseout"/>
                  </use>
                  <path fill="none" stroke="white" stroke-width="1.5" d="M0,-3.0v7 M-2.5,-0.5L0,-3.0L2.5,-0.5"/>
                </g>
                <g id="arrowLeft" xlink:href="#dirArrow" transform="rotate(270) translate(-36 17)" onmousedown="handlePan(-1,0)">
                  <use xlink:href="#rim" fill="#404040">
                        <set attributeName="fill" to="#808080" begin="arrowLeft.mouseover" end="arrowLeft.mouseout"/>
                  </use>
                  <path fill="none" stroke="white" stroke-width="1.5" d="M0,-3.0v7 M-2.5,-0.5L0,-3.0L2.5,-0.5"/>
                </g>
        </g>
        <svg viewBox="0 0 15 15" width="100%" height="30px" preserveAspectRatio="xMaxYMin meet">
         <g id="arrow_out" transform="scale(0.3 0.3)">
          <a xlink:href="ft__isdouble_8c_a81ec5127ff70b1b5c18d3d04cab4e73b_icgraph_org.svg" target="_base">
           <rect id="button" ry="5" rx="5" y="6" x="6" height="38" width="38"
                fill="#f2f5e9" fill-opacity="0.5" stroke="#606060" stroke-width="1.0"/>
           <path id="arrow"
             d="M 11.500037,31.436501 C 11.940474,20.09759 22.043105,11.32322 32.158766,21.979434 L 37.068811,17.246167 C 37.068811,17.246167 37.088388,32 37.088388,32 L 22.160133,31.978069 C 22.160133,31.978069 26.997745,27.140456 26.997745,27.140456 C 18.528582,18.264221 13.291696,25.230495 11.500037,31.436501 z"
             style="fill:#404040;"/>
          </a>
         </g>
        </svg>
</svg>
