<?xml version="1.0" encoding="UTF-8" standalone="no"?>
<!DOCTYPE svg PUBLIC "-//W3C//DTD SVG 1.1//EN"
 "http://www.w3.org/Graphics/SVG/1.1/DTD/svg11.dtd">
<!-- Generated by graphviz version 2.43.0 (0)
 -->
<!-- Title: get_size Pages: 1 -->
<!--zoomable 408 -->
<svg id="main" version="1.1" xmlns="http://www.w3.org/2000/svg" xmlns:xlink="http://www.w3.org/1999/xlink" xml:space="preserve" onload="init(evt)">
<style type="text/css"><![CDATA[
.edge:hover path { stroke: red; }
.edge:hover polygon { stroke: red; fill: red; }
]]></style>
<script type="text/javascript"><![CDATA[
var edges = document.getElementsByTagName('g');
if (edges && edges.length) {
  for (var i=0;i<edges.length;i++) {
    if (edges[i].id.substr(0,4)=='edge') {
      edges[i].setAttribute('class','edge');
    }
  }
}
]]></script>
        <defs>
                <circle id="rim" cx="0" cy="0" r="7"/>
                <circle id="rim2" cx="0" cy="0" r="3.5"/>
                <g id="zoomPlus">
                        <use xlink:href="#rim" fill="#404040">
                                <set attributeName="fill" to="#808080" begin="zoomplus.mouseover" end="zoomplus.mouseout"/>
                        </use>
                        <path d="M-4,0h8M0,-4v8" fill="none" stroke="white" stroke-width="1.5" pointer-events="none"/>
                </g>
                <g id="zoomMin">
                        <use xlink:href="#rim" fill="#404040">
                                <set attributeName="fill" to="#808080" begin="zoomminus.mouseover" end="zoomminus.mouseout"/>
                        </use>
                        <path d="M-4,0h8" fill="none" stroke="white" stroke-width="1.5" pointer-events="none"/>
                </g>
                <g id="dirArrow">
                        <path fill="none" stroke="white" stroke-width="1.5" d="M0,-3.0v7 M-2.5,-0.5L0,-3.0L2.5,-0.5"/>
                </g>
               <g id="resetDef">
                       <use xlink:href="#rim2" fill="#404040">
                               <set attributeName="fill" to="#808080" begin="reset.mouseover" end="reset.mouseout"/>
                       </use>
               </g>
        </defs>

<script type="text/javascript">
var viewWidth = 1377;
var viewHeight = 408;
var sectionId = 'dynsection-4';
</script>
<script xlink:href="svgpan.js"/>
<svg id="graph" class="graph">
<g id="viewport">
<title>get_size</title>
<!-- Node1 -->
<g id="node1" class="node">
<title>Node1</title>
<g id="a_node1"><a xlink:title=" ">
<polygon fill="#bfbfbf" stroke="black" points="1312,-190.32 1312,-209.32 1369,-209.32 1369,-190.32 1312,-190.32"/>
<text text-anchor="middle" x="1340.5" y="-197.32" font-family="Helvetica,sans-Serif" font-size="10.00">get_size</text>
</a>
</g>
</g>
<!-- Node2 -->
<g id="node2" class="node">
<title>Node2</title>
<g id="a_node2"><a xlink:href="utils_8c.html#a22701b95daf4c95098e59dbcf0038d36" target="_top" xlink:title=" ">
<polygon fill="none" stroke="black" points="1213.5,-228.32 1213.5,-247.32 1275.5,-247.32 1275.5,-228.32 1213.5,-228.32"/>
<text text-anchor="middle" x="1244.5" y="-235.32" font-family="Helvetica,sans-Serif" font-size="10.00">print_hex</text>
</a>
</g>
</g>
<!-- Node1&#45;&gt;Node2 -->
<g id="edge1" class="edge">
<title>Node1&#45;&gt;Node2</title>
<path fill="none" stroke="midnightblue" d="M1306.32,-213.23C1294.08,-218.18 1280.46,-223.69 1269.21,-228.24"/>
<polygon fill="midnightblue" stroke="midnightblue" points="1307.82,-216.4 1315.78,-209.41 1305.2,-209.91 1307.82,-216.4"/>
</g>
<!-- Node28 -->
<g id="node28" class="node">
<title>Node28</title>
<g id="a_node28"><a xlink:href="print__numerals_8c.html#ad8a0a2e8f704f3e61fa57f371f831f68" target="_top" xlink:title=" ">
<polygon fill="none" stroke="black" points="1111,-190.32 1111,-209.32 1177,-209.32 1177,-190.32 1111,-190.32"/>
<text text-anchor="middle" x="1144" y="-197.32" font-family="Helvetica,sans-Serif" font-size="10.00">print_num</text>
</a>
</g>
</g>
<!-- Node1&#45;&gt;Node28 -->
<g id="edge38" class="edge">
<title>Node1&#45;&gt;Node28</title>
<path fill="none" stroke="midnightblue" d="M1301.44,-199.82C1265.17,-199.82 1211.15,-199.82 1177.02,-199.82"/>
<polygon fill="midnightblue" stroke="midnightblue" points="1301.63,-203.32 1311.63,-199.82 1301.63,-196.32 1301.63,-203.32"/>
</g>
<!-- Node29 -->
<g id="node29" class="node">
<title>Node29</title>
<g id="a_node29"><a xlink:href="print__numerals_8c.html#a7f1bbbd7509918fa898e6d7d1253da17" target="_top" xlink:title=" ">
<polygon fill="none" stroke="black" points="1213,-152.32 1213,-171.32 1276,-171.32 1276,-152.32 1213,-152.32"/>
<text text-anchor="middle" x="1244.5" y="-159.32" font-family="Helvetica,sans-Serif" font-size="10.00">print_unit</text>
</a>
</g>
</g>
<!-- Node1&#45;&gt;Node29 -->
<g id="edge40" class="edge">
<title>Node1&#45;&gt;Node29</title>
<path fill="none" stroke="midnightblue" d="M1306.32,-186.41C1294.08,-181.46 1280.46,-175.95 1269.21,-171.41"/>
<polygon fill="midnightblue" stroke="midnightblue" points="1305.2,-189.73 1315.78,-190.23 1307.82,-183.24 1305.2,-189.73"/>
</g>
<!-- Node3 -->
<g id="node3" class="node">
<title>Node3</title>
<g id="a_node3"><a xlink:href="print__numerals_8c.html#a22834cd20b2b265c651ddca592399e75" target="_top" xlink:title=" ">
<polygon fill="none" stroke="black" points="1119,-228.32 1119,-247.32 1169,-247.32 1169,-228.32 1119,-228.32"/>
<text text-anchor="middle" x="1144" y="-235.32" font-family="Helvetica,sans-Serif" font-size="10.00">print_x</text>
</a>
</g>
</g>
<!-- Node2&#45;&gt;Node3 -->
<g id="edge2" class="edge">
<title>Node2&#45;&gt;Node3</title>
<path fill="none" stroke="midnightblue" d="M1203.13,-237.82C1191.65,-237.82 1179.5,-237.82 1169.3,-237.82"/>
<polygon fill="midnightblue" stroke="midnightblue" points="1203.41,-241.32 1213.41,-237.82 1203.41,-234.32 1203.41,-241.32"/>
</g>
<!-- Node4 -->
<g id="node4" class="node">
<title>Node4</title>
<g id="a_node4"><a xlink:href="ft__printf_8h.html#af29dc335f4bec333dd094f728dbed242" target="_top" xlink:title=" ">
<polygon fill="none" stroke="black" points="968,-190.32 968,-209.32 1075,-209.32 1075,-190.32 968,-190.32"/>
<text text-anchor="middle" x="1021.5" y="-197.32" font-family="Helvetica,sans-Serif" font-size="10.00">handle_convertion</text>
</a>
</g>
</g>
<!-- Node3&#45;&gt;Node4 -->
<g id="edge3" class="edge">
<title>Node3&#45;&gt;Node4</title>
<path fill="none" stroke="midnightblue" d="M1109.02,-227.11C1091.41,-221.55 1070.06,-214.82 1052.98,-209.44"/>
<polygon fill="midnightblue" stroke="midnightblue" points="1108.31,-230.55 1118.9,-230.22 1110.42,-223.88 1108.31,-230.55"/>
</g>
<!-- Node5 -->
<g id="node5" class="node">
<title>Node5</title>
<g id="a_node5"><a xlink:href="ft__printf_8c.html#a3405fc8c14988dfacb1adb5b5c415f98" target="_top" xlink:title=" ">
<polygon fill="none" stroke="black" points="867.5,-242.32 867.5,-261.32 924.5,-261.32 924.5,-242.32 867.5,-242.32"/>
<text text-anchor="middle" x="896" y="-249.32" font-family="Helvetica,sans-Serif" font-size="10.00">print_str</text>
</a>
</g>
</g>
<!-- Node4&#45;&gt;Node5 -->
<g id="edge4" class="edge">
<title>Node4&#45;&gt;Node5</title>
<path fill="none" stroke="midnightblue" d="M988.48,-213.31C966.99,-222.35 939.21,-234.05 919.93,-242.17"/>
<polygon fill="midnightblue" stroke="midnightblue" points="989.99,-216.47 997.85,-209.36 987.27,-210.02 989.99,-216.47"/>
</g>
<!-- Node14 -->
<g id="node14" class="node">
<title>Node14</title>
<g id="a_node14"><a xlink:href="ft__dprintf_8c.html#a9e09ed3b18150b2d3f3198d0cb42e4a1" target="_top" xlink:title=" ">
<polygon fill="none" stroke="black" points="860,-171.32 860,-190.32 932,-190.32 932,-171.32 860,-171.32"/>
<text text-anchor="middle" x="896" y="-178.32" font-family="Helvetica,sans-Serif" font-size="10.00">print_str_fd</text>
</a>
</g>
</g>
<!-- Node4&#45;&gt;Node14 -->
<g id="edge13" class="edge">
<title>Node4&#45;&gt;Node14</title>
<path fill="none" stroke="midnightblue" d="M957.8,-190.18C948.96,-188.82 940.13,-187.46 932.06,-186.22"/>
<polygon fill="midnightblue" stroke="midnightblue" points="957.35,-193.65 967.77,-191.71 958.42,-186.73 957.35,-193.65"/>
</g>
<!-- Node6 -->
<g id="node6" class="node">
<title>Node6</title>
<g id="a_node6"><a xlink:href="ft__printf_8h.html#a1ee8ae8a80a7d9141ea5339af8565f2e" target="_top" xlink:title=" ">
<polygon fill="none" stroke="black" points="766,-275.32 766,-294.32 821,-294.32 821,-275.32 766,-275.32"/>
<text text-anchor="middle" x="793.5" y="-282.32" font-family="Helvetica,sans-Serif" font-size="10.00">ft_printf</text>
</a>
</g>
</g>
<!-- Node5&#45;&gt;Node6 -->
<g id="edge5" class="edge">
<title>Node5&#45;&gt;Node6</title>
<path fill="none" stroke="midnightblue" d="M857.44,-264.16C845.35,-268.12 832.22,-272.44 821.1,-276.09"/>
<polygon fill="midnightblue" stroke="midnightblue" points="858.86,-267.37 867.27,-260.93 856.68,-260.72 858.86,-267.37"/>
</g>
<!-- Node7 -->
<g id="node7" class="node">
<title>Node7</title>
<g id="a_node7"><a xlink:href="vec3__operations2_8c.html#aece2686d74f4d89a97c3925fc5d69b94" target="_top" xlink:title=" ">
<polygon fill="none" stroke="black" points="633,-342.32 633,-361.32 727,-361.32 727,-342.32 633,-342.32"/>
<text text-anchor="middle" x="680" y="-349.32" font-family="Helvetica,sans-Serif" font-size="10.00">vec3_normalize</text>
</a>
</g>
</g>
<!-- Node6&#45;&gt;Node7 -->
<g id="edge6" class="edge">
<title>Node6&#45;&gt;Node7</title>
<path fill="none" stroke="midnightblue" d="M770.28,-300.21C757.76,-308.67 741.73,-319.18 727,-327.82 718.46,-332.84 708.76,-337.98 700.48,-342.2"/>
<polygon fill="midnightblue" stroke="midnightblue" points="772.41,-302.99 778.7,-294.46 768.47,-297.2 772.41,-302.99"/>
</g>
<!-- Node8 -->
<g id="node8" class="node">
<title>Node8</title>
<g id="a_node8"><a xlink:href="camera_8c.html#a9f4f6a3e1bf24e3b830f116e88d8cffa" target="_top" xlink:title=" ">
<polygon fill="none" stroke="black" points="494,-342.32 494,-361.32 575,-361.32 575,-342.32 494,-342.32"/>
<text text-anchor="middle" x="534.5" y="-349.32" font-family="Helvetica,sans-Serif" font-size="10.00">generate_ray</text>
</a>
</g>
</g>
<!-- Node7&#45;&gt;Node8 -->
<g id="edge7" class="edge">
<title>Node7&#45;&gt;Node8</title>
<path fill="none" stroke="midnightblue" d="M622.61,-351.82C606.8,-351.82 589.96,-351.82 575.33,-351.82"/>
<polygon fill="midnightblue" stroke="midnightblue" points="622.81,-355.32 632.81,-351.82 622.81,-348.32 622.81,-355.32"/>
</g>
<!-- Node12 -->
<g id="node12" class="node">
<title>Node12</title>
<g id="a_node12"><a xlink:href="camera_8c.html#a493fb71bff75313ce9f49e2fc3b09c41" target="_top" xlink:title=" ">
<polygon fill="none" stroke="black" points="493,-380.32 493,-399.32 576,-399.32 576,-380.32 493,-380.32"/>
<text text-anchor="middle" x="534.5" y="-387.32" font-family="Helvetica,sans-Serif" font-size="10.00">mat4_look_at</text>
</a>
</g>
</g>
<!-- Node7&#45;&gt;Node12 -->
<g id="edge11" class="edge">
<title>Node7&#45;&gt;Node12</title>
<path fill="none" stroke="midnightblue" d="M633.03,-364C613.18,-369.25 590.31,-375.31 571.7,-380.24"/>
<polygon fill="midnightblue" stroke="midnightblue" points="634.02,-367.35 642.79,-361.41 632.23,-360.59 634.02,-367.35"/>
</g>
<!-- Node9 -->
<g id="node9" class="node">
<title>Node9</title>
<g id="a_node9"><a xlink:href="render_8c.html#a58819fe9e35a8bb7e462c16c041a375a" target="_top" xlink:title=" ">
<polygon fill="none" stroke="black" points="352,-342.32 352,-361.32 400,-361.32 400,-342.32 352,-342.32"/>
<text text-anchor="middle" x="376" y="-349.32" font-family="Helvetica,sans-Serif" font-size="10.00">render</text>
</a>
</g>
</g>
<!-- Node8&#45;&gt;Node9 -->
<g id="edge8" class="edge">
<title>Node8&#45;&gt;Node9</title>
<path fill="none" stroke="midnightblue" d="M483.6,-351.82C455.68,-351.82 422.19,-351.82 400.3,-351.82"/>
<polygon fill="midnightblue" stroke="midnightblue" points="483.6,-355.32 493.6,-351.82 483.6,-348.32 483.6,-355.32"/>
</g>
<!-- Node10 -->
<g id="node10" class="node">
<title>Node10</title>
<g id="a_node10"><a xlink:href="render_8c.html#aa41d06a60a10afc0dd8036aaa31b53d7" target="_top" xlink:title=" ">
<polygon fill="none" stroke="black" points="203,-304.32 203,-323.32 279,-323.32 279,-304.32 203,-304.32"/>
<text text-anchor="middle" x="241" y="-311.32" font-family="Helvetica,sans-Serif" font-size="10.00">start_render</text>
</a>
</g>
</g>
<!-- Node9&#45;&gt;Node10 -->
<g id="edge9" class="edge">
<title>Node9&#45;&gt;Node10</title>
<path fill="none" stroke="midnightblue" d="M342.07,-342.42C321.76,-336.61 295.77,-329.18 275.37,-323.36"/>
<polygon fill="midnightblue" stroke="midnightblue" points="341.26,-345.82 351.83,-345.2 343.18,-339.09 341.26,-345.82"/>
</g>
<!-- Node11 -->
<g id="node11" class="node">
<title>Node11</title>
<g id="a_node11"><a xlink:href="sources_2main_8c.html#a0c99d968a34e803d378692bde2e3f18f" target="_top" xlink:title=" ">
<polygon fill="none" stroke="black" points="0,-123.32 0,-142.32 41,-142.32 41,-123.32 0,-123.32"/>
<text text-anchor="middle" x="20.5" y="-130.32" font-family="Helvetica,sans-Serif" font-size="10.00">main</text>
</a>
</g>
</g>
<!-- Node10&#45;&gt;Node11 -->
<g id="edge10" class="edge">
<title>Node10&#45;&gt;Node11</title>
<path fill="none" stroke="midnightblue" d="M214.96,-298.77C210.56,-295.92 206.09,-292.86 202,-289.82 133.35,-238.76 58.31,-168.21 31.61,-142.61"/>
<polygon fill="midnightblue" stroke="midnightblue" points="213.41,-301.93 223.74,-304.31 217.15,-296.01 213.41,-301.93"/>
</g>
<!-- Node13 -->
<g id="node13" class="node">
<title>Node13</title>
<g id="a_node13"><a xlink:href="camera_8c.html#af49668765ab4c7e3c87e8fbe0ae50aef" target="_top" xlink:title=" ">
<polygon fill="none" stroke="black" points="316,-380.32 316,-399.32 436,-399.32 436,-380.32 316,-380.32"/>
<text text-anchor="middle" x="376" y="-387.32" font-family="Helvetica,sans-Serif" font-size="10.00">build_camera_matrix</text>
</a>
</g>
</g>
<!-- Node12&#45;&gt;Node13 -->
<g id="edge12" class="edge">
<title>Node12&#45;&gt;Node13</title>
<path fill="none" stroke="midnightblue" d="M482.75,-389.82C467.86,-389.82 451.44,-389.82 436.07,-389.82"/>
<polygon fill="midnightblue" stroke="midnightblue" points="482.79,-393.32 492.79,-389.82 482.79,-386.32 482.79,-393.32"/>
</g>
<!-- Node15 -->
<g id="node15" class="node">
<title>Node15</title>
<g id="a_node15"><a xlink:href="ft__dprintf_8h.html#aa9dce60b6115aff15d563fb64e7f834b" target="_top" xlink:title=" ">
<polygon fill="none" stroke="black" points="763,-171.32 763,-190.32 824,-190.32 824,-171.32 763,-171.32"/>
<text text-anchor="middle" x="793.5" y="-178.32" font-family="Helvetica,sans-Serif" font-size="10.00">ft_dprintf</text>
</a>
</g>
</g>
<!-- Node14&#45;&gt;Node15 -->
<g id="edge14" class="edge">
<title>Node14&#45;&gt;Node15</title>
<path fill="none" stroke="midnightblue" d="M849.79,-180.82C841.09,-180.82 832.18,-180.82 824.13,-180.82"/>
<polygon fill="midnightblue" stroke="midnightblue" points="849.85,-184.32 859.85,-180.82 849.85,-177.32 849.85,-184.32"/>
</g>
<!-- Node15&#45;&gt;Node11 -->
<g id="edge31" class="edge">
<title>Node15&#45;&gt;Node11</title>
<path fill="none" stroke="midnightblue" d="M790.31,-161.02C785.47,-127.63 770.57,-60.69 727,-28.82 657.96,21.66 621.03,-9.82 535.5,-9.82 535.5,-9.82 535.5,-9.82 240,-9.82 164.6,-9.82 138.78,-13.61 77,-56.82 51.83,-74.43 33.7,-107.16 25.84,-123.31"/>
<polygon fill="midnightblue" stroke="midnightblue" points="786.89,-161.84 791.63,-171.31 793.83,-160.95 786.89,-161.84"/>
</g>
<!-- Node16 -->
<g id="node16" class="node">
<title>Node16</title>
<g id="a_node16"><a xlink:href="parsing_8c.html#ab073ef8fbff37fca387d08096aac3019" target="_top" xlink:title="Check if there&#39;s already one of supposed unique reference find in the file.">
<polygon fill="none" stroke="black" points="636,-114.32 636,-133.32 724,-133.32 724,-114.32 636,-114.32"/>
<text text-anchor="middle" x="680" y="-121.32" font-family="Helvetica,sans-Serif" font-size="10.00">already_in_file</text>
</a>
</g>
</g>
<!-- Node15&#45;&gt;Node16 -->
<g id="edge15" class="edge">
<title>Node15&#45;&gt;Node16</title>
<path fill="none" stroke="midnightblue" d="M764.77,-166.64C744.48,-156.28 717.51,-142.49 699.72,-133.39"/>
<polygon fill="midnightblue" stroke="midnightblue" points="763.34,-169.85 773.84,-171.28 766.53,-163.61 763.34,-169.85"/>
</g>
<!-- Node17 -->
<g id="node17" class="node">
<title>Node17</title>
<g id="a_node17"><a xlink:href="parsing_8c.html#a95628579f07d1fb4d6c3503291b9b9ce" target="_top" xlink:title="The .rt file contains whole the information of the scene The function goes throught the line and chec...">
<polygon fill="none" stroke="black" points="507.5,-152.32 507.5,-171.32 561.5,-171.32 561.5,-152.32 507.5,-152.32"/>
<text text-anchor="middle" x="534.5" y="-159.32" font-family="Helvetica,sans-Serif" font-size="10.00">is_valid</text>
</a>
</g>
</g>
<!-- Node15&#45;&gt;Node17 -->
<g id="edge30" class="edge">
<title>Node15&#45;&gt;Node17</title>
<path fill="none" stroke="midnightblue" d="M752.7,-177.88C699.61,-173.96 607.08,-167.11 561.87,-163.77"/>
<polygon fill="midnightblue" stroke="midnightblue" points="752.54,-181.38 762.77,-178.62 753.05,-174.4 752.54,-181.38"/>
</g>
<!-- Node18 -->
<g id="node18" class="node">
<title>Node18</title>
<g id="a_node18"><a xlink:href="init_8c.html#ae9e383a98f96a7271fe4a4756d461647" target="_top" xlink:title="Open the file and exctrat the first line to send it int the checker function if it&#39;s usable,...">
<polygon fill="none" stroke="black" points="202,-138.32 202,-157.32 280,-157.32 280,-138.32 202,-138.32"/>
<text text-anchor="middle" x="241" y="-145.32" font-family="Helvetica,sans-Serif" font-size="10.00">extract_data</text>
</a>
</g>
</g>
<!-- Node15&#45;&gt;Node18 -->
<g id="edge25" class="edge">
<title>Node15&#45;&gt;Node18</title>
<path fill="none" stroke="midnightblue" d="M772.15,-196.4C759.82,-204.84 743.34,-214.42 727,-218.82 686.66,-229.68 674.65,-222.09 633,-218.82 490.81,-207.68 455.3,-199.46 316,-168.82 301.52,-165.64 285.69,-161.27 272.39,-157.34"/>
<polygon fill="midnightblue" stroke="midnightblue" points="774.24,-199.2 780.34,-190.54 770.17,-193.51 774.24,-199.2"/>
</g>
<!-- Node19 -->
<g id="node19" class="node">
<title>Node19</title>
<g id="a_node19"><a xlink:href="init_8c.html#a07e4aac387087ca3bf395a13c7c66408" target="_top" xlink:title="Open the file passed as argument, check the format of the fd then if the data are well configurated....">
<polygon fill="none" stroke="black" points="89,-138.32 89,-157.32 154,-157.32 154,-138.32 89,-138.32"/>
<text text-anchor="middle" x="121.5" y="-145.32" font-family="Helvetica,sans-Serif" font-size="10.00">init_struct</text>
</a>
</g>
</g>
<!-- Node15&#45;&gt;Node19 -->
<g id="edge26" class="edge">
<title>Node15&#45;&gt;Node19</title>
<path fill="none" stroke="midnightblue" d="M776.5,-197.81C764.12,-209.94 745.94,-225.67 727,-234.82 648.63,-272.7 622.54,-275.82 535.5,-275.82 535.5,-275.82 535.5,-275.82 375,-275.82 322.66,-275.82 182.62,-187.21 137.05,-157.44"/>
<polygon fill="midnightblue" stroke="midnightblue" points="779.22,-200.04 783.75,-190.46 774.24,-195.12 779.22,-200.04"/>
</g>
<!-- Node20 -->
<g id="node20" class="node">
<title>Node20</title>
<g id="a_node20"><a xlink:href="create__mlx__render_8c.html#a05d95c3d579a903650bd4aaae16a3f91" target="_top" xlink:title=" ">
<polygon fill="none" stroke="black" points="481,-304.32 481,-323.32 588,-323.32 588,-304.32 481,-304.32"/>
<text text-anchor="middle" x="534.5" y="-311.32" font-family="Helvetica,sans-Serif" font-size="10.00">create_mlx_image</text>
</a>
</g>
</g>
<!-- Node15&#45;&gt;Node20 -->
<g id="edge20" class="edge">
<title>Node15&#45;&gt;Node20</title>
<path fill="none" stroke="midnightblue" d="M786.83,-199.95C778.28,-225.11 759.54,-268.63 727,-289.82 685.86,-316.61 629.1,-320.6 588.06,-319.11"/>
<polygon fill="midnightblue" stroke="midnightblue" points="790.17,-200.99 789.88,-190.4 783.5,-198.86 790.17,-200.99"/>
</g>
<!-- Node21 -->
<g id="node21" class="node">
<title>Node21</title>
<g id="a_node21"><a xlink:href="manage__error_8c.html#aa011f64a263de366c672653b6a20f765" target="_top" xlink:title="Print the error message if the id line containg wrong data.">
<polygon fill="none" stroke="black" points="644.5,-190.32 644.5,-209.32 715.5,-209.32 715.5,-190.32 644.5,-190.32"/>
<text text-anchor="middle" x="680" y="-197.32" font-family="Helvetica,sans-Serif" font-size="10.00">error_by_id</text>
</a>
</g>
</g>
<!-- Node15&#45;&gt;Node21 -->
<g id="edge23" class="edge">
<title>Node15&#45;&gt;Node21</title>
<path fill="none" stroke="midnightblue" d="M753.05,-187.54C740.93,-189.61 727.67,-191.87 715.88,-193.88"/>
<polygon fill="midnightblue" stroke="midnightblue" points="753.64,-190.99 762.91,-185.86 752.47,-184.09 753.64,-190.99"/>
</g>
<!-- Node22 -->
<g id="node22" class="node">
<title>Node22</title>
<g id="a_node22"><a xlink:href="sources_2init_2mlx_2mlx__init_8c.html#a2330f44f3bb980ce6a50923b2e03543d" target="_top" xlink:title=" ">
<polygon fill="none" stroke="black" points="642.5,-38.32 642.5,-57.32 717.5,-57.32 717.5,-38.32 642.5,-38.32"/>
<text text-anchor="middle" x="680" y="-45.32" font-family="Helvetica,sans-Serif" font-size="10.00">init_window</text>
</a>
</g>
</g>
<!-- Node15&#45;&gt;Node22 -->
<g id="edge27" class="edge">
<title>Node15&#45;&gt;Node22</title>
<path fill="none" stroke="midnightblue" d="M785.99,-161.72C776.6,-136.77 757.02,-93.18 727,-66.82 722.71,-63.06 717.58,-59.97 712.32,-57.47"/>
<polygon fill="midnightblue" stroke="midnightblue" points="782.71,-162.94 789.39,-171.17 789.3,-160.57 782.71,-162.94"/>
</g>
<!-- Node24 -->
<g id="node24" class="node">
<title>Node24</title>
<g id="a_node24"><a xlink:href="manage__error_8c.html#a3b62e66743e7e1c735c6492d790a4095" target="_top" xlink:title=" ">
<polygon fill="none" stroke="black" points="635.5,-76.32 635.5,-95.32 724.5,-95.32 724.5,-76.32 635.5,-76.32"/>
<text text-anchor="middle" x="680" y="-83.32" font-family="Helvetica,sans-Serif" font-size="10.00">print_message</text>
</a>
</g>
</g>
<!-- Node15&#45;&gt;Node24 -->
<g id="edge32" class="edge">
<title>Node15&#45;&gt;Node24</title>
<path fill="none" stroke="midnightblue" d="M780.62,-162.68C768.77,-145.77 749.16,-120.83 727,-104.82 721.96,-101.18 716.11,-98.08 710.32,-95.51"/>
<polygon fill="midnightblue" stroke="midnightblue" points="777.86,-164.84 786.38,-171.14 783.64,-160.9 777.86,-164.84"/>
</g>
<!-- Node16&#45;&gt;Node17 -->
<g id="edge16" class="edge">
<title>Node16&#45;&gt;Node17</title>
<path fill="none" stroke="midnightblue" d="M632.99,-136.01C609.44,-142.24 581.62,-149.61 561.74,-154.87"/>
<polygon fill="midnightblue" stroke="midnightblue" points="634.02,-139.35 642.79,-133.41 632.23,-132.59 634.02,-139.35"/>
</g>
<!-- Node17&#45;&gt;Node18 -->
<g id="edge17" class="edge">
<title>Node17&#45;&gt;Node18</title>
<path fill="none" stroke="midnightblue" d="M497.34,-160.09C442.07,-157.43 337.08,-152.39 280.47,-149.67"/>
<polygon fill="midnightblue" stroke="midnightblue" points="497.22,-163.58 507.37,-160.57 497.55,-156.59 497.22,-163.58"/>
</g>
<!-- Node18&#45;&gt;Node19 -->
<g id="edge18" class="edge">
<title>Node18&#45;&gt;Node19</title>
<path fill="none" stroke="midnightblue" d="M191.48,-147.82C178.89,-147.82 165.65,-147.82 154.17,-147.82"/>
<polygon fill="midnightblue" stroke="midnightblue" points="191.85,-151.32 201.85,-147.82 191.85,-144.32 191.85,-151.32"/>
</g>
<!-- Node19&#45;&gt;Node11 -->
<g id="edge19" class="edge">
<title>Node19&#45;&gt;Node11</title>
<path fill="none" stroke="midnightblue" d="M78.65,-141.48C65.58,-139.5 51.77,-137.41 41.01,-135.78"/>
<polygon fill="midnightblue" stroke="midnightblue" points="78.49,-145 88.9,-143.04 79.54,-138.08 78.49,-145"/>
</g>
<!-- Node20&#45;&gt;Node9 -->
<g id="edge21" class="edge">
<title>Node20&#45;&gt;Node9</title>
<path fill="none" stroke="midnightblue" d="M484,-325.84C456.05,-332.63 422.42,-340.79 400.42,-346.14"/>
<polygon fill="midnightblue" stroke="midnightblue" points="485.12,-329.17 494.01,-323.41 483.46,-322.37 485.12,-329.17"/>
</g>
<!-- Node20&#45;&gt;Node10 -->
<g id="edge22" class="edge">
<title>Node20&#45;&gt;Node10</title>
<path fill="none" stroke="midnightblue" d="M470.5,-313.82C412.15,-313.82 327.34,-313.82 279.14,-313.82"/>
<polygon fill="midnightblue" stroke="midnightblue" points="470.71,-317.32 480.71,-313.82 470.71,-310.32 470.71,-317.32"/>
</g>
<!-- Node21&#45;&gt;Node17 -->
<g id="edge24" class="edge">
<title>Node21&#45;&gt;Node17</title>
<path fill="none" stroke="midnightblue" d="M634.38,-188.01C610.58,-181.7 582.09,-174.16 561.83,-168.79"/>
<polygon fill="midnightblue" stroke="midnightblue" points="633.7,-191.45 644.26,-190.62 635.49,-184.68 633.7,-191.45"/>
</g>
<!-- Node23 -->
<g id="node23" class="node">
<title>Node23</title>
<g id="a_node23"><a xlink:href="sources_2init_2mlx_2mlx__init_8c.html#a2bdc7aa8aec9eaa59c7a71c03c55cbbf" target="_top" xlink:title=" ">
<polygon fill="none" stroke="black" points="77,-66.32 77,-85.32 166,-85.32 166,-66.32 77,-66.32"/>
<text text-anchor="middle" x="121.5" y="-73.32" font-family="Helvetica,sans-Serif" font-size="10.00">init_mlx_struct</text>
</a>
</g>
</g>
<!-- Node22&#45;&gt;Node23 -->
<g id="edge28" class="edge">
<title>Node22&#45;&gt;Node23</title>
<path fill="none" stroke="midnightblue" d="M632.43,-50.17C526.65,-55.49 269.44,-68.43 166.33,-73.62"/>
<polygon fill="midnightblue" stroke="midnightblue" points="632.68,-53.66 642.49,-49.66 632.32,-46.67 632.68,-53.66"/>
</g>
<!-- Node23&#45;&gt;Node11 -->
<g id="edge29" class="edge">
<title>Node23&#45;&gt;Node11</title>
<path fill="none" stroke="midnightblue" d="M94.91,-90.56C76.98,-100.88 53.56,-114.36 38.05,-123.3"/>
<polygon fill="midnightblue" stroke="midnightblue" points="96.79,-93.51 103.71,-85.49 93.29,-87.45 96.79,-93.51"/>
</g>
<!-- Node25 -->
<g id="node25" class="node">
<title>Node25</title>
<g id="a_node25"><a xlink:href="manage__error_8c.html#aa1a012266e54f8b24b1b1e33fe61ad96" target="_top" xlink:title=" ">
<polygon fill="none" stroke="black" points="472,-76.32 472,-95.32 597,-95.32 597,-76.32 472,-76.32"/>
<text text-anchor="middle" x="534.5" y="-83.32" font-family="Helvetica,sans-Serif" font-size="10.00">manage_extract_error</text>
</a>
</g>
</g>
<!-- Node24&#45;&gt;Node25 -->
<g id="edge33" class="edge">
<title>Node24&#45;&gt;Node25</title>
<path fill="none" stroke="midnightblue" d="M625.05,-85.82C615.91,-85.82 606.35,-85.82 597.03,-85.82"/>
<polygon fill="midnightblue" stroke="midnightblue" points="625.17,-89.32 635.17,-85.82 625.17,-82.32 625.17,-89.32"/>
</g>
<!-- Node26 -->
<g id="node26" class="node">
<title>Node26</title>
<g id="a_node26"><a xlink:href="init_8c.html#abd340417bb5b18b52228a304625f9ef7" target="_top" xlink:title="get the id of the element, then use it to store the datas in the correct struct">
<polygon fill="none" stroke="black" points="346.5,-76.32 346.5,-95.32 405.5,-95.32 405.5,-76.32 346.5,-76.32"/>
<text text-anchor="middle" x="376" y="-83.32" font-family="Helvetica,sans-Serif" font-size="10.00">get_data</text>
</a>
</g>
</g>
<!-- Node25&#45;&gt;Node26 -->
<g id="edge34" class="edge">
<title>Node25&#45;&gt;Node26</title>
<path fill="none" stroke="midnightblue" d="M461.43,-85.82C441.74,-85.82 421.52,-85.82 405.81,-85.82"/>
<polygon fill="midnightblue" stroke="midnightblue" points="461.65,-89.32 471.65,-85.82 461.65,-82.32 461.65,-89.32"/>
</g>
<!-- Node27 -->
<g id="node27" class="node">
<title>Node27</title>
<g id="a_node27"><a xlink:href="manage__error_8c.html#abd002ea39b02c304b49b46565c70a284" target="_top" xlink:title="If an error occure during the parsing/excrating file while using get_next_line, try to close the fd a...">
<polygon fill="none" stroke="black" points="323.5,-114.32 323.5,-133.32 428.5,-133.32 428.5,-114.32 323.5,-114.32"/>
<text text-anchor="middle" x="376" y="-121.32" font-family="Helvetica,sans-Serif" font-size="10.00">manage_gnl_error</text>
</a>
</g>
</g>
<!-- Node25&#45;&gt;Node27 -->
<g id="edge36" class="edge">
<title>Node25&#45;&gt;Node27</title>
<path fill="none" stroke="midnightblue" d="M484.21,-97.79C462.28,-103.12 436.82,-109.3 416.21,-114.3"/>
<polygon fill="midnightblue" stroke="midnightblue" points="485.12,-101.17 494.01,-95.41 483.46,-94.37 485.12,-101.17"/>
</g>
<!-- Node26&#45;&gt;Node18 -->
<g id="edge35" class="edge">
<title>Node26&#45;&gt;Node18</title>
<path fill="none" stroke="midnightblue" d="M336.42,-96.93C329.52,-99.28 322.47,-101.94 316,-104.82 294.28,-114.49 270.81,-128.87 256.25,-138.3"/>
<polygon fill="midnightblue" stroke="midnightblue" points="337.9,-100.12 346.33,-93.7 335.74,-93.47 337.9,-100.12"/>
</g>
<!-- Node27&#45;&gt;Node18 -->
<g id="edge37" class="edge">
<title>Node27&#45;&gt;Node18</title>
<path fill="none" stroke="midnightblue" d="M313.03,-135.01C301.86,-137.02 290.52,-139.07 280.27,-140.92"/>
<polygon fill="midnightblue" stroke="midnightblue" points="313.98,-138.39 323.2,-133.17 312.74,-131.5 313.98,-138.39"/>
</g>
<!-- Node28&#45;&gt;Node4 -->
<g id="edge39" class="edge">
<title>Node28&#45;&gt;Node4</title>
<path fill="none" stroke="midnightblue" d="M1100.66,-199.82C1092.48,-199.82 1083.82,-199.82 1075.36,-199.82"/>
<polygon fill="midnightblue" stroke="midnightblue" points="1100.71,-203.32 1110.71,-199.82 1100.71,-196.32 1100.71,-203.32"/>
</g>
<!-- Node29&#45;&gt;Node4 -->
<g id="edge41" class="edge">
<title>Node29&#45;&gt;Node4</title>
<path fill="none" stroke="midnightblue" d="M1202.9,-166.91C1176.62,-170.38 1141.7,-175.33 1111,-180.82 1095.69,-183.56 1078.98,-187.02 1064.25,-190.24"/>
<polygon fill="midnightblue" stroke="midnightblue" points="1203.42,-170.37 1212.88,-165.6 1202.51,-163.43 1203.42,-170.37"/>
</g>
</g>
</svg>
        <g id="navigator" transform="translate(0 0)" fill="#404254">
                <rect fill="#f2f5e9" fill-opacity="0.5" stroke="#606060" stroke-width=".5" x="0" y="0" width="60" height="60"/>
                <use id="zoomplus" xlink:href="#zoomPlus" x="17" y="9" onmousedown="handleZoom(evt,'in')"/>
                <use id="zoomminus" xlink:href="#zoomMin" x="42" y="9" onmousedown="handleZoom(evt,'out')"/>
                <use id="reset" xlink:href="#resetDef" x="30" y="36" onmousedown="handleReset()"/>
                <g id="arrowUp" xlink:href="#dirArrow" transform="translate(30 24)" onmousedown="handlePan(0,-1)">
                  <use xlink:href="#rim" fill="#404040">
                        <set attributeName="fill" to="#808080" begin="arrowUp.mouseover" end="arrowUp.mouseout"/>
                  </use>
                  <path fill="none" stroke="white" stroke-width="1.5" d="M0,-3.0v7 M-2.5,-0.5L0,-3.0L2.5,-0.5"/>
                </g>
                <g id="arrowRight" xlink:href="#dirArrow" transform="rotate(90) translate(36 -43)" onmousedown="handlePan(1,0)">
                  <use xlink:href="#rim" fill="#404040">
                        <set attributeName="fill" to="#808080" begin="arrowRight.mouseover" end="arrowRight.mouseout"/>
                  </use>
                  <path fill="none" stroke="white" stroke-width="1.5" d="M0,-3.0v7 M-2.5,-0.5L0,-3.0L2.5,-0.5"/>
                </g>
                <g id="arrowDown" xlink:href="#dirArrow" transform="rotate(180) translate(-30 -48)" onmousedown="handlePan(0,1)">
                  <use xlink:href="#rim" fill="#404040">
                        <set attributeName="fill" to="#808080" begin="arrowDown.mouseover" end="arrowDown.mouseout"/>
                  </use>
                  <path fill="none" stroke="white" stroke-width="1.5" d="M0,-3.0v7 M-2.5,-0.5L0,-3.0L2.5,-0.5"/>
                </g>
                <g id="arrowLeft" xlink:href="#dirArrow" transform="rotate(270) translate(-36 17)" onmousedown="handlePan(-1,0)">
                  <use xlink:href="#rim" fill="#404040">
                        <set attributeName="fill" to="#808080" begin="arrowLeft.mouseover" end="arrowLeft.mouseout"/>
                  </use>
                  <path fill="none" stroke="white" stroke-width="1.5" d="M0,-3.0v7 M-2.5,-0.5L0,-3.0L2.5,-0.5"/>
                </g>
        </g>
        <svg viewBox="0 0 15 15" width="100%" height="30px" preserveAspectRatio="xMaxYMin meet">
         <g id="arrow_out" transform="scale(0.3 0.3)">
          <a xlink:href="ft__printf_8h_a7f88a9fc8bd1da879b09f8f3a12c3e3f_icgraph_org.svg" target="_base">
           <rect id="button" ry="5" rx="5" y="6" x="6" height="38" width="38"
                fill="#f2f5e9" fill-opacity="0.5" stroke="#606060" stroke-width="1.0"/>
           <path id="arrow"
             d="M 11.500037,31.436501 C 11.940474,20.09759 22.043105,11.32322 32.158766,21.979434 L 37.068811,17.246167 C 37.068811,17.246167 37.088388,32 37.088388,32 L 22.160133,31.978069 C 22.160133,31.978069 26.997745,27.140456 26.997745,27.140456 C 18.528582,18.264221 13.291696,25.230495 11.500037,31.436501 z"
             style="fill:#404040;"/>
          </a>
         </g>
        </svg>
</svg>
