<?xml version="1.0" encoding="UTF-8" standalone="no"?>
<!DOCTYPE svg PUBLIC "-//W3C//DTD SVG 1.1//EN"
 "http://www.w3.org/Graphics/SVG/1.1/DTD/svg11.dtd">
<!-- Generated by graphviz version 2.43.0 (0)
 -->
<!-- Title: mat4_apply_translation Pages: 1 -->
<!--zoomable 66 -->
<svg id="main" version="1.1" xmlns="http://www.w3.org/2000/svg" xmlns:xlink="http://www.w3.org/1999/xlink" xml:space="preserve" onload="init(evt)">
<style type="text/css"><![CDATA[
.edge:hover path { stroke: red; }
.edge:hover polygon { stroke: red; fill: red; }
]]></style>
<script type="text/javascript"><![CDATA[
var edges = document.getElementsByTagName('g');
if (edges && edges.length) {
  for (var i=0;i<edges.length;i++) {
    if (edges[i].id.substr(0,4)=='edge') {
      edges[i].setAttribute('class','edge');
    }
  }
}
]]></script>
        <defs>
                <circle id="rim" cx="0" cy="0" r="7"/>
                <circle id="rim2" cx="0" cy="0" r="3.5"/>
                <g id="zoomPlus">
                        <use xlink:href="#rim" fill="#404040">
                                <set attributeName="fill" to="#808080" begin="zoomplus.mouseover" end="zoomplus.mouseout"/>
                        </use>
                        <path d="M-4,0h8M0,-4v8" fill="none" stroke="white" stroke-width="1.5" pointer-events="none"/>
                </g>
                <g id="zoomMin">
                        <use xlink:href="#rim" fill="#404040">
                                <set attributeName="fill" to="#808080" begin="zoomminus.mouseover" end="zoomminus.mouseout"/>
                        </use>
                        <path d="M-4,0h8" fill="none" stroke="white" stroke-width="1.5" pointer-events="none"/>
                </g>
                <g id="dirArrow">
                        <path fill="none" stroke="white" stroke-width="1.5" d="M0,-3.0v7 M-2.5,-0.5L0,-3.0L2.5,-0.5"/>
                </g>
               <g id="resetDef">
                       <use xlink:href="#rim2" fill="#404040">
                               <set attributeName="fill" to="#808080" begin="reset.mouseover" end="reset.mouseout"/>
                       </use>
               </g>
        </defs>

<script type="text/javascript">
var viewWidth = 1327;
var viewHeight = 66;
var sectionId = 'dynsection-2';
</script>
<script xlink:href="svgpan.js"/>
<svg id="graph" class="graph">
<g id="viewport">
<title>mat4_apply_translation</title>
<!-- Node1 -->
<g id="node1" class="node">
<title>Node1</title>
<g id="a_node1"><a xlink:title="Apply (multiply) the vector in the matrix so that I keep translation for points like position.">
<polygon fill="#bfbfbf" stroke="black" points="1187,-19.5 1187,-38.5 1319,-38.5 1319,-19.5 1187,-19.5"/>
<text text-anchor="middle" x="1253" y="-26.5" font-family="Helvetica,sans-Serif" font-size="10.00">mat4_apply_translation</text>
</a>
</g>
</g>
<!-- Node2 -->
<g id="node2" class="node">
<title>Node2</title>
<g id="a_node2"><a xlink:href="camera_8c.html#a5ab04c162093782b2214199fe12ca1d3" target="_top" xlink:title="Generate ray (an origin and a direction) from the pixel coords and using the camera look at matrix (c...">
<polygon fill="none" stroke="black" points="1063,-38.5 1063,-57.5 1144,-57.5 1144,-38.5 1063,-38.5"/>
<text text-anchor="middle" x="1103.5" y="-45.5" font-family="Helvetica,sans-Serif" font-size="10.00">generate_ray</text>
</a>
</g>
</g>
<!-- Node1&#45;&gt;Node2 -->
<g id="edge1" class="edge">
<title>Node1&#45;&gt;Node2</title>
<path fill="none" stroke="midnightblue" d="M1176.63,-38.71C1165.45,-40.15 1154.33,-41.58 1144.28,-42.88"/>
<polygon fill="midnightblue" stroke="midnightblue" points="1177.4,-42.14 1186.87,-37.39 1176.51,-35.2 1177.4,-42.14"/>
</g>
<!-- Node13 -->
<g id="node13" class="node">
<title>Node13</title>
<g id="a_node13"><a xlink:href="object__transform_8c.html#aedc301b0fe128dd57dc1d88905812a45" target="_top" xlink:title="Apply translation to current element (move object)">
<polygon fill="none" stroke="black" points="1056,-0.5 1056,-19.5 1151,-19.5 1151,-0.5 1056,-0.5"/>
<text text-anchor="middle" x="1103.5" y="-7.5" font-family="Helvetica,sans-Serif" font-size="10.00">translate_object</text>
</a>
</g>
</g>
<!-- Node1&#45;&gt;Node13 -->
<g id="edge13" class="edge">
<title>Node1&#45;&gt;Node13</title>
<path fill="none" stroke="midnightblue" d="M1176.96,-19.33C1168.16,-18.2 1159.38,-17.07 1151.13,-16.01"/>
<polygon fill="midnightblue" stroke="midnightblue" points="1176.51,-22.8 1186.87,-20.61 1177.4,-15.86 1176.51,-22.8"/>
</g>
<!-- Node3 -->
<g id="node3" class="node">
<title>Node3</title>
<g id="a_node3"><a xlink:href="render__utils_8c.html#a2d32ca42d56eb4817e3a8a11880fc5eb" target="_top" xlink:title="Main render pipeline: Generate the pixel ray(s) with the help of the camera, then check for all primi...">
<polygon fill="none" stroke="black" points="940,-38.5 940,-57.5 1020,-57.5 1020,-38.5 940,-38.5"/>
<text text-anchor="middle" x="980" y="-45.5" font-family="Helvetica,sans-Serif" font-size="10.00">get_final_rgb</text>
</a>
</g>
</g>
<!-- Node2&#45;&gt;Node3 -->
<g id="edge2" class="edge">
<title>Node2&#45;&gt;Node3</title>
<path fill="none" stroke="midnightblue" d="M1052.52,-48C1041.69,-48 1030.38,-48 1020.04,-48"/>
<polygon fill="midnightblue" stroke="midnightblue" points="1052.72,-51.5 1062.72,-48 1052.72,-44.5 1052.72,-51.5"/>
</g>
<!-- Node4 -->
<g id="node4" class="node">
<title>Node4</title>
<g id="a_node4"><a xlink:href="render_8c.html#a8d502f25e96569571d0812dbd97b2b0a" target="_top" xlink:title="Loop for each pixel of the thread&#39;s attributed screen zone and call the function containing the main ...">
<polygon fill="none" stroke="black" points="814.5,-38.5 814.5,-57.5 871.5,-57.5 871.5,-38.5 814.5,-38.5"/>
<text text-anchor="middle" x="843" y="-45.5" font-family="Helvetica,sans-Serif" font-size="10.00">fill_zone</text>
</a>
</g>
</g>
<!-- Node3&#45;&gt;Node4 -->
<g id="edge3" class="edge">
<title>Node3&#45;&gt;Node4</title>
<path fill="none" stroke="midnightblue" d="M929.69,-48C910.19,-48 888.5,-48 871.82,-48"/>
<polygon fill="midnightblue" stroke="midnightblue" points="929.95,-51.5 939.95,-48 929.95,-44.5 929.95,-51.5"/>
</g>
<!-- Node5 -->
<g id="node5" class="node">
<title>Node5</title>
<g id="a_node5"><a xlink:href="render_8c.html#af2758997c21f106f775a924608795847" target="_top" xlink:title="Double loop to create threads then wait that all has finished their routine to join them.">
<polygon fill="none" stroke="black" points="625,-38.5 625,-57.5 746,-57.5 746,-38.5 625,-38.5"/>
<text text-anchor="middle" x="685.5" y="-45.5" font-family="Helvetica,sans-Serif" font-size="10.00">create_render_thread</text>
</a>
</g>
</g>
<!-- Node4&#45;&gt;Node5 -->
<g id="edge4" class="edge">
<title>Node4&#45;&gt;Node5</title>
<path fill="none" stroke="midnightblue" d="M803.91,-48C786.57,-48 765.64,-48 746.27,-48"/>
<polygon fill="midnightblue" stroke="midnightblue" points="804.2,-51.5 814.2,-48 804.2,-44.5 804.2,-51.5"/>
</g>
<!-- Node6 -->
<g id="node6" class="node">
<title>Node6</title>
<g id="a_node6"><a xlink:href="render_8c.html#a58819fe9e35a8bb7e462c16c041a375a" target="_top" xlink:title="Initialize camera, then call the function that will launch threads for multithreading.">
<polygon fill="none" stroke="black" points="541,-38.5 541,-57.5 589,-57.5 589,-38.5 541,-38.5"/>
<text text-anchor="middle" x="565" y="-45.5" font-family="Helvetica,sans-Serif" font-size="10.00">render</text>
</a>
</g>
</g>
<!-- Node5&#45;&gt;Node6 -->
<g id="edge5" class="edge">
<title>Node5&#45;&gt;Node6</title>
<path fill="none" stroke="midnightblue" d="M614.85,-48C605.66,-48 596.83,-48 589.25,-48"/>
<polygon fill="midnightblue" stroke="midnightblue" points="614.9,-51.5 624.9,-48 614.9,-44.5 614.9,-51.5"/>
</g>
<!-- Node7 -->
<g id="node7" class="node">
<title>Node7</title>
<g id="a_node7"><a xlink:href="mlx__handler_8c.html#a0752429176018321125b6506597cb5d4" target="_top" xlink:title="Main distribution input.">
<polygon fill="none" stroke="black" points="425,-0.5 425,-19.5 505,-19.5 505,-0.5 425,-0.5"/>
<text text-anchor="middle" x="465" y="-7.5" font-family="Helvetica,sans-Serif" font-size="10.00">handle_input</text>
</a>
</g>
</g>
<!-- Node6&#45;&gt;Node7 -->
<g id="edge6" class="edge">
<title>Node6&#45;&gt;Node7</title>
<path fill="none" stroke="midnightblue" d="M531.11,-35.25C517.93,-30.14 503.01,-24.35 490.77,-19.61"/>
<polygon fill="midnightblue" stroke="midnightblue" points="530.19,-38.64 540.78,-38.99 532.72,-32.12 530.19,-38.64"/>
</g>
<!-- Node12 -->
<g id="node12" class="node">
<title>Node12</title>
<g id="a_node12"><a xlink:href="render_8c.html#aa41d06a60a10afc0dd8036aaa31b53d7" target="_top" xlink:title="Init what is needed for render, render one time then launch mlx_loop that keep the window open and al...">
<polygon fill="none" stroke="black" points="313,-38.5 313,-57.5 389,-57.5 389,-38.5 313,-38.5"/>
<text text-anchor="middle" x="351" y="-45.5" font-family="Helvetica,sans-Serif" font-size="10.00">start_render</text>
</a>
</g>
</g>
<!-- Node6&#45;&gt;Node12 -->
<g id="edge11" class="edge">
<title>Node6&#45;&gt;Node12</title>
<path fill="none" stroke="midnightblue" d="M530.77,-48C492.36,-48 429.32,-48 389.28,-48"/>
<polygon fill="midnightblue" stroke="midnightblue" points="530.91,-51.5 540.91,-48 530.91,-44.5 530.91,-51.5"/>
</g>
<!-- Node8 -->
<g id="node8" class="node">
<title>Node8</title>
<g id="a_node8"><a xlink:href="mlx__handler_8c.html#af5049eb09e0b7560721db2d573c3f690" target="_top" xlink:title="Initialise mlx_data struct and interface, then call key hooks so that they wait for user inputs.">
<polygon fill="none" stroke="black" points="314,-0.5 314,-19.5 388,-19.5 388,-0.5 314,-0.5"/>
<text text-anchor="middle" x="351" y="-7.5" font-family="Helvetica,sans-Serif" font-size="10.00">init_handler</text>
</a>
</g>
</g>
<!-- Node7&#45;&gt;Node8 -->
<g id="edge7" class="edge">
<title>Node7&#45;&gt;Node8</title>
<path fill="none" stroke="midnightblue" d="M414.61,-10C405.78,-10 396.72,-10 388.33,-10"/>
<polygon fill="midnightblue" stroke="midnightblue" points="414.83,-13.5 424.83,-10 414.83,-6.5 414.83,-13.5"/>
</g>
<!-- Node9 -->
<g id="node9" class="node">
<title>Node9</title>
<g id="a_node9"><a xlink:href="sources_2init_2mlx_2mlx__init_8c.html#a2330f44f3bb980ce6a50923b2e03543d" target="_top" xlink:title=" ">
<polygon fill="none" stroke="black" points="202,-0.5 202,-19.5 277,-19.5 277,-0.5 202,-0.5"/>
<text text-anchor="middle" x="239.5" y="-7.5" font-family="Helvetica,sans-Serif" font-size="10.00">init_window</text>
</a>
</g>
</g>
<!-- Node8&#45;&gt;Node9 -->
<g id="edge8" class="edge">
<title>Node8&#45;&gt;Node9</title>
<path fill="none" stroke="midnightblue" d="M303.71,-10C294.92,-10 285.82,-10 277.37,-10"/>
<polygon fill="midnightblue" stroke="midnightblue" points="303.84,-13.5 313.84,-10 303.84,-6.5 303.84,-13.5"/>
</g>
<!-- Node10 -->
<g id="node10" class="node">
<title>Node10</title>
<g id="a_node10"><a xlink:href="sources_2init_2mlx_2mlx__init_8c.html#a2bdc7aa8aec9eaa59c7a71c03c55cbbf" target="_top" xlink:title=" ">
<polygon fill="none" stroke="black" points="77,-0.5 77,-19.5 166,-19.5 166,-0.5 77,-0.5"/>
<text text-anchor="middle" x="121.5" y="-7.5" font-family="Helvetica,sans-Serif" font-size="10.00">init_mlx_struct</text>
</a>
</g>
</g>
<!-- Node9&#45;&gt;Node10 -->
<g id="edge9" class="edge">
<title>Node9&#45;&gt;Node10</title>
<path fill="none" stroke="midnightblue" d="M191.75,-10C183.34,-10 174.6,-10 166.27,-10"/>
<polygon fill="midnightblue" stroke="midnightblue" points="191.8,-13.5 201.8,-10 191.8,-6.5 191.8,-13.5"/>
</g>
<!-- Node11 -->
<g id="node11" class="node">
<title>Node11</title>
<g id="a_node11"><a xlink:href="sources_2main_8c.html#a0c99d968a34e803d378692bde2e3f18f" target="_top" xlink:title=" ">
<polygon fill="none" stroke="black" points="0,-19.5 0,-38.5 41,-38.5 41,-19.5 0,-19.5"/>
<text text-anchor="middle" x="20.5" y="-26.5" font-family="Helvetica,sans-Serif" font-size="10.00">main</text>
</a>
</g>
</g>
<!-- Node10&#45;&gt;Node11 -->
<g id="edge10" class="edge">
<title>Node10&#45;&gt;Node11</title>
<path fill="none" stroke="midnightblue" d="M66.84,-20.3C57.68,-22.06 48.72,-23.78 41.21,-25.22"/>
<polygon fill="midnightblue" stroke="midnightblue" points="67.63,-23.71 76.79,-18.39 66.31,-16.84 67.63,-23.71"/>
</g>
<!-- Node12&#45;&gt;Node11 -->
<g id="edge12" class="edge">
<title>Node12&#45;&gt;Node11</title>
<path fill="none" stroke="midnightblue" d="M302.64,-45.26C229.41,-41.03 91.87,-33.07 41.03,-30.13"/>
<polygon fill="midnightblue" stroke="midnightblue" points="302.77,-48.77 312.96,-45.86 303.17,-41.79 302.77,-48.77"/>
</g>
<!-- Node14 -->
<g id="node14" class="node">
<title>Node14</title>
<g id="a_node14"><a xlink:href="object__transform_8c.html#a05c17766e7f978d57b526431fbbc4d15" target="_top" xlink:title="Distribute to the right transformation mode.">
<polygon fill="none" stroke="black" points="782,-0.5 782,-19.5 904,-19.5 904,-0.5 782,-0.5"/>
<text text-anchor="middle" x="843" y="-7.5" font-family="Helvetica,sans-Serif" font-size="10.00">apply_transformation</text>
</a>
</g>
</g>
<!-- Node13&#45;&gt;Node14 -->
<g id="edge14" class="edge">
<title>Node13&#45;&gt;Node14</title>
<path fill="none" stroke="midnightblue" d="M1045.95,-10C1004.04,-10 947.03,-10 904.27,-10"/>
<polygon fill="midnightblue" stroke="midnightblue" points="1045.99,-13.5 1055.99,-10 1045.99,-6.5 1045.99,-13.5"/>
</g>
<!-- Node14&#45;&gt;Node7 -->
<g id="edge15" class="edge">
<title>Node14&#45;&gt;Node7</title>
<path fill="none" stroke="midnightblue" d="M771.27,-10C692.55,-10 568.16,-10 505.24,-10"/>
<polygon fill="midnightblue" stroke="midnightblue" points="771.59,-13.5 781.59,-10 771.59,-6.5 771.59,-13.5"/>
</g>
</g>
</svg>
        <g id="navigator" transform="translate(0 0)" fill="#404254">
                <rect fill="#f2f5e9" fill-opacity="0.5" stroke="#606060" stroke-width=".5" x="0" y="0" width="60" height="60"/>
                <use id="zoomplus" xlink:href="#zoomPlus" x="17" y="9" onmousedown="handleZoom(evt,'in')"/>
                <use id="zoomminus" xlink:href="#zoomMin" x="42" y="9" onmousedown="handleZoom(evt,'out')"/>
                <use id="reset" xlink:href="#resetDef" x="30" y="36" onmousedown="handleReset()"/>
                <g id="arrowUp" xlink:href="#dirArrow" transform="translate(30 24)" onmousedown="handlePan(0,-1)">
                  <use xlink:href="#rim" fill="#404040">
                        <set attributeName="fill" to="#808080" begin="arrowUp.mouseover" end="arrowUp.mouseout"/>
                  </use>
                  <path fill="none" stroke="white" stroke-width="1.5" d="M0,-3.0v7 M-2.5,-0.5L0,-3.0L2.5,-0.5"/>
                </g>
                <g id="arrowRight" xlink:href="#dirArrow" transform="rotate(90) translate(36 -43)" onmousedown="handlePan(1,0)">
                  <use xlink:href="#rim" fill="#404040">
                        <set attributeName="fill" to="#808080" begin="arrowRight.mouseover" end="arrowRight.mouseout"/>
                  </use>
                  <path fill="none" stroke="white" stroke-width="1.5" d="M0,-3.0v7 M-2.5,-0.5L0,-3.0L2.5,-0.5"/>
                </g>
                <g id="arrowDown" xlink:href="#dirArrow" transform="rotate(180) translate(-30 -48)" onmousedown="handlePan(0,1)">
                  <use xlink:href="#rim" fill="#404040">
                        <set attributeName="fill" to="#808080" begin="arrowDown.mouseover" end="arrowDown.mouseout"/>
                  </use>
                  <path fill="none" stroke="white" stroke-width="1.5" d="M0,-3.0v7 M-2.5,-0.5L0,-3.0L2.5,-0.5"/>
                </g>
                <g id="arrowLeft" xlink:href="#dirArrow" transform="rotate(270) translate(-36 17)" onmousedown="handlePan(-1,0)">
                  <use xlink:href="#rim" fill="#404040">
                        <set attributeName="fill" to="#808080" begin="arrowLeft.mouseover" end="arrowLeft.mouseout"/>
                  </use>
                  <path fill="none" stroke="white" stroke-width="1.5" d="M0,-3.0v7 M-2.5,-0.5L0,-3.0L2.5,-0.5"/>
                </g>
        </g>
        <svg viewBox="0 0 15 15" width="100%" height="30px" preserveAspectRatio="xMaxYMin meet">
         <g id="arrow_out" transform="scale(0.3 0.3)">
          <a xlink:href="mat4__multiply_8c_a3d994b9350e1cea108e9407588c995e4_icgraph_org.svg" target="_base">
           <rect id="button" ry="5" rx="5" y="6" x="6" height="38" width="38"
                fill="#f2f5e9" fill-opacity="0.5" stroke="#606060" stroke-width="1.0"/>
           <path id="arrow"
             d="M 11.500037,31.436501 C 11.940474,20.09759 22.043105,11.32322 32.158766,21.979434 L 37.068811,17.246167 C 37.068811,17.246167 37.088388,32 37.088388,32 L 22.160133,31.978069 C 22.160133,31.978069 26.997745,27.140456 26.997745,27.140456 C 18.528582,18.264221 13.291696,25.230495 11.500037,31.436501 z"
             style="fill:#404040;"/>
          </a>
         </g>
        </svg>
</svg>
