<?xml version="1.0" encoding="UTF-8" standalone="no"?>
<!DOCTYPE svg PUBLIC "-//W3C//DTD SVG 1.1//EN"
 "http://www.w3.org/Graphics/SVG/1.1/DTD/svg11.dtd">
<!-- Generated by graphviz version 2.43.0 (0)
 -->
<!-- Title: check_cylin_line Pages: 1 -->
<!--zoomable 189 -->
<svg id="main" version="1.1" xmlns="http://www.w3.org/2000/svg" xmlns:xlink="http://www.w3.org/1999/xlink" xml:space="preserve" onload="init(evt)">
<style type="text/css"><![CDATA[
.edge:hover path { stroke: red; }
.edge:hover polygon { stroke: red; fill: red; }
]]></style>
<script type="text/javascript"><![CDATA[
var edges = document.getElementsByTagName('g');
if (edges && edges.length) {
  for (var i=0;i<edges.length;i++) {
    if (edges[i].id.substr(0,4)=='edge') {
      edges[i].setAttribute('class','edge');
    }
  }
}
]]></script>
        <defs>
                <circle id="rim" cx="0" cy="0" r="7"/>
                <circle id="rim2" cx="0" cy="0" r="3.5"/>
                <g id="zoomPlus">
                        <use xlink:href="#rim" fill="#404040">
                                <set attributeName="fill" to="#808080" begin="zoomplus.mouseover" end="zoomplus.mouseout"/>
                        </use>
                        <path d="M-4,0h8M0,-4v8" fill="none" stroke="white" stroke-width="1.5" pointer-events="none"/>
                </g>
                <g id="zoomMin">
                        <use xlink:href="#rim" fill="#404040">
                                <set attributeName="fill" to="#808080" begin="zoomminus.mouseover" end="zoomminus.mouseout"/>
                        </use>
                        <path d="M-4,0h8" fill="none" stroke="white" stroke-width="1.5" pointer-events="none"/>
                </g>
                <g id="dirArrow">
                        <path fill="none" stroke="white" stroke-width="1.5" d="M0,-3.0v7 M-2.5,-0.5L0,-3.0L2.5,-0.5"/>
                </g>
               <g id="resetDef">
                       <use xlink:href="#rim2" fill="#404040">
                               <set attributeName="fill" to="#808080" begin="reset.mouseover" end="reset.mouseout"/>
                       </use>
               </g>
        </defs>

<script type="text/javascript">
var viewWidth = 616;
var viewHeight = 189;
var sectionId = 'dynsection-12';
</script>
<script xlink:href="svgpan.js"/>
<svg id="graph" class="graph">
<g id="viewport">
<title>check_cylin_line</title>
<!-- Node1 -->
<g id="node1" class="node">
<title>Node1</title>
<g id="a_node1"><a xlink:title="parse the cylinder line data by data to check if everything seems to be in the right format">
<polygon fill="#bfbfbf" stroke="black" points="0,-123.01 0,-142.01 97,-142.01 97,-123.01 0,-123.01"/>
<text text-anchor="middle" x="48.5" y="-130.01" font-family="Helvetica,sans-Serif" font-size="10.00">check_cylin_line</text>
</a>
</g>
</g>
<!-- Node2 -->
<g id="node2" class="node">
<title>Node2</title>
<g id="a_node2"><a xlink:href="pars__by__id__utils_8c.html#a6c5774f7d1ec5f7c07ef6d73755acfe3" target="_top" xlink:title=" ">
<polygon fill="none" stroke="black" points="279,-161.01 279,-180.01 401,-180.01 401,-161.01 279,-161.01"/>
<text text-anchor="middle" x="340" y="-168.01" font-family="Helvetica,sans-Serif" font-size="10.00">check_n_pass_double</text>
</a>
</g>
</g>
<!-- Node1&#45;&gt;Node2 -->
<g id="edge1" class="edge">
<title>Node1&#45;&gt;Node2</title>
<path fill="none" stroke="midnightblue" d="M97.31,-138.78C144,-144.91 215.61,-154.31 268.77,-161.29"/>
<polygon fill="midnightblue" stroke="midnightblue" points="268.44,-164.78 278.81,-162.61 269.35,-157.83 268.44,-164.78"/>
</g>
<!-- Node6 -->
<g id="node6" class="node">
<title>Node6</title>
<g id="a_node6"><a xlink:href="pars__by__id__utils_8c.html#adb6f8132fd53f6936a75a9f6bd486a6b" target="_top" xlink:title=" ">
<polygon fill="none" stroke="black" points="133,-104.01 133,-123.01 243,-123.01 243,-104.01 133,-104.01"/>
<text text-anchor="middle" x="188" y="-111.01" font-family="Helvetica,sans-Serif" font-size="10.00">three_follow_value</text>
</a>
</g>
</g>
<!-- Node1&#45;&gt;Node6 -->
<g id="edge6" class="edge">
<title>Node1&#45;&gt;Node6</title>
<path fill="none" stroke="midnightblue" d="M97.2,-125.92C105.46,-124.78 114.15,-123.57 122.76,-122.38"/>
<polygon fill="midnightblue" stroke="midnightblue" points="123.36,-125.83 132.78,-121 122.4,-118.9 123.36,-125.83"/>
</g>
<!-- Node3 -->
<g id="node3" class="node">
<title>Node3</title>
<g id="a_node3"><a xlink:href="ft__isdouble_8c.html#a81ec5127ff70b1b5c18d3d04cab4e73b" target="_top" xlink:title=" ">
<polygon fill="none" stroke="black" points="437,-47.01 437,-66.01 507,-66.01 507,-47.01 437,-47.01"/>
<text text-anchor="middle" x="472" y="-54.01" font-family="Helvetica,sans-Serif" font-size="10.00">ft_isdouble</text>
</a>
</g>
</g>
<!-- Node2&#45;&gt;Node3 -->
<g id="edge2" class="edge">
<title>Node2&#45;&gt;Node3</title>
<path fill="none" stroke="midnightblue" d="M352.08,-160.79C374.34,-141.27 424.69,-97.12 452.2,-73"/>
<polygon fill="midnightblue" stroke="midnightblue" points="454.73,-75.43 459.94,-66.2 450.12,-70.16 454.73,-75.43"/>
</g>
<!-- Node5 -->
<g id="node5" class="node">
<title>Node5</title>
<g id="a_node5"><a xlink:href="ft__isspace_8c.html#a9829ac0b446ed5e51064e342a973c6cd" target="_top" xlink:title=" ">
<polygon fill="none" stroke="black" points="543,-104.01 543,-123.01 608,-123.01 608,-104.01 543,-104.01"/>
<text text-anchor="middle" x="575.5" y="-111.01" font-family="Helvetica,sans-Serif" font-size="10.00">ft_isspace</text>
</a>
</g>
</g>
<!-- Node2&#45;&gt;Node5 -->
<g id="edge5" class="edge">
<title>Node2&#45;&gt;Node5</title>
<path fill="none" stroke="midnightblue" d="M401.15,-166.35C433.12,-163.02 472.77,-157.06 507,-146.51 521.7,-141.97 537.18,-134.61 549.61,-127.99"/>
<polygon fill="midnightblue" stroke="midnightblue" points="551.37,-131.02 558.45,-123.13 548,-124.88 551.37,-131.02"/>
</g>
<!-- Node4 -->
<g id="node4" class="node">
<title>Node4</title>
<g id="a_node4"><a xlink:href="ft__isdigit_8c.html#a2cf15b8a1a277d1e2ce3654101a2003d" target="_top" xlink:title=" ">
<polygon fill="none" stroke="black" points="546,-9.01 546,-28.01 605,-28.01 605,-9.01 546,-9.01"/>
<text text-anchor="middle" x="575.5" y="-16.01" font-family="Helvetica,sans-Serif" font-size="10.00">ft_isdigit</text>
</a>
</g>
</g>
<!-- Node3&#45;&gt;Node4 -->
<g id="edge3" class="edge">
<title>Node3&#45;&gt;Node4</title>
<path fill="none" stroke="midnightblue" d="M498.61,-46.92C510.99,-42.28 526.05,-36.65 539.47,-31.62"/>
<polygon fill="midnightblue" stroke="midnightblue" points="540.76,-34.88 548.9,-28.09 538.3,-28.32 540.76,-34.88"/>
</g>
<!-- Node3&#45;&gt;Node5 -->
<g id="edge4" class="edge">
<title>Node3&#45;&gt;Node5</title>
<path fill="none" stroke="midnightblue" d="M490.22,-66.18C506.28,-75.2 530.46,-88.77 548.8,-99.08"/>
<polygon fill="midnightblue" stroke="midnightblue" points="547.1,-102.14 557.54,-103.98 550.53,-96.03 547.1,-102.14"/>
</g>
<!-- Node6&#45;&gt;Node5 -->
<g id="edge7" class="edge">
<title>Node6&#45;&gt;Node5</title>
<path fill="none" stroke="midnightblue" d="M243.03,-116.09C306.32,-118.71 414.3,-121.94 507,-118.51 515.35,-118.2 524.27,-117.68 532.79,-117.08"/>
<polygon fill="midnightblue" stroke="midnightblue" points="533.22,-120.56 542.93,-116.33 532.7,-113.58 533.22,-120.56"/>
</g>
<!-- Node7 -->
<g id="node7" class="node">
<title>Node7</title>
<g id="a_node7"><a xlink:href="pars__by__id__utils_8c.html#abea1fb599a76ff548d9490880767d112" target="_top" xlink:title=" ">
<polygon fill="none" stroke="black" points="295,-47.01 295,-66.01 385,-66.01 385,-47.01 295,-47.01"/>
<text text-anchor="middle" x="340" y="-54.01" font-family="Helvetica,sans-Serif" font-size="10.00">non_last_value</text>
</a>
</g>
</g>
<!-- Node6&#45;&gt;Node7 -->
<g id="edge8" class="edge">
<title>Node6&#45;&gt;Node7</title>
<path fill="none" stroke="midnightblue" d="M210.23,-103.88C228.33,-95.84 255.13,-84.3 279,-75.51 284.92,-73.33 291.22,-71.16 297.43,-69.12"/>
<polygon fill="midnightblue" stroke="midnightblue" points="298.61,-72.42 307.05,-66.02 296.46,-65.75 298.61,-72.42"/>
</g>
<!-- Node8 -->
<g id="node8" class="node">
<title>Node8</title>
<g id="a_node8"><a xlink:href="pars__by__id__utils_8c.html#a15f7d82d0fd11191ef82dd2cf3867781" target="_top" xlink:title=" ">
<polygon fill="none" stroke="black" points="304.5,-85.01 304.5,-104.01 375.5,-104.01 375.5,-85.01 304.5,-85.01"/>
<text text-anchor="middle" x="340" y="-92.01" font-family="Helvetica,sans-Serif" font-size="10.00">third_value</text>
</a>
</g>
</g>
<!-- Node6&#45;&gt;Node8 -->
<g id="edge11" class="edge">
<title>Node6&#45;&gt;Node8</title>
<path fill="none" stroke="midnightblue" d="M243.15,-106.65C259.81,-104.54 277.96,-102.24 293.94,-100.21"/>
<polygon fill="midnightblue" stroke="midnightblue" points="294.61,-103.66 304.09,-98.93 293.73,-96.71 294.61,-103.66"/>
</g>
<!-- Node7&#45;&gt;Node3 -->
<g id="edge10" class="edge">
<title>Node7&#45;&gt;Node3</title>
<path fill="none" stroke="midnightblue" d="M385.01,-56.51C398.51,-56.51 413.37,-56.51 426.87,-56.51"/>
<polygon fill="midnightblue" stroke="midnightblue" points="426.9,-60.01 436.9,-56.51 426.9,-53.01 426.9,-60.01"/>
</g>
<!-- Node7&#45;&gt;Node4 -->
<g id="edge9" class="edge">
<title>Node7&#45;&gt;Node4</title>
<path fill="none" stroke="midnightblue" d="M353.79,-46.85C371.41,-34.21 404.66,-12.7 437,-4.51 469.83,3.81 508.27,-1.3 536.14,-7.56"/>
<polygon fill="midnightblue" stroke="midnightblue" points="535.36,-10.97 545.9,-9.9 536.99,-4.16 535.36,-10.97"/>
</g>
<!-- Node8&#45;&gt;Node3 -->
<g id="edge13" class="edge">
<title>Node8&#45;&gt;Node3</title>
<path fill="none" stroke="midnightblue" d="M373.8,-84.92C390.28,-80.1 410.44,-74.21 428.13,-69.04"/>
<polygon fill="midnightblue" stroke="midnightblue" points="429.59,-72.26 438.21,-66.09 427.63,-65.54 429.59,-72.26"/>
</g>
<!-- Node8&#45;&gt;Node4 -->
<g id="edge12" class="edge">
<title>Node8&#45;&gt;Node4</title>
<path fill="none" stroke="midnightblue" d="M375.64,-86.8C384.3,-84.01 393.31,-80.32 401,-75.51 420.72,-63.16 416.31,-48.14 437,-37.51 467.64,-21.76 506.93,-17.67 535.66,-17.14"/>
<polygon fill="midnightblue" stroke="midnightblue" points="535.75,-20.64 545.73,-17.08 535.71,-13.64 535.75,-20.64"/>
</g>
<!-- Node8&#45;&gt;Node5 -->
<g id="edge14" class="edge">
<title>Node8&#45;&gt;Node5</title>
<path fill="none" stroke="midnightblue" d="M375.71,-97.33C417.66,-100.75 488.21,-106.49 533,-110.13"/>
<polygon fill="midnightblue" stroke="midnightblue" points="532.73,-113.62 542.98,-110.94 533.29,-106.64 532.73,-113.62"/>
</g>
</g>
</svg>
        <g id="navigator" transform="translate(0 0)" fill="#404254">
                <rect fill="#f2f5e9" fill-opacity="0.5" stroke="#606060" stroke-width=".5" x="0" y="0" width="60" height="60"/>
                <use id="zoomplus" xlink:href="#zoomPlus" x="17" y="9" onmousedown="handleZoom(evt,'in')"/>
                <use id="zoomminus" xlink:href="#zoomMin" x="42" y="9" onmousedown="handleZoom(evt,'out')"/>
                <use id="reset" xlink:href="#resetDef" x="30" y="36" onmousedown="handleReset()"/>
                <g id="arrowUp" xlink:href="#dirArrow" transform="translate(30 24)" onmousedown="handlePan(0,-1)">
                  <use xlink:href="#rim" fill="#404040">
                        <set attributeName="fill" to="#808080" begin="arrowUp.mouseover" end="arrowUp.mouseout"/>
                  </use>
                  <path fill="none" stroke="white" stroke-width="1.5" d="M0,-3.0v7 M-2.5,-0.5L0,-3.0L2.5,-0.5"/>
                </g>
                <g id="arrowRight" xlink:href="#dirArrow" transform="rotate(90) translate(36 -43)" onmousedown="handlePan(1,0)">
                  <use xlink:href="#rim" fill="#404040">
                        <set attributeName="fill" to="#808080" begin="arrowRight.mouseover" end="arrowRight.mouseout"/>
                  </use>
                  <path fill="none" stroke="white" stroke-width="1.5" d="M0,-3.0v7 M-2.5,-0.5L0,-3.0L2.5,-0.5"/>
                </g>
                <g id="arrowDown" xlink:href="#dirArrow" transform="rotate(180) translate(-30 -48)" onmousedown="handlePan(0,1)">
                  <use xlink:href="#rim" fill="#404040">
                        <set attributeName="fill" to="#808080" begin="arrowDown.mouseover" end="arrowDown.mouseout"/>
                  </use>
                  <path fill="none" stroke="white" stroke-width="1.5" d="M0,-3.0v7 M-2.5,-0.5L0,-3.0L2.5,-0.5"/>
                </g>
                <g id="arrowLeft" xlink:href="#dirArrow" transform="rotate(270) translate(-36 17)" onmousedown="handlePan(-1,0)">
                  <use xlink:href="#rim" fill="#404040">
                        <set attributeName="fill" to="#808080" begin="arrowLeft.mouseover" end="arrowLeft.mouseout"/>
                  </use>
                  <path fill="none" stroke="white" stroke-width="1.5" d="M0,-3.0v7 M-2.5,-0.5L0,-3.0L2.5,-0.5"/>
                </g>
        </g>
        <svg viewBox="0 0 15 15" width="100%" height="30px" preserveAspectRatio="xMaxYMin meet">
         <g id="arrow_out" transform="scale(0.3 0.3)">
          <a xlink:href="minirt_8h_a43cfc0fbfc0ff7163ba7a8b65d2e1ee8_cgraph_org.svg" target="_base">
           <rect id="button" ry="5" rx="5" y="6" x="6" height="38" width="38"
                fill="#f2f5e9" fill-opacity="0.5" stroke="#606060" stroke-width="1.0"/>
           <path id="arrow"
             d="M 11.500037,31.436501 C 11.940474,20.09759 22.043105,11.32322 32.158766,21.979434 L 37.068811,17.246167 C 37.068811,17.246167 37.088388,32 37.088388,32 L 22.160133,31.978069 C 22.160133,31.978069 26.997745,27.140456 26.997745,27.140456 C 18.528582,18.264221 13.291696,25.230495 11.500037,31.436501 z"
             style="fill:#404040;"/>
          </a>
         </g>
        </svg>
</svg>
