<?xml version="1.0" encoding="UTF-8" standalone="no"?>
<!DOCTYPE svg PUBLIC "-//W3C//DTD SVG 1.1//EN"
 "http://www.w3.org/Graphics/SVG/1.1/DTD/svg11.dtd">
<!-- Generated by graphviz version 2.43.0 (0)
 -->
<!-- Title: start_render Pages: 1 -->
<!--zoomable 386 -->
<svg id="main" version="1.1" xmlns="http://www.w3.org/2000/svg" xmlns:xlink="http://www.w3.org/1999/xlink" xml:space="preserve" onload="init(evt)">
<style type="text/css"><![CDATA[
.edge:hover path { stroke: red; }
.edge:hover polygon { stroke: red; fill: red; }
]]></style>
<script type="text/javascript"><![CDATA[
var edges = document.getElementsByTagName('g');
if (edges && edges.length) {
  for (var i=0;i<edges.length;i++) {
    if (edges[i].id.substr(0,4)=='edge') {
      edges[i].setAttribute('class','edge');
    }
  }
}
]]></script>
        <defs>
                <circle id="rim" cx="0" cy="0" r="7"/>
                <circle id="rim2" cx="0" cy="0" r="3.5"/>
                <g id="zoomPlus">
                        <use xlink:href="#rim" fill="#404040">
                                <set attributeName="fill" to="#808080" begin="zoomplus.mouseover" end="zoomplus.mouseout"/>
                        </use>
                        <path d="M-4,0h8M0,-4v8" fill="none" stroke="white" stroke-width="1.5" pointer-events="none"/>
                </g>
                <g id="zoomMin">
                        <use xlink:href="#rim" fill="#404040">
                                <set attributeName="fill" to="#808080" begin="zoomminus.mouseover" end="zoomminus.mouseout"/>
                        </use>
                        <path d="M-4,0h8" fill="none" stroke="white" stroke-width="1.5" pointer-events="none"/>
                </g>
                <g id="dirArrow">
                        <path fill="none" stroke="white" stroke-width="1.5" d="M0,-3.0v7 M-2.5,-0.5L0,-3.0L2.5,-0.5"/>
                </g>
               <g id="resetDef">
                       <use xlink:href="#rim2" fill="#404040">
                               <set attributeName="fill" to="#808080" begin="reset.mouseover" end="reset.mouseout"/>
                       </use>
               </g>
        </defs>

<script type="text/javascript">
var viewWidth = 1284;
var viewHeight = 386;
var sectionId = 'dynsection-84';
</script>
<script xlink:href="svgpan.js"/>
<svg id="graph" class="graph">
<g id="viewport">
<title>start_render</title>
<!-- Node1 -->
<g id="node1" class="node">
<title>Node1</title>
<g id="a_node1"><a xlink:title=" ">
<polygon fill="#bfbfbf" stroke="black" points="0,-209.5 0,-228.5 76,-228.5 76,-209.5 0,-209.5"/>
<text text-anchor="middle" x="38" y="-216.5" font-family="Helvetica,sans-Serif" font-size="10.00">start_render</text>
</a>
</g>
</g>
<!-- Node2 -->
<g id="node2" class="node">
<title>Node2</title>
<g id="a_node2"><a xlink:href="create__mlx__render_8c.html#a05d95c3d579a903650bd4aaae16a3f91" target="_top" xlink:title=" ">
<polygon fill="none" stroke="black" points="115,-247.5 115,-266.5 222,-266.5 222,-247.5 115,-247.5"/>
<text text-anchor="middle" x="168.5" y="-254.5" font-family="Helvetica,sans-Serif" font-size="10.00">create_mlx_image</text>
</a>
</g>
</g>
<!-- Node1&#45;&gt;Node2 -->
<g id="edge1" class="edge">
<title>Node1&#45;&gt;Node2</title>
<path fill="none" stroke="midnightblue" d="M71.43,-228.59C87.71,-233.4 107.64,-239.3 125.12,-244.47"/>
<polygon fill="midnightblue" stroke="midnightblue" points="124.5,-247.93 135.08,-247.41 126.49,-241.22 124.5,-247.93"/>
</g>
<!-- Node26 -->
<g id="node26" class="node">
<title>Node26</title>
<g id="a_node26"><a xlink:href="mlx_8h.html#a55a0bb5848159483529773b18b1f4b40" target="_top" xlink:title=" ">
<polygon fill="none" stroke="black" points="112,-209.5 112,-228.5 225,-228.5 225,-209.5 112,-209.5"/>
<text text-anchor="middle" x="168.5" y="-216.5" font-family="Helvetica,sans-Serif" font-size="10.00">mlx_destroy_image</text>
</a>
</g>
</g>
<!-- Node1&#45;&gt;Node26 -->
<g id="edge36" class="edge">
<title>Node1&#45;&gt;Node26</title>
<path fill="none" stroke="midnightblue" d="M76.17,-219C84.16,-219 92.83,-219 101.55,-219"/>
<polygon fill="midnightblue" stroke="midnightblue" points="101.77,-222.5 111.77,-219 101.77,-215.5 101.77,-222.5"/>
</g>
<!-- Node27 -->
<g id="node27" class="node">
<title>Node27</title>
<g id="a_node27"><a xlink:href="mlx_8h.html#a39851648cc307ca6a357c5068075c59b" target="_top" xlink:title=" ">
<polygon fill="none" stroke="black" points="137.5,-171.5 137.5,-190.5 199.5,-190.5 199.5,-171.5 137.5,-171.5"/>
<text text-anchor="middle" x="168.5" y="-178.5" font-family="Helvetica,sans-Serif" font-size="10.00">mlx_loop</text>
</a>
</g>
</g>
<!-- Node1&#45;&gt;Node27 -->
<g id="edge37" class="edge">
<title>Node1&#45;&gt;Node27</title>
<path fill="none" stroke="midnightblue" d="M71.43,-209.41C88.49,-204.37 109.56,-198.13 127.61,-192.79"/>
<polygon fill="midnightblue" stroke="midnightblue" points="128.69,-196.13 137.29,-189.93 126.71,-189.41 128.69,-196.13"/>
</g>
<!-- Node3 -->
<g id="node3" class="node">
<title>Node3</title>
<g id="a_node3"><a xlink:href="ft__dprintf_8h.html#aa9dce60b6115aff15d563fb64e7f834b" target="_top" xlink:title=" ">
<polygon fill="none" stroke="black" points="285.5,-285.5 285.5,-304.5 346.5,-304.5 346.5,-285.5 285.5,-285.5"/>
<text text-anchor="middle" x="316" y="-292.5" font-family="Helvetica,sans-Serif" font-size="10.00">ft_dprintf</text>
</a>
</g>
</g>
<!-- Node2&#45;&gt;Node3 -->
<g id="edge2" class="edge">
<title>Node2&#45;&gt;Node3</title>
<path fill="none" stroke="midnightblue" d="M206.22,-266.59C227.29,-272.09 253.77,-279.01 275.32,-284.64"/>
<polygon fill="midnightblue" stroke="midnightblue" points="274.59,-288.06 285.15,-287.2 276.36,-281.29 274.59,-288.06"/>
</g>
<!-- Node24 -->
<g id="node24" class="node">
<title>Node24</title>
<g id="a_node24"><a xlink:href="mlx_8h.html#a83b5ea0b3d727e765d6d4f14c214d275" target="_top" xlink:title=" ">
<polygon fill="none" stroke="black" points="261,-247.5 261,-266.5 371,-266.5 371,-247.5 261,-247.5"/>
<text text-anchor="middle" x="316" y="-254.5" font-family="Helvetica,sans-Serif" font-size="10.00">mlx_get_data_addr</text>
</a>
</g>
</g>
<!-- Node2&#45;&gt;Node24 -->
<g id="edge34" class="edge">
<title>Node2&#45;&gt;Node24</title>
<path fill="none" stroke="midnightblue" d="M222.03,-257C231.23,-257 240.91,-257 250.4,-257"/>
<polygon fill="midnightblue" stroke="midnightblue" points="250.59,-260.5 260.59,-257 250.59,-253.5 250.59,-260.5"/>
</g>
<!-- Node25 -->
<g id="node25" class="node">
<title>Node25</title>
<g id="a_node25"><a xlink:href="mlx_8h.html#a5bcdc7ca2a2e4792c254e9e7678fc190" target="_top" xlink:title=" ">
<polygon fill="none" stroke="black" points="267.5,-209.5 267.5,-228.5 364.5,-228.5 364.5,-209.5 267.5,-209.5"/>
<text text-anchor="middle" x="316" y="-216.5" font-family="Helvetica,sans-Serif" font-size="10.00">mlx_new_image</text>
</a>
</g>
</g>
<!-- Node2&#45;&gt;Node25 -->
<g id="edge35" class="edge">
<title>Node2&#45;&gt;Node25</title>
<path fill="none" stroke="midnightblue" d="M206.22,-247.41C225.16,-242.46 248.46,-236.38 268.63,-231.11"/>
<polygon fill="midnightblue" stroke="midnightblue" points="269.76,-234.43 278.55,-228.52 267.99,-227.66 269.76,-234.43"/>
</g>
<!-- Node4 -->
<g id="node4" class="node">
<title>Node4</title>
<g id="a_node4"><a xlink:href="ft__dprintf_8c.html#a9e09ed3b18150b2d3f3198d0cb42e4a1" target="_top" xlink:title=" ">
<polygon fill="none" stroke="black" points="407,-285.5 407,-304.5 479,-304.5 479,-285.5 407,-285.5"/>
<text text-anchor="middle" x="443" y="-292.5" font-family="Helvetica,sans-Serif" font-size="10.00">print_str_fd</text>
</a>
</g>
</g>
<!-- Node3&#45;&gt;Node4 -->
<g id="edge3" class="edge">
<title>Node3&#45;&gt;Node4</title>
<path fill="none" stroke="midnightblue" d="M346.62,-295C361.57,-295 380.02,-295 396.7,-295"/>
<polygon fill="midnightblue" stroke="midnightblue" points="396.81,-298.5 406.81,-295 396.81,-291.5 396.81,-298.5"/>
</g>
<!-- Node5 -->
<g id="node5" class="node">
<title>Node5</title>
<g id="a_node5"><a xlink:href="ft__putchar__fd_8c.html#ae54b488501b5183426fccd79db9f9f7f" target="_top" xlink:title=" ">
<polygon fill="none" stroke="black" points="884,-304.5 884,-323.5 964,-323.5 964,-304.5 884,-304.5"/>
<text text-anchor="middle" x="924" y="-311.5" font-family="Helvetica,sans-Serif" font-size="10.00">ft_putchar_fd</text>
</a>
</g>
</g>
<!-- Node4&#45;&gt;Node5 -->
<g id="edge4" class="edge">
<title>Node4&#45;&gt;Node5</title>
<path fill="none" stroke="midnightblue" d="M463.74,-304.6C500.76,-322.01 583.6,-358.18 658,-371 741.83,-385.44 766.83,-373.45 848,-348 864.51,-342.82 882.18,-334.94 896.22,-328.07"/>
<polygon fill="midnightblue" stroke="midnightblue" points="897.93,-331.12 905.3,-323.51 894.79,-324.87 897.93,-331.12"/>
</g>
<!-- Node6 -->
<g id="node6" class="node">
<title>Node6</title>
<g id="a_node6"><a xlink:href="ft__printf_8h.html#af29dc335f4bec333dd094f728dbed242" target="_top" xlink:title=" ">
<polygon fill="none" stroke="black" points="515,-190.5 515,-209.5 622,-209.5 622,-190.5 515,-190.5"/>
<text text-anchor="middle" x="568.5" y="-197.5" font-family="Helvetica,sans-Serif" font-size="10.00">handle_convertion</text>
</a>
</g>
</g>
<!-- Node4&#45;&gt;Node6 -->
<g id="edge5" class="edge">
<title>Node4&#45;&gt;Node6</title>
<path fill="none" stroke="midnightblue" d="M456.75,-285.19C478.12,-268.75 521.35,-235.5 547.03,-215.75"/>
<polygon fill="midnightblue" stroke="midnightblue" points="549.21,-218.49 555,-209.61 544.94,-212.94 549.21,-218.49"/>
</g>
<!-- Node6&#45;&gt;Node5 -->
<g id="edge6" class="edge">
<title>Node6&#45;&gt;Node5</title>
<path fill="none" stroke="midnightblue" d="M583.99,-209.51C614.76,-229.19 689.53,-274.27 759,-295 796.42,-306.17 840.47,-310.83 873.48,-312.75"/>
<polygon fill="midnightblue" stroke="midnightblue" points="873.63,-316.26 883.79,-313.28 873.99,-309.27 873.63,-316.26"/>
</g>
<!-- Node7 -->
<g id="node7" class="node">
<title>Node7</title>
<g id="a_node7"><a xlink:href="print__alpha_8c.html#a2ea448ba44b40c51e2f57cbf40e425b6" target="_top" xlink:title=" ">
<polygon fill="none" stroke="black" points="658,-342.5 658,-361.5 723,-361.5 723,-342.5 658,-342.5"/>
<text text-anchor="middle" x="690.5" y="-349.5" font-family="Helvetica,sans-Serif" font-size="10.00">print_char</text>
</a>
</g>
</g>
<!-- Node6&#45;&gt;Node7 -->
<g id="edge7" class="edge">
<title>Node6&#45;&gt;Node7</title>
<path fill="none" stroke="midnightblue" d="M574.81,-209.75C587.33,-232.22 620.5,-288.73 658,-328 660.67,-330.8 663.7,-333.53 666.78,-336.08"/>
<polygon fill="midnightblue" stroke="midnightblue" points="664.86,-339.02 674.91,-342.37 669.14,-333.48 664.86,-339.02"/>
</g>
<!-- Node8 -->
<g id="node8" class="node">
<title>Node8</title>
<g id="a_node8"><a xlink:href="print__numerals_8c.html#ad8a0a2e8f704f3e61fa57f371f831f68" target="_top" xlink:title=" ">
<polygon fill="none" stroke="black" points="770.5,-38.5 770.5,-57.5 836.5,-57.5 836.5,-38.5 770.5,-38.5"/>
<text text-anchor="middle" x="803.5" y="-45.5" font-family="Helvetica,sans-Serif" font-size="10.00">print_num</text>
</a>
</g>
</g>
<!-- Node6&#45;&gt;Node8 -->
<g id="edge9" class="edge">
<title>Node6&#45;&gt;Node8</title>
<path fill="none" stroke="midnightblue" d="M576.2,-190.32C589.67,-171.49 621.87,-129.63 658,-105 689.53,-83.51 730.36,-68.36 760.56,-59.11"/>
<polygon fill="midnightblue" stroke="midnightblue" points="761.78,-62.4 770.37,-56.2 759.79,-55.69 761.78,-62.4"/>
</g>
<!-- Node16 -->
<g id="node16" class="node">
<title>Node16</title>
<g id="a_node16"><a xlink:href="print__alpha_8c.html#a274ecc29567e3f09dfed8b445b495e6e" target="_top" xlink:title=" ">
<polygon fill="none" stroke="black" points="661.5,-209.5 661.5,-228.5 719.5,-228.5 719.5,-209.5 661.5,-209.5"/>
<text text-anchor="middle" x="690.5" y="-216.5" font-family="Helvetica,sans-Serif" font-size="10.00">print_ptr</text>
</a>
</g>
</g>
<!-- Node6&#45;&gt;Node16 -->
<g id="edge18" class="edge">
<title>Node6&#45;&gt;Node16</title>
<path fill="none" stroke="midnightblue" d="M622.13,-208.33C631.93,-209.88 641.98,-211.48 651.24,-212.94"/>
<polygon fill="midnightblue" stroke="midnightblue" points="650.87,-216.43 661.3,-214.53 651.97,-209.51 650.87,-216.43"/>
</g>
<!-- Node19 -->
<g id="node19" class="node">
<title>Node19</title>
<g id="a_node19"><a xlink:href="print__alpha_8c.html#a655acf7b940358263742a5cd25320c91" target="_top" xlink:title=" ">
<polygon fill="none" stroke="black" points="888,-228.5 888,-247.5 960,-247.5 960,-228.5 888,-228.5"/>
<text text-anchor="middle" x="924" y="-235.5" font-family="Helvetica,sans-Serif" font-size="10.00">print_string</text>
</a>
</g>
</g>
<!-- Node6&#45;&gt;Node19 -->
<g id="edge23" class="edge">
<title>Node6&#45;&gt;Node19</title>
<path fill="none" stroke="midnightblue" d="M622.15,-198.04C651.81,-197.43 689.52,-197.47 723,-200 779.03,-204.23 792.92,-207.86 848,-219 857.97,-221.02 868.61,-223.5 878.65,-226"/>
<polygon fill="midnightblue" stroke="midnightblue" points="877.88,-229.42 888.43,-228.5 879.61,-222.64 877.88,-229.42"/>
</g>
<!-- Node20 -->
<g id="node20" class="node">
<title>Node20</title>
<g id="a_node20"><a xlink:href="print__numerals_8c.html#a7f1bbbd7509918fa898e6d7d1253da17" target="_top" xlink:title=" ">
<polygon fill="none" stroke="black" points="659,-38.5 659,-57.5 722,-57.5 722,-38.5 659,-38.5"/>
<text text-anchor="middle" x="690.5" y="-45.5" font-family="Helvetica,sans-Serif" font-size="10.00">print_unit</text>
</a>
</g>
</g>
<!-- Node6&#45;&gt;Node20 -->
<g id="edge26" class="edge">
<title>Node6&#45;&gt;Node20</title>
<path fill="none" stroke="midnightblue" d="M574.81,-190.25C587.33,-167.78 620.5,-111.27 658,-72 660.67,-69.2 663.7,-66.47 666.78,-63.92"/>
<polygon fill="midnightblue" stroke="midnightblue" points="669.14,-66.52 674.91,-57.63 664.86,-60.98 669.14,-66.52"/>
</g>
<!-- Node22 -->
<g id="node22" class="node">
<title>Node22</title>
<g id="a_node22"><a xlink:href="print__numerals_8c.html#a22834cd20b2b265c651ddca592399e75" target="_top" xlink:title=" ">
<polygon fill="none" stroke="black" points="665.5,-114.5 665.5,-133.5 715.5,-133.5 715.5,-114.5 665.5,-114.5"/>
<text text-anchor="middle" x="690.5" y="-121.5" font-family="Helvetica,sans-Serif" font-size="10.00">print_x</text>
</a>
</g>
</g>
<!-- Node6&#45;&gt;Node22 -->
<g id="edge30" class="edge">
<title>Node6&#45;&gt;Node22</title>
<path fill="none" stroke="midnightblue" d="M584.7,-190.37C605.17,-177.41 641.79,-154.21 665.87,-138.96"/>
<polygon fill="midnightblue" stroke="midnightblue" points="667.85,-141.85 674.43,-133.55 664.1,-135.94 667.85,-141.85"/>
</g>
<!-- Node7&#45;&gt;Node5 -->
<g id="edge8" class="edge">
<title>Node7&#45;&gt;Node5</title>
<path fill="none" stroke="midnightblue" d="M723.02,-347.47C754.66,-342.86 804.78,-335.35 848,-328 856.35,-326.58 865.21,-325 873.81,-323.42"/>
<polygon fill="midnightblue" stroke="midnightblue" points="874.53,-326.84 883.73,-321.58 873.26,-319.96 874.53,-326.84"/>
</g>
<!-- Node9 -->
<g id="node9" class="node">
<title>Node9</title>
<g id="a_node9"><a xlink:href="ft__putnbr__fd_8c.html#aefeaea4471b82ac562928b55fec4da3c" target="_top" xlink:title=" ">
<polygon fill="none" stroke="black" points="886.5,-38.5 886.5,-57.5 961.5,-57.5 961.5,-38.5 886.5,-38.5"/>
<text text-anchor="middle" x="924" y="-45.5" font-family="Helvetica,sans-Serif" font-size="10.00">ft_putnbr_fd</text>
</a>
</g>
</g>
<!-- Node8&#45;&gt;Node9 -->
<g id="edge10" class="edge">
<title>Node8&#45;&gt;Node9</title>
<path fill="none" stroke="midnightblue" d="M836.57,-48C848.68,-48 862.73,-48 875.94,-48"/>
<polygon fill="midnightblue" stroke="midnightblue" points="876.3,-51.5 886.3,-48 876.3,-44.5 876.3,-51.5"/>
</g>
<!-- Node15 -->
<g id="node15" class="node">
<title>Node15</title>
<g id="a_node15"><a xlink:href="utils_8c.html#a7f88a9fc8bd1da879b09f8f3a12c3e3f" target="_top" xlink:title=" ">
<polygon fill="none" stroke="black" points="895.5,-76.5 895.5,-95.5 952.5,-95.5 952.5,-76.5 895.5,-76.5"/>
<text text-anchor="middle" x="924" y="-83.5" font-family="Helvetica,sans-Serif" font-size="10.00">get_size</text>
</a>
</g>
</g>
<!-- Node8&#45;&gt;Node15 -->
<g id="edge17" class="edge">
<title>Node8&#45;&gt;Node15</title>
<path fill="none" stroke="midnightblue" d="M834.4,-57.59C849.85,-62.54 868.85,-68.64 885.29,-73.91"/>
<polygon fill="midnightblue" stroke="midnightblue" points="884.55,-77.35 895.14,-77.07 886.69,-70.68 884.55,-77.35"/>
</g>
<!-- Node10 -->
<g id="node10" class="node">
<title>Node10</title>
<g id="a_node10"><a xlink:href="ft__itoa_8c.html#ae5e08fbfd5d8129c2bf3a6c42fc7734c" target="_top" xlink:title=" ">
<polygon fill="none" stroke="black" points="1012.5,-76.5 1012.5,-95.5 1059.5,-95.5 1059.5,-76.5 1012.5,-76.5"/>
<text text-anchor="middle" x="1036" y="-83.5" font-family="Helvetica,sans-Serif" font-size="10.00">ft_itoa</text>
</a>
</g>
</g>
<!-- Node9&#45;&gt;Node10 -->
<g id="edge11" class="edge">
<title>Node9&#45;&gt;Node10</title>
<path fill="none" stroke="midnightblue" d="M952.76,-57.59C967.9,-62.82 986.72,-69.32 1002.54,-74.79"/>
<polygon fill="midnightblue" stroke="midnightblue" points="1001.84,-78.25 1012.43,-78.2 1004.12,-71.63 1001.84,-78.25"/>
</g>
<!-- Node14 -->
<g id="node14" class="node">
<title>Node14</title>
<g id="a_node14"><a xlink:href="ft__putstr__fd_8c.html#a2c0d915a8579fdf1d3a383a358b23357" target="_top" xlink:title=" ">
<polygon fill="none" stroke="black" points="1000,-190.5 1000,-209.5 1072,-209.5 1072,-190.5 1000,-190.5"/>
<text text-anchor="middle" x="1036" y="-197.5" font-family="Helvetica,sans-Serif" font-size="10.00">ft_putstr_fd</text>
</a>
</g>
</g>
<!-- Node9&#45;&gt;Node14 -->
<g id="edge15" class="edge">
<title>Node9&#45;&gt;Node14</title>
<path fill="none" stroke="midnightblue" d="M950.43,-57.5C955.3,-60.09 960.1,-63.24 964,-67 997.94,-99.71 1019.27,-152.22 1028.93,-180.48"/>
<polygon fill="midnightblue" stroke="midnightblue" points="1025.72,-181.94 1032.16,-190.35 1032.37,-179.76 1025.72,-181.94"/>
</g>
<!-- Node11 -->
<g id="node11" class="node">
<title>Node11</title>
<g id="a_node11"><a xlink:href="ft__strdup_8c.html#ad10f516982133d7c72bfbf4ae150dbf0" target="_top" xlink:title=" ">
<polygon fill="none" stroke="black" points="1116.5,-76.5 1116.5,-95.5 1175.5,-95.5 1175.5,-76.5 1116.5,-76.5"/>
<text text-anchor="middle" x="1146" y="-83.5" font-family="Helvetica,sans-Serif" font-size="10.00">ft_strdup</text>
</a>
</g>
</g>
<!-- Node10&#45;&gt;Node11 -->
<g id="edge12" class="edge">
<title>Node10&#45;&gt;Node11</title>
<path fill="none" stroke="midnightblue" d="M1059.64,-86C1073.01,-86 1090.3,-86 1105.82,-86"/>
<polygon fill="midnightblue" stroke="midnightblue" points="1106.21,-89.5 1116.21,-86 1106.21,-82.5 1106.21,-89.5"/>
</g>
<!-- Node13 -->
<g id="node13" class="node">
<title>Node13</title>
<g id="a_node13"><a xlink:href="ft__itoa_8c.html#a1e8e028a284928bdb68527df9b0da5ad" target="_top" xlink:title=" ">
<polygon fill="none" stroke="black" points="1108,-114.5 1108,-133.5 1184,-133.5 1184,-114.5 1108,-114.5"/>
<text text-anchor="middle" x="1146" y="-121.5" font-family="Helvetica,sans-Serif" font-size="10.00">get_baselen</text>
</a>
</g>
</g>
<!-- Node10&#45;&gt;Node13 -->
<g id="edge14" class="edge">
<title>Node10&#45;&gt;Node13</title>
<path fill="none" stroke="midnightblue" d="M1059.64,-93.97C1073.68,-98.9 1092.04,-105.36 1108.13,-111.03"/>
<polygon fill="midnightblue" stroke="midnightblue" points="1107.21,-114.41 1117.8,-114.43 1109.53,-107.81 1107.21,-114.41"/>
</g>
<!-- Node12 -->
<g id="node12" class="node">
<title>Node12</title>
<g id="a_node12"><a xlink:href="ft__strlen_8c.html#abbb8c6c4ed85d892e7f1509f65f5768a" target="_top" xlink:title=" ">
<polygon fill="none" stroke="black" points="1220,-190.5 1220,-209.5 1276,-209.5 1276,-190.5 1220,-190.5"/>
<text text-anchor="middle" x="1248" y="-197.5" font-family="Helvetica,sans-Serif" font-size="10.00">ft_strlen</text>
</a>
</g>
</g>
<!-- Node11&#45;&gt;Node12 -->
<g id="edge13" class="edge">
<title>Node11&#45;&gt;Node12</title>
<path fill="none" stroke="midnightblue" d="M1170.09,-95.54C1174.99,-98.18 1179.91,-101.34 1184,-105 1208.59,-127 1227.87,-160.64 1238.33,-181.42"/>
<polygon fill="midnightblue" stroke="midnightblue" points="1235.22,-183.03 1242.74,-190.49 1241.51,-179.96 1235.22,-183.03"/>
</g>
<!-- Node14&#45;&gt;Node12 -->
<g id="edge16" class="edge">
<title>Node14&#45;&gt;Node12</title>
<path fill="none" stroke="midnightblue" d="M1072.15,-200C1110.14,-200 1170.47,-200 1209.4,-200"/>
<polygon fill="midnightblue" stroke="midnightblue" points="1209.77,-203.5 1219.77,-200 1209.77,-196.5 1209.77,-203.5"/>
</g>
<!-- Node16&#45;&gt;Node14 -->
<g id="edge19" class="edge">
<title>Node16&#45;&gt;Node14</title>
<path fill="none" stroke="midnightblue" d="M719.61,-217.45C779.02,-214.16 917.77,-206.48 989.81,-202.5"/>
<polygon fill="midnightblue" stroke="midnightblue" points="990.14,-205.99 999.93,-201.94 989.75,-199 990.14,-205.99"/>
</g>
<!-- Node17 -->
<g id="node17" class="node">
<title>Node17</title>
<g id="a_node17"><a xlink:href="utils_8c.html#a34f85bf1b5e1d7fefd8ca540d87b8fe3" target="_top" xlink:title=" ">
<polygon fill="none" stroke="black" points="765,-266.5 765,-285.5 842,-285.5 842,-266.5 765,-266.5"/>
<text text-anchor="middle" x="803.5" y="-273.5" font-family="Helvetica,sans-Serif" font-size="10.00">print_adress</text>
</a>
</g>
</g>
<!-- Node16&#45;&gt;Node17 -->
<g id="edge20" class="edge">
<title>Node16&#45;&gt;Node17</title>
<path fill="none" stroke="midnightblue" d="M707.35,-228.52C720.87,-236.5 740.95,-248 759,-257 762.55,-258.77 766.3,-260.54 770.06,-262.26"/>
<polygon fill="midnightblue" stroke="midnightblue" points="768.71,-265.49 779.27,-266.37 771.56,-259.1 768.71,-265.49"/>
</g>
<!-- Node18 -->
<g id="node18" class="node">
<title>Node18</title>
<g id="a_node18"><a xlink:href="utils_8c.html#a360d0d61647491d7b257e97bec3cacb8" target="_top" xlink:title=" ">
<polygon fill="none" stroke="black" points="776,-228.5 776,-247.5 831,-247.5 831,-228.5 776,-228.5"/>
<text text-anchor="middle" x="803.5" y="-235.5" font-family="Helvetica,sans-Serif" font-size="10.00">ptr_size</text>
</a>
</g>
</g>
<!-- Node16&#45;&gt;Node18 -->
<g id="edge22" class="edge">
<title>Node16&#45;&gt;Node18</title>
<path fill="none" stroke="midnightblue" d="M719.51,-223.79C733.49,-226.19 750.6,-229.12 765.63,-231.69"/>
<polygon fill="midnightblue" stroke="midnightblue" points="765.2,-235.17 775.65,-233.4 766.38,-228.27 765.2,-235.17"/>
</g>
<!-- Node17&#45;&gt;Node5 -->
<g id="edge21" class="edge">
<title>Node17&#45;&gt;Node5</title>
<path fill="none" stroke="midnightblue" d="M834.4,-285.59C849.28,-290.36 867.46,-296.19 883.47,-301.32"/>
<polygon fill="midnightblue" stroke="midnightblue" points="882.52,-304.69 893.11,-304.41 884.65,-298.03 882.52,-304.69"/>
</g>
<!-- Node19&#45;&gt;Node12 -->
<g id="edge25" class="edge">
<title>Node19&#45;&gt;Node12</title>
<path fill="none" stroke="midnightblue" d="M960.36,-236.14C1010.39,-233.19 1104.59,-226.45 1184,-214 1192.42,-212.68 1201.4,-210.91 1209.86,-209.07"/>
<polygon fill="midnightblue" stroke="midnightblue" points="1210.87,-212.43 1219.85,-206.82 1209.33,-205.6 1210.87,-212.43"/>
</g>
<!-- Node19&#45;&gt;Node14 -->
<g id="edge24" class="edge">
<title>Node19&#45;&gt;Node14</title>
<path fill="none" stroke="midnightblue" d="M952.76,-228.41C966.31,-223.73 982.81,-218.03 997.46,-212.97"/>
<polygon fill="midnightblue" stroke="midnightblue" points="998.94,-216.16 1007.25,-209.59 996.66,-209.54 998.94,-216.16"/>
</g>
<!-- Node20&#45;&gt;Node15 -->
<g id="edge27" class="edge">
<title>Node20&#45;&gt;Node15</title>
<path fill="none" stroke="midnightblue" d="M721.49,-57.55C733.11,-60.95 746.58,-64.55 759,-67 801.76,-75.44 851.57,-80.56 884.98,-83.32"/>
<polygon fill="midnightblue" stroke="midnightblue" points="884.98,-86.83 895.23,-84.14 885.54,-79.85 884.98,-86.83"/>
</g>
<!-- Node21 -->
<g id="node21" class="node">
<title>Node21</title>
<g id="a_node21"><a xlink:href="utils_8c.html#a9e33b5b3b6df9fac201aaba8b0e01f6e" target="_top" xlink:title=" ">
<polygon fill="none" stroke="black" points="759,-0.5 759,-19.5 848,-19.5 848,-0.5 759,-0.5"/>
<text text-anchor="middle" x="803.5" y="-7.5" font-family="Helvetica,sans-Serif" font-size="10.00">print_unsigned</text>
</a>
</g>
</g>
<!-- Node20&#45;&gt;Node21 -->
<g id="edge28" class="edge">
<title>Node20&#45;&gt;Node21</title>
<path fill="none" stroke="midnightblue" d="M719.51,-38.41C733.18,-33.73 749.83,-28.03 764.62,-22.97"/>
<polygon fill="midnightblue" stroke="midnightblue" points="766.17,-26.14 774.5,-19.59 763.9,-19.51 766.17,-26.14"/>
</g>
<!-- Node21&#45;&gt;Node9 -->
<g id="edge29" class="edge">
<title>Node21&#45;&gt;Node9</title>
<path fill="none" stroke="midnightblue" d="M834.4,-19.59C849.28,-24.36 867.46,-30.19 883.47,-35.32"/>
<polygon fill="midnightblue" stroke="midnightblue" points="882.52,-38.69 893.11,-38.41 884.65,-32.03 882.52,-38.69"/>
</g>
<!-- Node23 -->
<g id="node23" class="node">
<title>Node23</title>
<g id="a_node23"><a xlink:href="utils_8c.html#a22701b95daf4c95098e59dbcf0038d36" target="_top" xlink:title=" ">
<polygon fill="none" stroke="black" points="772.5,-114.5 772.5,-133.5 834.5,-133.5 834.5,-114.5 772.5,-114.5"/>
<text text-anchor="middle" x="803.5" y="-121.5" font-family="Helvetica,sans-Serif" font-size="10.00">print_hex</text>
</a>
</g>
</g>
<!-- Node22&#45;&gt;Node23 -->
<g id="edge31" class="edge">
<title>Node22&#45;&gt;Node23</title>
<path fill="none" stroke="midnightblue" d="M715.59,-124C729.06,-124 746.21,-124 761.71,-124"/>
<polygon fill="midnightblue" stroke="midnightblue" points="762.11,-127.5 772.11,-124 762.11,-120.5 762.11,-127.5"/>
</g>
<!-- Node23&#45;&gt;Node5 -->
<g id="edge32" class="edge">
<title>Node23&#45;&gt;Node5</title>
<path fill="none" stroke="midnightblue" d="M810.08,-133.8C822.79,-156 854.99,-211.69 884,-257 892.48,-270.25 902.52,-284.9 910.29,-296.03"/>
<polygon fill="midnightblue" stroke="midnightblue" points="907.58,-298.27 916.19,-304.44 913.31,-294.24 907.58,-298.27"/>
</g>
<!-- Node23&#45;&gt;Node15 -->
<g id="edge33" class="edge">
<title>Node23&#45;&gt;Node15</title>
<path fill="none" stroke="midnightblue" d="M834.4,-114.41C849.85,-109.46 868.85,-103.36 885.29,-98.09"/>
<polygon fill="midnightblue" stroke="midnightblue" points="886.69,-101.32 895.14,-94.93 884.55,-94.65 886.69,-101.32"/>
</g>
</g>
</svg>
        <g id="navigator" transform="translate(0 0)" fill="#404254">
                <rect fill="#f2f5e9" fill-opacity="0.5" stroke="#606060" stroke-width=".5" x="0" y="0" width="60" height="60"/>
                <use id="zoomplus" xlink:href="#zoomPlus" x="17" y="9" onmousedown="handleZoom(evt,'in')"/>
                <use id="zoomminus" xlink:href="#zoomMin" x="42" y="9" onmousedown="handleZoom(evt,'out')"/>
                <use id="reset" xlink:href="#resetDef" x="30" y="36" onmousedown="handleReset()"/>
                <g id="arrowUp" xlink:href="#dirArrow" transform="translate(30 24)" onmousedown="handlePan(0,-1)">
                  <use xlink:href="#rim" fill="#404040">
                        <set attributeName="fill" to="#808080" begin="arrowUp.mouseover" end="arrowUp.mouseout"/>
                  </use>
                  <path fill="none" stroke="white" stroke-width="1.5" d="M0,-3.0v7 M-2.5,-0.5L0,-3.0L2.5,-0.5"/>
                </g>
                <g id="arrowRight" xlink:href="#dirArrow" transform="rotate(90) translate(36 -43)" onmousedown="handlePan(1,0)">
                  <use xlink:href="#rim" fill="#404040">
                        <set attributeName="fill" to="#808080" begin="arrowRight.mouseover" end="arrowRight.mouseout"/>
                  </use>
                  <path fill="none" stroke="white" stroke-width="1.5" d="M0,-3.0v7 M-2.5,-0.5L0,-3.0L2.5,-0.5"/>
                </g>
                <g id="arrowDown" xlink:href="#dirArrow" transform="rotate(180) translate(-30 -48)" onmousedown="handlePan(0,1)">
                  <use xlink:href="#rim" fill="#404040">
                        <set attributeName="fill" to="#808080" begin="arrowDown.mouseover" end="arrowDown.mouseout"/>
                  </use>
                  <path fill="none" stroke="white" stroke-width="1.5" d="M0,-3.0v7 M-2.5,-0.5L0,-3.0L2.5,-0.5"/>
                </g>
                <g id="arrowLeft" xlink:href="#dirArrow" transform="rotate(270) translate(-36 17)" onmousedown="handlePan(-1,0)">
                  <use xlink:href="#rim" fill="#404040">
                        <set attributeName="fill" to="#808080" begin="arrowLeft.mouseover" end="arrowLeft.mouseout"/>
                  </use>
                  <path fill="none" stroke="white" stroke-width="1.5" d="M0,-3.0v7 M-2.5,-0.5L0,-3.0L2.5,-0.5"/>
                </g>
        </g>
        <svg viewBox="0 0 15 15" width="100%" height="30px" preserveAspectRatio="xMaxYMin meet">
         <g id="arrow_out" transform="scale(0.3 0.3)">
          <a xlink:href="minirt_8h_aa41d06a60a10afc0dd8036aaa31b53d7_cgraph_org.svg" target="_base">
           <rect id="button" ry="5" rx="5" y="6" x="6" height="38" width="38"
                fill="#f2f5e9" fill-opacity="0.5" stroke="#606060" stroke-width="1.0"/>
           <path id="arrow"
             d="M 11.500037,31.436501 C 11.940474,20.09759 22.043105,11.32322 32.158766,21.979434 L 37.068811,17.246167 C 37.068811,17.246167 37.088388,32 37.088388,32 L 22.160133,31.978069 C 22.160133,31.978069 26.997745,27.140456 26.997745,27.140456 C 18.528582,18.264221 13.291696,25.230495 11.500037,31.436501 z"
             style="fill:#404040;"/>
          </a>
         </g>
        </svg>
</svg>
