<?xml version="1.0" encoding="UTF-8" standalone="no"?>
<!DOCTYPE svg PUBLIC "-//W3C//DTD SVG 1.1//EN"
 "http://www.w3.org/Graphics/SVG/1.1/DTD/svg11.dtd">
<!-- Generated by graphviz version 2.43.0 (0)
 -->
<!-- Title: check_cam_line Pages: 1 -->
<!--zoomable 149 -->
<svg id="main" version="1.1" xmlns="http://www.w3.org/2000/svg" xmlns:xlink="http://www.w3.org/1999/xlink" xml:space="preserve" onload="init(evt)">
<style type="text/css"><![CDATA[
.edge:hover path { stroke: red; }
.edge:hover polygon { stroke: red; fill: red; }
]]></style>
<script type="text/javascript"><![CDATA[
var edges = document.getElementsByTagName('g');
if (edges && edges.length) {
  for (var i=0;i<edges.length;i++) {
    if (edges[i].id.substr(0,4)=='edge') {
      edges[i].setAttribute('class','edge');
    }
  }
}
]]></script>
        <defs>
                <circle id="rim" cx="0" cy="0" r="7"/>
                <circle id="rim2" cx="0" cy="0" r="3.5"/>
                <g id="zoomPlus">
                        <use xlink:href="#rim" fill="#404040">
                                <set attributeName="fill" to="#808080" begin="zoomplus.mouseover" end="zoomplus.mouseout"/>
                        </use>
                        <path d="M-4,0h8M0,-4v8" fill="none" stroke="white" stroke-width="1.5" pointer-events="none"/>
                </g>
                <g id="zoomMin">
                        <use xlink:href="#rim" fill="#404040">
                                <set attributeName="fill" to="#808080" begin="zoomminus.mouseover" end="zoomminus.mouseout"/>
                        </use>
                        <path d="M-4,0h8" fill="none" stroke="white" stroke-width="1.5" pointer-events="none"/>
                </g>
                <g id="dirArrow">
                        <path fill="none" stroke="white" stroke-width="1.5" d="M0,-3.0v7 M-2.5,-0.5L0,-3.0L2.5,-0.5"/>
                </g>
               <g id="resetDef">
                       <use xlink:href="#rim2" fill="#404040">
                               <set attributeName="fill" to="#808080" begin="reset.mouseover" end="reset.mouseout"/>
                       </use>
               </g>
        </defs>

<script type="text/javascript">
var viewWidth = 582;
var viewHeight = 149;
var sectionId = 'dynsection-5';
</script>
<script xlink:href="svgpan.js"/>
<svg id="graph" class="graph">
<g id="viewport">
<title>check_cam_line</title>
<!-- Node1 -->
<g id="node1" class="node">
<title>Node1</title>
<g id="a_node1"><a xlink:title="parse the camera line data by data to check if everything seems to be in the right format">
<polygon fill="#bfbfbf" stroke="black" points="0,-57.5 0,-76.5 95,-76.5 95,-57.5 0,-57.5"/>
<text text-anchor="middle" x="47.5" y="-64.5" font-family="Helvetica,sans-Serif" font-size="10.00">check_cam_line</text>
</a>
</g>
</g>
<!-- Node2 -->
<g id="node2" class="node">
<title>Node2</title>
<g id="a_node2"><a xlink:href="ft__isdigit_8c.html#a2cf15b8a1a277d1e2ce3654101a2003d" target="_top" xlink:title=" ">
<polygon fill="none" stroke="black" points="512,-114.5 512,-133.5 571,-133.5 571,-114.5 512,-114.5"/>
<text text-anchor="middle" x="541.5" y="-121.5" font-family="Helvetica,sans-Serif" font-size="10.00">ft_isdigit</text>
</a>
</g>
</g>
<!-- Node1&#45;&gt;Node2 -->
<g id="edge1" class="edge">
<title>Node1&#45;&gt;Node2</title>
<path fill="none" stroke="midnightblue" d="M81.14,-76.52C125.22,-89.07 206.42,-111.05 277,-124 332.47,-134.18 346.7,-135.66 403,-139 434.06,-140.84 442.07,-142.39 473,-139 482.46,-137.96 492.54,-136.13 501.95,-134.09"/>
<polygon fill="midnightblue" stroke="midnightblue" points="502.86,-137.47 511.83,-131.83 501.3,-130.65 502.86,-137.47"/>
</g>
<!-- Node3 -->
<g id="node3" class="node">
<title>Node3</title>
<g id="a_node3"><a xlink:href="ft__isspace_8c.html#a9829ac0b446ed5e51064e342a973c6cd" target="_top" xlink:title=" ">
<polygon fill="none" stroke="black" points="509,-0.5 509,-19.5 574,-19.5 574,-0.5 509,-0.5"/>
<text text-anchor="middle" x="541.5" y="-7.5" font-family="Helvetica,sans-Serif" font-size="10.00">ft_isspace</text>
</a>
</g>
</g>
<!-- Node1&#45;&gt;Node3 -->
<g id="edge2" class="edge">
<title>Node1&#45;&gt;Node3</title>
<path fill="none" stroke="midnightblue" d="M87.41,-57.45C101.14,-54.23 116.71,-50.77 131,-48 250.78,-24.8 281.21,-18.19 403,-11 434.98,-9.11 471.21,-8.93 498.45,-9.18"/>
<polygon fill="midnightblue" stroke="midnightblue" points="498.75,-12.69 508.79,-9.3 498.84,-5.69 498.75,-12.69"/>
</g>
<!-- Node4 -->
<g id="node4" class="node">
<title>Node4</title>
<g id="a_node4"><a xlink:href="pars__by__id__utils_8c.html#adb6f8132fd53f6936a75a9f6bd486a6b" target="_top" xlink:title=" ">
<polygon fill="none" stroke="black" points="131,-57.5 131,-76.5 241,-76.5 241,-57.5 131,-57.5"/>
<text text-anchor="middle" x="186" y="-64.5" font-family="Helvetica,sans-Serif" font-size="10.00">three_follow_value</text>
</a>
</g>
</g>
<!-- Node1&#45;&gt;Node4 -->
<g id="edge3" class="edge">
<title>Node1&#45;&gt;Node4</title>
<path fill="none" stroke="midnightblue" d="M95.09,-67C103.31,-67 111.99,-67 120.59,-67"/>
<polygon fill="midnightblue" stroke="midnightblue" points="120.62,-70.5 130.62,-67 120.62,-63.5 120.62,-70.5"/>
</g>
<!-- Node4&#45;&gt;Node3 -->
<g id="edge4" class="edge">
<title>Node4&#45;&gt;Node3</title>
<path fill="none" stroke="midnightblue" d="M231.37,-57.45C245.9,-54.37 262.13,-50.99 277,-48 332.89,-36.78 346.59,-32.23 403,-24 435,-19.33 471.42,-15.7 498.73,-13.3"/>
<polygon fill="midnightblue" stroke="midnightblue" points="499.06,-16.79 508.73,-12.45 498.47,-9.81 499.06,-16.79"/>
</g>
<!-- Node5 -->
<g id="node5" class="node">
<title>Node5</title>
<g id="a_node5"><a xlink:href="pars__by__id__utils_8c.html#abea1fb599a76ff548d9490880767d112" target="_top" xlink:title=" ">
<polygon fill="none" stroke="black" points="277,-95.5 277,-114.5 367,-114.5 367,-95.5 277,-95.5"/>
<text text-anchor="middle" x="322" y="-102.5" font-family="Helvetica,sans-Serif" font-size="10.00">non_last_value</text>
</a>
</g>
</g>
<!-- Node4&#45;&gt;Node5 -->
<g id="edge5" class="edge">
<title>Node4&#45;&gt;Node5</title>
<path fill="none" stroke="midnightblue" d="M220.81,-76.59C238.03,-81.47 259.16,-87.46 277.57,-92.68"/>
<polygon fill="midnightblue" stroke="midnightblue" points="276.62,-96.05 287.2,-95.41 278.53,-89.32 276.62,-96.05"/>
</g>
<!-- Node7 -->
<g id="node7" class="node">
<title>Node7</title>
<g id="a_node7"><a xlink:href="pars__by__id__utils_8c.html#a15f7d82d0fd11191ef82dd2cf3867781" target="_top" xlink:title=" ">
<polygon fill="none" stroke="black" points="286.5,-57.5 286.5,-76.5 357.5,-76.5 357.5,-57.5 286.5,-57.5"/>
<text text-anchor="middle" x="322" y="-64.5" font-family="Helvetica,sans-Serif" font-size="10.00">third_value</text>
</a>
</g>
</g>
<!-- Node4&#45;&gt;Node7 -->
<g id="edge10" class="edge">
<title>Node4&#45;&gt;Node7</title>
<path fill="none" stroke="midnightblue" d="M241.12,-67C252.8,-67 265.02,-67 276.29,-67"/>
<polygon fill="midnightblue" stroke="midnightblue" points="276.33,-70.5 286.33,-67 276.33,-63.5 276.33,-70.5"/>
</g>
<!-- Node5&#45;&gt;Node2 -->
<g id="edge6" class="edge">
<title>Node5&#45;&gt;Node2</title>
<path fill="none" stroke="midnightblue" d="M355.39,-114.51C369.82,-118.27 387.12,-122.14 403,-124 436.22,-127.89 474.26,-127.52 501.9,-126.39"/>
<polygon fill="midnightblue" stroke="midnightblue" points="502.12,-129.89 511.95,-125.93 501.8,-122.89 502.12,-129.89"/>
</g>
<!-- Node6 -->
<g id="node6" class="node">
<title>Node6</title>
<g id="a_node6"><a xlink:href="ft__isdouble_8c.html#a81ec5127ff70b1b5c18d3d04cab4e73b" target="_top" xlink:title=" ">
<polygon fill="none" stroke="black" points="403,-95.5 403,-114.5 473,-114.5 473,-95.5 403,-95.5"/>
<text text-anchor="middle" x="438" y="-102.5" font-family="Helvetica,sans-Serif" font-size="10.00">ft_isdouble</text>
</a>
</g>
</g>
<!-- Node5&#45;&gt;Node6 -->
<g id="edge7" class="edge">
<title>Node5&#45;&gt;Node6</title>
<path fill="none" stroke="midnightblue" d="M367.08,-105C375.54,-105 384.4,-105 392.87,-105"/>
<polygon fill="midnightblue" stroke="midnightblue" points="392.94,-108.5 402.94,-105 392.94,-101.5 392.94,-108.5"/>
</g>
<!-- Node6&#45;&gt;Node2 -->
<g id="edge8" class="edge">
<title>Node6&#45;&gt;Node2</title>
<path fill="none" stroke="midnightblue" d="M473.08,-111.38C482.3,-113.11 492.35,-114.99 501.8,-116.76"/>
<polygon fill="midnightblue" stroke="midnightblue" points="501.29,-120.22 511.76,-118.62 502.57,-113.34 501.29,-120.22"/>
</g>
<!-- Node6&#45;&gt;Node3 -->
<g id="edge9" class="edge">
<title>Node6&#45;&gt;Node3</title>
<path fill="none" stroke="midnightblue" d="M449.48,-95.19C466.82,-78.97 501.65,-46.36 522.84,-26.53"/>
<polygon fill="midnightblue" stroke="midnightblue" points="525.32,-29 530.23,-19.61 520.54,-23.89 525.32,-29"/>
</g>
<!-- Node7&#45;&gt;Node2 -->
<g id="edge11" class="edge">
<title>Node7&#45;&gt;Node2</title>
<path fill="none" stroke="midnightblue" d="M357.79,-67.63C388.74,-69.07 434.87,-73.39 473,-86 489.23,-91.37 505.99,-100.78 518.75,-108.89"/>
<polygon fill="midnightblue" stroke="midnightblue" points="516.99,-111.92 527.27,-114.49 520.83,-106.07 516.99,-111.92"/>
</g>
<!-- Node7&#45;&gt;Node3 -->
<g id="edge13" class="edge">
<title>Node7&#45;&gt;Node3</title>
<path fill="none" stroke="midnightblue" d="M357.95,-57.84C396.36,-47.78 458.03,-31.61 498.91,-20.9"/>
<polygon fill="midnightblue" stroke="midnightblue" points="500.04,-24.22 508.82,-18.3 498.26,-17.45 500.04,-24.22"/>
</g>
<!-- Node7&#45;&gt;Node6 -->
<g id="edge12" class="edge">
<title>Node7&#45;&gt;Node6</title>
<path fill="none" stroke="midnightblue" d="M351.77,-76.59C365.94,-81.31 383.24,-87.08 398.53,-92.18"/>
<polygon fill="midnightblue" stroke="midnightblue" points="397.65,-95.57 408.24,-95.41 399.86,-88.93 397.65,-95.57"/>
</g>
</g>
</svg>
        <g id="navigator" transform="translate(0 0)" fill="#404254">
                <rect fill="#f2f5e9" fill-opacity="0.5" stroke="#606060" stroke-width=".5" x="0" y="0" width="60" height="60"/>
                <use id="zoomplus" xlink:href="#zoomPlus" x="17" y="9" onmousedown="handleZoom(evt,'in')"/>
                <use id="zoomminus" xlink:href="#zoomMin" x="42" y="9" onmousedown="handleZoom(evt,'out')"/>
                <use id="reset" xlink:href="#resetDef" x="30" y="36" onmousedown="handleReset()"/>
                <g id="arrowUp" xlink:href="#dirArrow" transform="translate(30 24)" onmousedown="handlePan(0,-1)">
                  <use xlink:href="#rim" fill="#404040">
                        <set attributeName="fill" to="#808080" begin="arrowUp.mouseover" end="arrowUp.mouseout"/>
                  </use>
                  <path fill="none" stroke="white" stroke-width="1.5" d="M0,-3.0v7 M-2.5,-0.5L0,-3.0L2.5,-0.5"/>
                </g>
                <g id="arrowRight" xlink:href="#dirArrow" transform="rotate(90) translate(36 -43)" onmousedown="handlePan(1,0)">
                  <use xlink:href="#rim" fill="#404040">
                        <set attributeName="fill" to="#808080" begin="arrowRight.mouseover" end="arrowRight.mouseout"/>
                  </use>
                  <path fill="none" stroke="white" stroke-width="1.5" d="M0,-3.0v7 M-2.5,-0.5L0,-3.0L2.5,-0.5"/>
                </g>
                <g id="arrowDown" xlink:href="#dirArrow" transform="rotate(180) translate(-30 -48)" onmousedown="handlePan(0,1)">
                  <use xlink:href="#rim" fill="#404040">
                        <set attributeName="fill" to="#808080" begin="arrowDown.mouseover" end="arrowDown.mouseout"/>
                  </use>
                  <path fill="none" stroke="white" stroke-width="1.5" d="M0,-3.0v7 M-2.5,-0.5L0,-3.0L2.5,-0.5"/>
                </g>
                <g id="arrowLeft" xlink:href="#dirArrow" transform="rotate(270) translate(-36 17)" onmousedown="handlePan(-1,0)">
                  <use xlink:href="#rim" fill="#404040">
                        <set attributeName="fill" to="#808080" begin="arrowLeft.mouseover" end="arrowLeft.mouseout"/>
                  </use>
                  <path fill="none" stroke="white" stroke-width="1.5" d="M0,-3.0v7 M-2.5,-0.5L0,-3.0L2.5,-0.5"/>
                </g>
        </g>
        <svg viewBox="0 0 15 15" width="100%" height="30px" preserveAspectRatio="xMaxYMin meet">
         <g id="arrow_out" transform="scale(0.3 0.3)">
          <a xlink:href="pars__by__id_8c_aa9fb5025efa91f457dfb1dd8c7f45a87_cgraph_org.svg" target="_base">
           <rect id="button" ry="5" rx="5" y="6" x="6" height="38" width="38"
                fill="#f2f5e9" fill-opacity="0.5" stroke="#606060" stroke-width="1.0"/>
           <path id="arrow"
             d="M 11.500037,31.436501 C 11.940474,20.09759 22.043105,11.32322 32.158766,21.979434 L 37.068811,17.246167 C 37.068811,17.246167 37.088388,32 37.088388,32 L 22.160133,31.978069 C 22.160133,31.978069 26.997745,27.140456 26.997745,27.140456 C 18.528582,18.264221 13.291696,25.230495 11.500037,31.436501 z"
             style="fill:#404040;"/>
          </a>
         </g>
        </svg>
</svg>
