<?xml version="1.0" encoding="UTF-8" standalone="no"?>
<!DOCTYPE svg PUBLIC "-//W3C//DTD SVG 1.1//EN"
 "http://www.w3.org/Graphics/SVG/1.1/DTD/svg11.dtd">
<!-- Generated by graphviz version 2.43.0 (0)
 -->
<!-- Title: s_global Pages: 1 -->
<svg width="477pt" height="264pt"
 viewBox="0.00 0.00 477.00 264.00" xmlns="http://www.w3.org/2000/svg" xmlns:xlink="http://www.w3.org/1999/xlink">
<g id="graph0" class="graph" transform="scale(1 1) rotate(0) translate(4 260)">
<title>s_global</title>
<!-- Node1 -->
<g id="node1" class="node">
<title>Node1</title>
<g id="a_node1"><a xlink:title=" ">
<polygon fill="#bfbfbf" stroke="black" points="314,-0.5 314,-19.5 371,-19.5 371,-0.5 314,-0.5"/>
<text text-anchor="middle" x="342.5" y="-7.5" font-family="Helvetica,sans-Serif" font-size="10.00">s_global</text>
</a>
</g>
</g>
<!-- Node2 -->
<g id="node2" class="node">
<title>Node2</title>
<g id="a_node2"><a xlink:href="structs__scene.html" target="_top" xlink:title=" ">
<polygon fill="none" stroke="black" points="175.5,-67.5 175.5,-86.5 231.5,-86.5 231.5,-67.5 175.5,-67.5"/>
<text text-anchor="middle" x="203.5" y="-74.5" font-family="Helvetica,sans-Serif" font-size="10.00">s_scene</text>
</a>
</g>
</g>
<!-- Node2&#45;&gt;Node1 -->
<g id="edge1" class="edge">
<title>Node2&#45;&gt;Node1</title>
<path fill="none" stroke="#9a32cd" stroke-dasharray="5,2" d="M231.06,-63.11C258.59,-50.24 300.15,-30.81 323.97,-19.67"/>
<polygon fill="#9a32cd" stroke="#9a32cd" points="229.53,-59.96 221.96,-67.37 232.5,-66.3 229.53,-59.96"/>
<text text-anchor="middle" x="296.5" y="-41" font-family="Helvetica,sans-Serif" font-size="10.00"> scene</text>
</g>
<!-- Node3 -->
<g id="node3" class="node">
<title>Node3</title>
<g id="a_node3"><a xlink:href="structs__vec3.html" target="_top" xlink:title=" ">
<polygon fill="none" stroke="black" points="156.5,-236.5 156.5,-255.5 206.5,-255.5 206.5,-236.5 156.5,-236.5"/>
<text text-anchor="middle" x="181.5" y="-243.5" font-family="Helvetica,sans-Serif" font-size="10.00">s_vec3</text>
</a>
</g>
</g>
<!-- Node3&#45;&gt;Node2 -->
<g id="edge2" class="edge">
<title>Node3&#45;&gt;Node2</title>
<path fill="none" stroke="#9a32cd" stroke-dasharray="5,2" d="M162.46,-229.85C140.76,-210.62 110.05,-176.19 124.5,-145 137.2,-117.58 167.25,-97.3 186.41,-86.59"/>
<polygon fill="#9a32cd" stroke="#9a32cd" points="160.33,-232.63 170.22,-236.43 164.86,-227.3 160.33,-232.63"/>
<text text-anchor="middle" x="136" y="-153.5" font-family="Helvetica,sans-Serif" font-size="10.00"> tmp</text>
</g>
<!-- Node4 -->
<g id="node4" class="node">
<title>Node4</title>
<g id="a_node4"><a xlink:href="structt__obj.html" target="_top" xlink:title=" ">
<polygon fill="none" stroke="black" points="224,-146.5 224,-165.5 265,-165.5 265,-146.5 224,-146.5"/>
<text text-anchor="middle" x="244.5" y="-153.5" font-family="Helvetica,sans-Serif" font-size="10.00">t_obj</text>
</a>
</g>
</g>
<!-- Node3&#45;&gt;Node4 -->
<g id="edge4" class="edge">
<title>Node3&#45;&gt;Node4</title>
<path fill="none" stroke="#9a32cd" stroke-dasharray="5,2" d="M201.9,-229.91C206.04,-226.29 210.14,-222.24 213.5,-218 226.78,-201.24 236.71,-177.89 241.44,-165.51"/>
<polygon fill="#9a32cd" stroke="#9a32cd" points="199.64,-227.24 194.1,-236.26 204.06,-232.66 199.64,-227.24"/>
<text text-anchor="middle" x="244" y="-210" font-family="Helvetica,sans-Serif" font-size="10.00"> pos</text>
<text text-anchor="middle" x="244" y="-199" font-family="Helvetica,sans-Serif" font-size="10.00">rgb</text>
<text text-anchor="middle" x="244" y="-188" font-family="Helvetica,sans-Serif" font-size="10.00">v</text>
</g>
<!-- Node5 -->
<g id="node5" class="node">
<title>Node5</title>
<g id="a_node5"><a xlink:href="structs__amb.html" target="_top" xlink:title=" ">
<polygon fill="none" stroke="black" points="326,-146.5 326,-165.5 375,-165.5 375,-146.5 326,-146.5"/>
<text text-anchor="middle" x="350.5" y="-153.5" font-family="Helvetica,sans-Serif" font-size="10.00">s_amb</text>
</a>
</g>
</g>
<!-- Node3&#45;&gt;Node5 -->
<g id="edge7" class="edge">
<title>Node3&#45;&gt;Node5</title>
<path fill="none" stroke="#9a32cd" stroke-dasharray="5,2" d="M216.6,-234.73C230.01,-230.29 245.26,-224.58 258.5,-218 289.56,-202.56 322.69,-178.46 339.44,-165.66"/>
<polygon fill="#9a32cd" stroke="#9a32cd" points="215.22,-231.5 206.76,-237.88 217.35,-238.17 215.22,-231.5"/>
<text text-anchor="middle" x="321" y="-199" font-family="Helvetica,sans-Serif" font-size="10.00"> rgb</text>
</g>
<!-- Node6 -->
<g id="node6" class="node">
<title>Node6</title>
<g id="a_node6"><a xlink:href="structs__cam.html" target="_top" xlink:title=" ">
<polygon fill="none" stroke="black" points="31.5,-146.5 31.5,-165.5 79.5,-165.5 79.5,-146.5 31.5,-146.5"/>
<text text-anchor="middle" x="55.5" y="-153.5" font-family="Helvetica,sans-Serif" font-size="10.00">s_cam</text>
</a>
</g>
</g>
<!-- Node3&#45;&gt;Node6 -->
<g id="edge9" class="edge">
<title>Node3&#45;&gt;Node6</title>
<path fill="none" stroke="#9a32cd" stroke-dasharray="5,2" d="M146.08,-244.19C123.57,-241.85 95.24,-235.3 76.5,-218 61.52,-204.17 57.23,-179.17 56,-165.88"/>
<polygon fill="#9a32cd" stroke="#9a32cd" points="146.03,-247.69 156.28,-245 146.59,-240.72 146.03,-247.69"/>
<text text-anchor="middle" x="89" y="-204.5" font-family="Helvetica,sans-Serif" font-size="10.00"> look</text>
<text text-anchor="middle" x="89" y="-193.5" font-family="Helvetica,sans-Serif" font-size="10.00">pos</text>
</g>
<!-- Node8 -->
<g id="node8" class="node">
<title>Node8</title>
<g id="a_node8"><a xlink:href="structs__light.html" target="_top" xlink:title=" ">
<polygon fill="none" stroke="black" points="157,-146.5 157,-165.5 206,-165.5 206,-146.5 157,-146.5"/>
<text text-anchor="middle" x="181.5" y="-153.5" font-family="Helvetica,sans-Serif" font-size="10.00">s_light</text>
</a>
</g>
</g>
<!-- Node3&#45;&gt;Node8 -->
<g id="edge12" class="edge">
<title>Node3&#45;&gt;Node8</title>
<path fill="none" stroke="#9a32cd" stroke-dasharray="5,2" d="M181.5,-225.98C181.5,-207.31 181.5,-179.67 181.5,-165.72"/>
<polygon fill="#9a32cd" stroke="#9a32cd" points="178,-226.24 181.5,-236.24 185,-226.24 178,-226.24"/>
<text text-anchor="middle" x="195.5" y="-204.5" font-family="Helvetica,sans-Serif" font-size="10.00"> point</text>
<text text-anchor="middle" x="195.5" y="-193.5" font-family="Helvetica,sans-Serif" font-size="10.00">rgb</text>
</g>
<!-- Node4&#45;&gt;Node2 -->
<g id="edge3" class="edge">
<title>Node4&#45;&gt;Node2</title>
<path fill="none" stroke="#9a32cd" stroke-dasharray="5,2" d="M234.22,-137.31C232.29,-133.9 230.31,-130.35 228.5,-127 220.96,-113.05 212.69,-96.59 207.8,-86.74"/>
<polygon fill="#9a32cd" stroke="#9a32cd" points="231.33,-139.3 239.35,-146.23 237.4,-135.82 231.33,-139.3"/>
<text text-anchor="middle" x="245.5" y="-113.5" font-family="Helvetica,sans-Serif" font-size="10.00"> object</text>
</g>
<!-- Node4&#45;&gt;Node4 -->
<g id="edge5" class="edge">
<title>Node4&#45;&gt;Node4</title>
<path fill="none" stroke="#9a32cd" stroke-dasharray="5,2" d="M275.32,-162.8C279.9,-161.74 283,-159.48 283,-156 283,-150.3 274.65,-147.85 265.1,-148.65"/>
<polygon fill="#9a32cd" stroke="#9a32cd" points="274.89,-159.32 265.1,-163.35 275.27,-166.31 274.89,-159.32"/>
<text text-anchor="middle" x="295.5" y="-159" font-family="Helvetica,sans-Serif" font-size="10.00"> next</text>
<text text-anchor="middle" x="295.5" y="-148" font-family="Helvetica,sans-Serif" font-size="10.00">prev</text>
</g>
<!-- Node11 -->
<g id="node11" class="node">
<title>Node11</title>
<g id="a_node11"><a xlink:href="structs__interface.html" target="_top" xlink:title=" ">
<polygon fill="none" stroke="black" points="307,-67.5 307,-86.5 378,-86.5 378,-67.5 307,-67.5"/>
<text text-anchor="middle" x="342.5" y="-74.5" font-family="Helvetica,sans-Serif" font-size="10.00">s_interface</text>
</a>
</g>
</g>
<!-- Node4&#45;&gt;Node11 -->
<g id="edge16" class="edge">
<title>Node4&#45;&gt;Node11</title>
<path fill="none" stroke="#9a32cd" stroke-dasharray="5,2" d="M275.1,-150.18C290.95,-146.28 309.63,-139.33 322.5,-127 333.91,-116.07 339.02,-97.71 341.14,-86.83"/>
<polygon fill="#9a32cd" stroke="#9a32cd" points="274.22,-146.79 265.18,-152.32 275.7,-153.63 274.22,-146.79"/>
<text text-anchor="middle" x="364.5" y="-119" font-family="Helvetica,sans-Serif" font-size="10.00"> current_obj</text>
<text text-anchor="middle" x="364.5" y="-108" font-family="Helvetica,sans-Serif" font-size="10.00">first_obj</text>
</g>
<!-- Node5&#45;&gt;Node2 -->
<g id="edge6" class="edge">
<title>Node5&#45;&gt;Node2</title>
<path fill="none" stroke="#9a32cd" stroke-dasharray="5,2" d="M316.4,-142.87C302.17,-137.46 287.56,-131.35 281.5,-127 271,-119.47 272.83,-112.75 262.5,-105 252.23,-97.29 239.41,-91.09 228.34,-86.59"/>
<polygon fill="#9a32cd" stroke="#9a32cd" points="315.48,-146.26 326.08,-146.47 317.92,-139.7 315.48,-146.26"/>
<text text-anchor="middle" x="300" y="-113.5" font-family="Helvetica,sans-Serif" font-size="10.00"> a_light</text>
</g>
<!-- Node6&#45;&gt;Node2 -->
<g id="edge8" class="edge">
<title>Node6&#45;&gt;Node2</title>
<path fill="none" stroke="#9a32cd" stroke-dasharray="5,2" d="M52.77,-136.08C52.37,-125.64 53.88,-113.17 61.5,-105 76.61,-88.81 138.39,-82.11 175.3,-79.51"/>
<polygon fill="#9a32cd" stroke="#9a32cd" points="49.31,-136.7 53.76,-146.32 56.28,-136.03 49.31,-136.7"/>
<text text-anchor="middle" x="81.5" y="-113.5" font-family="Helvetica,sans-Serif" font-size="10.00"> camera</text>
</g>
<!-- Node7 -->
<g id="node7" class="node">
<title>Node7</title>
<g id="a_node7"><a xlink:href="structs__mat4.html" target="_top" xlink:title=" ">
<polygon fill="none" stroke="black" points="0,-236.5 0,-255.5 53,-255.5 53,-236.5 0,-236.5"/>
<text text-anchor="middle" x="26.5" y="-243.5" font-family="Helvetica,sans-Serif" font-size="10.00">s_mat4</text>
</a>
</g>
</g>
<!-- Node7&#45;&gt;Node6 -->
<g id="edge10" class="edge">
<title>Node7&#45;&gt;Node6</title>
<path fill="none" stroke="#9a32cd" stroke-dasharray="5,2" d="M23.32,-226.48C22.03,-214.23 21.96,-198.07 27.5,-185 30.77,-177.28 37.29,-170.56 43.21,-165.64"/>
<polygon fill="#9a32cd" stroke="#9a32cd" points="19.86,-227.02 24.71,-236.44 26.79,-226.05 19.86,-227.02"/>
<text text-anchor="middle" x="40.5" y="-199" font-family="Helvetica,sans-Serif" font-size="10.00"> trnsf</text>
</g>
<!-- Node8&#45;&gt;Node2 -->
<g id="edge11" class="edge">
<title>Node8&#45;&gt;Node2</title>
<path fill="none" stroke="#9a32cd" stroke-dasharray="5,2" d="M177.92,-136.12C176.9,-126.52 176.88,-114.84 180.5,-105 183.05,-98.07 188.27,-91.7 193.08,-86.89"/>
<polygon fill="#9a32cd" stroke="#9a32cd" points="174.49,-136.82 179.44,-146.19 181.41,-135.78 174.49,-136.82"/>
<text text-anchor="middle" x="193" y="-113.5" font-family="Helvetica,sans-Serif" font-size="10.00"> light</text>
</g>
<!-- Node9 -->
<g id="node9" class="node">
<title>Node9</title>
<g id="a_node9"><a xlink:href="structs__mlx__data.html" target="_top" xlink:title=" ">
<polygon fill="none" stroke="black" points="396,-67.5 396,-86.5 469,-86.5 469,-67.5 396,-67.5"/>
<text text-anchor="middle" x="432.5" y="-74.5" font-family="Helvetica,sans-Serif" font-size="10.00">s_mlx_data</text>
</a>
</g>
</g>
<!-- Node9&#45;&gt;Node1 -->
<g id="edge13" class="edge">
<title>Node9&#45;&gt;Node1</title>
<path fill="none" stroke="#9a32cd" stroke-dasharray="5,2" d="M417.77,-59.67C410.83,-52.51 402.18,-44.32 393.5,-38 383.62,-30.8 371.58,-24.33 361.67,-19.53"/>
<polygon fill="#9a32cd" stroke="#9a32cd" points="415.65,-62.52 425.04,-67.42 420.75,-57.73 415.65,-62.52"/>
<text text-anchor="middle" x="416.5" y="-41" font-family="Helvetica,sans-Serif" font-size="10.00"> mlx</text>
</g>
<!-- Node10 -->
<g id="node10" class="node">
<title>Node10</title>
<g id="a_node10"><a xlink:href="structs__mlx__img.html" target="_top" xlink:title=" ">
<polygon fill="none" stroke="black" points="397.5,-146.5 397.5,-165.5 467.5,-165.5 467.5,-146.5 397.5,-146.5"/>
<text text-anchor="middle" x="432.5" y="-153.5" font-family="Helvetica,sans-Serif" font-size="10.00">s_mlx_img</text>
</a>
</g>
</g>
<!-- Node10&#45;&gt;Node9 -->
<g id="edge14" class="edge">
<title>Node10&#45;&gt;Node9</title>
<path fill="none" stroke="#9a32cd" stroke-dasharray="5,2" d="M432.5,-136.31C432.5,-120.59 432.5,-98.81 432.5,-86.81"/>
<polygon fill="#9a32cd" stroke="#9a32cd" points="429,-136.47 432.5,-146.47 436,-136.47 429,-136.47"/>
<text text-anchor="middle" x="443.5" y="-113.5" font-family="Helvetica,sans-Serif" font-size="10.00"> img</text>
</g>
<!-- Node11&#45;&gt;Node1 -->
<g id="edge15" class="edge">
<title>Node11&#45;&gt;Node1</title>
<path fill="none" stroke="#9a32cd" stroke-dasharray="5,2" d="M342.5,-57.04C342.5,-44.67 342.5,-29.12 342.5,-19.63"/>
<polygon fill="#9a32cd" stroke="#9a32cd" points="339,-57.23 342.5,-67.23 346,-57.23 339,-57.23"/>
<text text-anchor="middle" x="366" y="-41" font-family="Helvetica,sans-Serif" font-size="10.00"> interface</text>
</g>
</g>
</svg>
