<?xml version="1.0" encoding="UTF-8" standalone="no"?>
<!DOCTYPE svg PUBLIC "-//W3C//DTD SVG 1.1//EN"
 "http://www.w3.org/Graphics/SVG/1.1/DTD/svg11.dtd">
<!-- Generated by graphviz version 2.43.0 (0)
 -->
<!-- Title: includes/vector.h Pages: 1 -->
<!--zoomable 151 -->
<svg id="main" version="1.1" xmlns="http://www.w3.org/2000/svg" xmlns:xlink="http://www.w3.org/1999/xlink" xml:space="preserve" onload="init(evt)">
<style type="text/css"><![CDATA[
.edge:hover path { stroke: red; }
.edge:hover polygon { stroke: red; fill: red; }
]]></style>
<script type="text/javascript"><![CDATA[
var edges = document.getElementsByTagName('g');
if (edges && edges.length) {
  for (var i=0;i<edges.length;i++) {
    if (edges[i].id.substr(0,4)=='edge') {
      edges[i].setAttribute('class','edge');
    }
  }
}
]]></script>
        <defs>
                <circle id="rim" cx="0" cy="0" r="7"/>
                <circle id="rim2" cx="0" cy="0" r="3.5"/>
                <g id="zoomPlus">
                        <use xlink:href="#rim" fill="#404040">
                                <set attributeName="fill" to="#808080" begin="zoomplus.mouseover" end="zoomplus.mouseout"/>
                        </use>
                        <path d="M-4,0h8M0,-4v8" fill="none" stroke="white" stroke-width="1.5" pointer-events="none"/>
                </g>
                <g id="zoomMin">
                        <use xlink:href="#rim" fill="#404040">
                                <set attributeName="fill" to="#808080" begin="zoomminus.mouseover" end="zoomminus.mouseout"/>
                        </use>
                        <path d="M-4,0h8" fill="none" stroke="white" stroke-width="1.5" pointer-events="none"/>
                </g>
                <g id="dirArrow">
                        <path fill="none" stroke="white" stroke-width="1.5" d="M0,-3.0v7 M-2.5,-0.5L0,-3.0L2.5,-0.5"/>
                </g>
               <g id="resetDef">
                       <use xlink:href="#rim2" fill="#404040">
                               <set attributeName="fill" to="#808080" begin="reset.mouseover" end="reset.mouseout"/>
                       </use>
               </g>
        </defs>

<script type="text/javascript">
var viewWidth = 3897;
var viewHeight = 151;
var sectionId = 'dynsection-0';
</script>
<script xlink:href="svgpan.js"/>
<svg id="graph" class="graph">
<g id="viewport">
<title>includes/vector.h</title>
<!-- Node1 -->
<g id="node1" class="node">
<title>Node1</title>
<g id="a_node1"><a xlink:title=" ">
<polygon fill="#bfbfbf" stroke="black" points="911,-123.5 911,-142.5 1010,-142.5 1010,-123.5 911,-123.5"/>
<text text-anchor="middle" x="960.5" y="-130.5" font-family="Helvetica,sans-Serif" font-size="10.00">includes/vector.h</text>
</a>
</g>
</g>
<!-- Node2 -->
<g id="node2" class="node">
<title>Node2</title>
<g id="a_node2"><a xlink:href="camera_8c.html" target="_top" xlink:title=" ">
<polygon fill="none" stroke="black" points="0,-6 0,-25 137,-25 137,-6 0,-6"/>
<text text-anchor="middle" x="68.5" y="-13" font-family="Helvetica,sans-Serif" font-size="10.00">sources/render/camera.c</text>
</a>
</g>
</g>
<!-- Node1&#45;&gt;Node2 -->
<g id="edge1" class="edge">
<title>Node1&#45;&gt;Node2</title>
<path fill="none" stroke="midnightblue" d="M900.6,-125.88C765.5,-111.79 426.96,-74.9 145.5,-31 134.34,-29.26 122.33,-27.12 111.18,-25.03"/>
<polygon fill="midnightblue" stroke="midnightblue" points="900.43,-129.38 910.73,-126.93 901.15,-122.42 900.43,-129.38"/>
</g>
<!-- Node3 -->
<g id="node3" class="node">
<title>Node3</title>
<g id="a_node3"><a xlink:href="minirt_8h.html" target="_top" xlink:title=" ">
<polygon fill="none" stroke="black" points="1804.5,-67.5 1804.5,-86.5 1902.5,-86.5 1902.5,-67.5 1804.5,-67.5"/>
<text text-anchor="middle" x="1853.5" y="-74.5" font-family="Helvetica,sans-Serif" font-size="10.00">includes/minirt.h</text>
</a>
</g>
</g>
<!-- Node1&#45;&gt;Node3 -->
<g id="edge2" class="edge">
<title>Node1&#45;&gt;Node3</title>
<path fill="none" stroke="midnightblue" d="M1020.14,-128.39C1186.22,-118.35 1651.86,-90.19 1804.42,-80.97"/>
<polygon fill="midnightblue" stroke="midnightblue" points="1019.87,-124.9 1010.1,-129 1020.3,-131.89 1019.87,-124.9"/>
</g>
<!-- Node3&#45;&gt;Node2 -->
<g id="edge23" class="edge">
<title>Node3&#45;&gt;Node2</title>
<path fill="none" stroke="midnightblue" d="M1794.33,-75.71C1532.35,-74.23 475.32,-66.17 145.5,-31 132.92,-29.66 119.32,-27.38 107.1,-25.02"/>
<polygon fill="midnightblue" stroke="midnightblue" points="1794.38,-79.21 1804.4,-75.77 1794.42,-72.21 1794.38,-79.21"/>
</g>
<!-- Node4 -->
<g id="node4" class="node">
<title>Node4</title>
<g id="a_node4"><a xlink:href="DEBUG_8c.html" target="_top" xlink:title=" ">
<polygon fill="none" stroke="black" points="155,-6 155,-25 256,-25 256,-6 155,-6"/>
<text text-anchor="middle" x="205.5" y="-13" font-family="Helvetica,sans-Serif" font-size="10.00">sources/DEBUG.c</text>
</a>
</g>
</g>
<!-- Node3&#45;&gt;Node4 -->
<g id="edge3" class="edge">
<title>Node3&#45;&gt;Node4</title>
<path fill="none" stroke="midnightblue" d="M1793.97,-76.01C1542.77,-75.77 568.48,-72.18 264.5,-31 254.78,-29.68 244.33,-27.41 234.98,-25.05"/>
<polygon fill="midnightblue" stroke="midnightblue" points="1794.34,-79.51 1804.34,-76.01 1794.34,-72.51 1794.34,-79.51"/>
</g>
<!-- Node5 -->
<g id="node5" class="node">
<title>Node5</title>
<g id="a_node5"><a xlink:href="manage__error_8c.html" target="_top" xlink:title=" ">
<polygon fill="none" stroke="black" points="274,-0.5 274,-30.5 397,-30.5 397,-0.5 274,-0.5"/>
<text text-anchor="start" x="282" y="-18.5" font-family="Helvetica,sans-Serif" font-size="10.00">sources/error/manage</text>
<text text-anchor="middle" x="335.5" y="-7.5" font-family="Helvetica,sans-Serif" font-size="10.00">_error.c</text>
</a>
</g>
</g>
<!-- Node3&#45;&gt;Node5 -->
<g id="edge4" class="edge">
<title>Node3&#45;&gt;Node5</title>
<path fill="none" stroke="midnightblue" d="M1794.28,-75.53C1557.86,-73.43 681.15,-63.58 405.5,-31 402.79,-30.68 400.03,-30.31 397.24,-29.89"/>
<polygon fill="midnightblue" stroke="midnightblue" points="1794.36,-79.03 1804.39,-75.62 1794.43,-72.03 1794.36,-79.03"/>
</g>
<!-- Node6 -->
<g id="node6" class="node">
<title>Node6</title>
<g id="a_node6"><a xlink:href="init_8c.html" target="_top" xlink:title=" ">
<polygon fill="none" stroke="black" points="415,-0.5 415,-30.5 538,-30.5 538,-0.5 415,-0.5"/>
<text text-anchor="start" x="423" y="-18.5" font-family="Helvetica,sans-Serif" font-size="10.00">sources/init/geometry</text>
<text text-anchor="middle" x="476.5" y="-7.5" font-family="Helvetica,sans-Serif" font-size="10.00">/init.c</text>
</a>
</g>
</g>
<!-- Node3&#45;&gt;Node6 -->
<g id="edge5" class="edge">
<title>Node3&#45;&gt;Node6</title>
<path fill="none" stroke="midnightblue" d="M1794.28,-75.3C1572.76,-72.46 793.09,-60.57 546.5,-31 543.79,-30.67 541.03,-30.3 538.24,-29.88"/>
<polygon fill="midnightblue" stroke="midnightblue" points="1794.36,-78.8 1804.4,-75.43 1794.45,-71.8 1794.36,-78.8"/>
</g>
<!-- Node7 -->
<g id="node7" class="node">
<title>Node7</title>
<g id="a_node7"><a xlink:href="init__by__id_8c.html" target="_top" xlink:title=" ">
<polygon fill="none" stroke="black" points="556,-0.5 556,-30.5 679,-30.5 679,-0.5 556,-0.5"/>
<text text-anchor="start" x="564" y="-18.5" font-family="Helvetica,sans-Serif" font-size="10.00">sources/init/geometry</text>
<text text-anchor="middle" x="617.5" y="-7.5" font-family="Helvetica,sans-Serif" font-size="10.00">/init_by_id.c</text>
</a>
</g>
</g>
<!-- Node3&#45;&gt;Node7 -->
<g id="edge6" class="edge">
<title>Node3&#45;&gt;Node7</title>
<path fill="none" stroke="midnightblue" d="M1794.25,-75.01C1588.43,-71.38 905.15,-57.56 687.5,-31 684.79,-30.67 682.03,-30.29 679.24,-29.87"/>
<polygon fill="midnightblue" stroke="midnightblue" points="1794.2,-78.51 1804.26,-75.19 1794.33,-71.51 1794.2,-78.51"/>
</g>
<!-- Node8 -->
<g id="node8" class="node">
<title>Node8</title>
<g id="a_node8"><a xlink:href="init__by__id__2_8c.html" target="_top" xlink:title=" ">
<polygon fill="none" stroke="black" points="697,-0.5 697,-30.5 820,-30.5 820,-0.5 697,-0.5"/>
<text text-anchor="start" x="705" y="-18.5" font-family="Helvetica,sans-Serif" font-size="10.00">sources/init/geometry</text>
<text text-anchor="middle" x="758.5" y="-7.5" font-family="Helvetica,sans-Serif" font-size="10.00">/init_by_id_2.c</text>
</a>
</g>
</g>
<!-- Node3&#45;&gt;Node8 -->
<g id="edge7" class="edge">
<title>Node3&#45;&gt;Node8</title>
<path fill="none" stroke="midnightblue" d="M1794.02,-76.71C1636.08,-77.88 1193.29,-76.49 828.5,-31 825.79,-30.66 823.03,-30.28 820.25,-29.85"/>
<polygon fill="midnightblue" stroke="midnightblue" points="1794.48,-80.21 1804.45,-76.63 1794.43,-73.21 1794.48,-80.21"/>
</g>
<!-- Node9 -->
<g id="node9" class="node">
<title>Node9</title>
<g id="a_node9"><a xlink:href="init__by__id__utils_8c.html" target="_top" xlink:title=" ">
<polygon fill="none" stroke="black" points="838,-0.5 838,-30.5 961,-30.5 961,-0.5 838,-0.5"/>
<text text-anchor="start" x="846" y="-18.5" font-family="Helvetica,sans-Serif" font-size="10.00">sources/init/geometry</text>
<text text-anchor="middle" x="899.5" y="-7.5" font-family="Helvetica,sans-Serif" font-size="10.00">/init_by_id_utils.c</text>
</a>
</g>
</g>
<!-- Node3&#45;&gt;Node9 -->
<g id="edge8" class="edge">
<title>Node3&#45;&gt;Node9</title>
<path fill="none" stroke="midnightblue" d="M1794.11,-76.11C1651.39,-75.7 1278.05,-70.57 969.5,-31 966.79,-30.65 964.03,-30.26 961.25,-29.83"/>
<polygon fill="midnightblue" stroke="midnightblue" points="1794.38,-79.61 1804.39,-76.13 1794.4,-72.61 1794.38,-79.61"/>
</g>
<!-- Node10 -->
<g id="node10" class="node">
<title>Node10</title>
<g id="a_node10"><a xlink:href="init__by__id__utils__2_8c.html" target="_top" xlink:title=" ">
<polygon fill="none" stroke="black" points="979,-0.5 979,-30.5 1102,-30.5 1102,-0.5 979,-0.5"/>
<text text-anchor="start" x="987" y="-18.5" font-family="Helvetica,sans-Serif" font-size="10.00">sources/init/geometry</text>
<text text-anchor="middle" x="1040.5" y="-7.5" font-family="Helvetica,sans-Serif" font-size="10.00">/init_by_id_utils_2.c</text>
</a>
</g>
</g>
<!-- Node3&#45;&gt;Node10 -->
<g id="edge9" class="edge">
<title>Node3&#45;&gt;Node10</title>
<path fill="none" stroke="midnightblue" d="M1793.9,-75.29C1667.44,-73.15 1363.12,-64.64 1110.5,-31 1107.79,-30.64 1105.04,-30.23 1102.25,-29.79"/>
<polygon fill="midnightblue" stroke="midnightblue" points="1794.09,-78.8 1804.14,-75.46 1794.2,-71.8 1794.09,-78.8"/>
</g>
<!-- Node11 -->
<g id="node11" class="node">
<title>Node11</title>
<g id="a_node11"><a xlink:href="init__utils_8c.html" target="_top" xlink:title=" ">
<polygon fill="none" stroke="black" points="1120,-0.5 1120,-30.5 1243,-30.5 1243,-0.5 1120,-0.5"/>
<text text-anchor="start" x="1128" y="-18.5" font-family="Helvetica,sans-Serif" font-size="10.00">sources/init/geometry</text>
<text text-anchor="middle" x="1181.5" y="-7.5" font-family="Helvetica,sans-Serif" font-size="10.00">/init_utils.c</text>
</a>
</g>
</g>
<!-- Node3&#45;&gt;Node11 -->
<g id="edge10" class="edge">
<title>Node3&#45;&gt;Node11</title>
<path fill="none" stroke="midnightblue" d="M1794.13,-74.05C1685.98,-69.94 1449.78,-58.42 1252.5,-31 1249.51,-30.58 1246.46,-30.12 1243.38,-29.62"/>
<polygon fill="midnightblue" stroke="midnightblue" points="1794.07,-77.55 1804.2,-74.42 1794.33,-70.55 1794.07,-77.55"/>
</g>
<!-- Node12 -->
<g id="node12" class="node">
<title>Node12</title>
<g id="a_node12"><a xlink:href="mlx__handler_8c.html" target="_top" xlink:title=" ">
<polygon fill="none" stroke="black" points="1261.5,-0.5 1261.5,-30.5 1377.5,-30.5 1377.5,-0.5 1261.5,-0.5"/>
<text text-anchor="start" x="1269.5" y="-18.5" font-family="Helvetica,sans-Serif" font-size="10.00">sources/init/mlx/mlx</text>
<text text-anchor="middle" x="1319.5" y="-7.5" font-family="Helvetica,sans-Serif" font-size="10.00">_handler.c</text>
</a>
</g>
</g>
<!-- Node3&#45;&gt;Node12 -->
<g id="edge11" class="edge">
<title>Node3&#45;&gt;Node12</title>
<path fill="none" stroke="midnightblue" d="M1794.01,-72.51C1705,-66.77 1532.04,-53.68 1386.5,-31 1383.56,-30.54 1380.56,-30.03 1377.53,-29.49"/>
<polygon fill="midnightblue" stroke="midnightblue" points="1793.98,-76.01 1804.18,-73.15 1794.42,-69.03 1793.98,-76.01"/>
</g>
<!-- Node13 -->
<g id="node13" class="node">
<title>Node13</title>
<g id="a_node13"><a xlink:href="sources_2init_2mlx_2mlx__init_8c.html" target="_top" xlink:title=" ">
<polygon fill="none" stroke="black" points="1395.5,-0.5 1395.5,-30.5 1511.5,-30.5 1511.5,-0.5 1395.5,-0.5"/>
<text text-anchor="start" x="1403.5" y="-18.5" font-family="Helvetica,sans-Serif" font-size="10.00">sources/init/mlx/mlx</text>
<text text-anchor="middle" x="1453.5" y="-7.5" font-family="Helvetica,sans-Serif" font-size="10.00">_init.c</text>
</a>
</g>
</g>
<!-- Node3&#45;&gt;Node13 -->
<g id="edge12" class="edge">
<title>Node3&#45;&gt;Node13</title>
<path fill="none" stroke="midnightblue" d="M1793.9,-69.38C1727.1,-61.63 1615.68,-47.7 1520.5,-31 1517.57,-30.49 1514.57,-29.93 1511.55,-29.36"/>
<polygon fill="midnightblue" stroke="midnightblue" points="1793.89,-72.9 1804.23,-70.57 1794.69,-65.95 1793.89,-72.9"/>
</g>
<!-- Node14 -->
<g id="node14" class="node">
<title>Node14</title>
<g id="a_node14"><a xlink:href="obj__list_8c.html" target="_top" xlink:title=" ">
<polygon fill="none" stroke="black" points="1530,-6 1530,-25 1649,-25 1649,-6 1530,-6"/>
<text text-anchor="middle" x="1589.5" y="-13" font-family="Helvetica,sans-Serif" font-size="10.00">sources/list/obj_list.c</text>
</a>
</g>
</g>
<!-- Node3&#45;&gt;Node14 -->
<g id="edge13" class="edge">
<title>Node3&#45;&gt;Node14</title>
<path fill="none" stroke="midnightblue" d="M1805.84,-65.26C1754.63,-53.72 1674.27,-35.61 1627.25,-25.01"/>
<polygon fill="midnightblue" stroke="midnightblue" points="1805.15,-68.69 1815.68,-67.48 1806.69,-61.86 1805.15,-68.69"/>
</g>
<!-- Node15 -->
<g id="node15" class="node">
<title>Node15</title>
<g id="a_node15"><a xlink:href="sources_2main_8c.html" target="_top" xlink:title=" ">
<polygon fill="none" stroke="black" points="1667.5,-6 1667.5,-25 1757.5,-25 1757.5,-6 1667.5,-6"/>
<text text-anchor="middle" x="1712.5" y="-13" font-family="Helvetica,sans-Serif" font-size="10.00">sources/main.c</text>
</a>
</g>
</g>
<!-- Node3&#45;&gt;Node15 -->
<g id="edge14" class="edge">
<title>Node3&#45;&gt;Node15</title>
<path fill="none" stroke="midnightblue" d="M1823.83,-63.48C1796.45,-51.92 1756.52,-35.08 1732.66,-25.01"/>
<polygon fill="midnightblue" stroke="midnightblue" points="1822.72,-66.81 1833.3,-67.48 1825.45,-60.36 1822.72,-66.81"/>
</g>
<!-- Node16 -->
<g id="node16" class="node">
<title>Node16</title>
<g id="a_node16"><a xlink:href="get__normal_8c.html" target="_top" xlink:title=" ">
<polygon fill="none" stroke="black" points="1776,-6 1776,-25 1931,-25 1931,-6 1776,-6"/>
<text text-anchor="middle" x="1853.5" y="-13" font-family="Helvetica,sans-Serif" font-size="10.00">sources/maths/get_normal.c</text>
</a>
</g>
</g>
<!-- Node3&#45;&gt;Node16 -->
<g id="edge15" class="edge">
<title>Node3&#45;&gt;Node16</title>
<path fill="none" stroke="midnightblue" d="M1853.5,-57.32C1853.5,-46.5 1853.5,-33.4 1853.5,-25.01"/>
<polygon fill="midnightblue" stroke="midnightblue" points="1850,-57.48 1853.5,-67.48 1857,-57.48 1850,-57.48"/>
</g>
<!-- Node17 -->
<g id="node17" class="node">
<title>Node17</title>
<g id="a_node17"><a xlink:href="mat4__operations_8c.html" target="_top" xlink:title=" ">
<polygon fill="none" stroke="black" points="1949.5,-0.5 1949.5,-30.5 2065.5,-30.5 2065.5,-0.5 1949.5,-0.5"/>
<text text-anchor="start" x="1957.5" y="-18.5" font-family="Helvetica,sans-Serif" font-size="10.00">sources/maths/mat4</text>
<text text-anchor="middle" x="2007.5" y="-7.5" font-family="Helvetica,sans-Serif" font-size="10.00">_operations.c</text>
</a>
</g>
</g>
<!-- Node3&#45;&gt;Node17 -->
<g id="edge16" class="edge">
<title>Node3&#45;&gt;Node17</title>
<path fill="none" stroke="midnightblue" d="M1884.95,-63.85C1909.97,-54.18 1945,-40.65 1971.21,-30.52"/>
<polygon fill="midnightblue" stroke="midnightblue" points="1883.63,-60.61 1875.56,-67.48 1886.15,-67.14 1883.63,-60.61"/>
</g>
<!-- Node18 -->
<g id="node18" class="node">
<title>Node18</title>
<g id="a_node18"><a xlink:href="vec3__operations_8c.html" target="_top" xlink:title=" ">
<polygon fill="none" stroke="black" points="2083.5,-0.5 2083.5,-30.5 2197.5,-30.5 2197.5,-0.5 2083.5,-0.5"/>
<text text-anchor="start" x="2091.5" y="-18.5" font-family="Helvetica,sans-Serif" font-size="10.00">sources/maths/vec3</text>
<text text-anchor="middle" x="2140.5" y="-7.5" font-family="Helvetica,sans-Serif" font-size="10.00">_operations.c</text>
</a>
</g>
</g>
<!-- Node3&#45;&gt;Node18 -->
<g id="edge17" class="edge">
<title>Node3&#45;&gt;Node18</title>
<path fill="none" stroke="midnightblue" d="M1906.39,-65.47C1951.19,-56.49 2017.11,-43.15 2074.5,-31 2077.37,-30.39 2080.31,-29.77 2083.27,-29.13"/>
<polygon fill="midnightblue" stroke="midnightblue" points="1905.44,-62.09 1896.32,-67.48 1906.81,-68.95 1905.44,-62.09"/>
</g>
<!-- Node19 -->
<g id="node19" class="node">
<title>Node19</title>
<g id="a_node19"><a xlink:href="vec3__operations2_8c.html" target="_top" xlink:title=" ">
<polygon fill="none" stroke="black" points="2215.5,-0.5 2215.5,-30.5 2329.5,-30.5 2329.5,-0.5 2215.5,-0.5"/>
<text text-anchor="start" x="2223.5" y="-18.5" font-family="Helvetica,sans-Serif" font-size="10.00">sources/maths/vec3</text>
<text text-anchor="middle" x="2272.5" y="-7.5" font-family="Helvetica,sans-Serif" font-size="10.00">_operations2.c</text>
</a>
</g>
</g>
<!-- Node3&#45;&gt;Node19 -->
<g id="edge18" class="edge">
<title>Node3&#45;&gt;Node19</title>
<path fill="none" stroke="midnightblue" d="M1912.53,-70.11C1982.82,-62.71 2103.66,-48.82 2206.5,-31 2209.39,-30.5 2212.34,-29.96 2215.32,-29.39"/>
<polygon fill="midnightblue" stroke="midnightblue" points="1912.11,-66.63 1902.53,-71.15 1912.84,-73.59 1912.11,-66.63"/>
</g>
<!-- Node20 -->
<g id="node20" class="node">
<title>Node20</title>
<g id="a_node20"><a xlink:href="pars__by__id_8c.html" target="_top" xlink:title=" ">
<polygon fill="none" stroke="black" points="2348,-0.5 2348,-30.5 2465,-30.5 2465,-0.5 2348,-0.5"/>
<text text-anchor="start" x="2356" y="-18.5" font-family="Helvetica,sans-Serif" font-size="10.00">sources/parsing/pars</text>
<text text-anchor="middle" x="2406.5" y="-7.5" font-family="Helvetica,sans-Serif" font-size="10.00">_by_id.c</text>
</a>
</g>
</g>
<!-- Node3&#45;&gt;Node20 -->
<g id="edge19" class="edge">
<title>Node3&#45;&gt;Node20</title>
<path fill="none" stroke="midnightblue" d="M1912.8,-72.75C2004.48,-67.22 2185.96,-54.26 2338.5,-31 2341.6,-30.53 2344.78,-30 2347.97,-29.44"/>
<polygon fill="midnightblue" stroke="midnightblue" points="1912.38,-69.27 1902.61,-73.36 1912.8,-76.26 1912.38,-69.27"/>
</g>
<!-- Node21 -->
<g id="node21" class="node">
<title>Node21</title>
<g id="a_node21"><a xlink:href="pars__by__id__2_8c.html" target="_top" xlink:title=" ">
<polygon fill="none" stroke="black" points="2483,-0.5 2483,-30.5 2600,-30.5 2600,-0.5 2483,-0.5"/>
<text text-anchor="start" x="2491" y="-18.5" font-family="Helvetica,sans-Serif" font-size="10.00">sources/parsing/pars</text>
<text text-anchor="middle" x="2541.5" y="-7.5" font-family="Helvetica,sans-Serif" font-size="10.00">_by_id_2.c</text>
</a>
</g>
</g>
<!-- Node3&#45;&gt;Node21 -->
<g id="edge20" class="edge">
<title>Node3&#45;&gt;Node21</title>
<path fill="none" stroke="midnightblue" d="M1913.18,-74.47C2024.2,-71 2269.79,-60.42 2474.5,-31 2477.21,-30.61 2479.97,-30.17 2482.76,-29.7"/>
<polygon fill="midnightblue" stroke="midnightblue" points="1912.75,-70.98 1902.86,-74.78 1912.96,-77.98 1912.75,-70.98"/>
</g>
<!-- Node22 -->
<g id="node22" class="node">
<title>Node22</title>
<g id="a_node22"><a xlink:href="pars__by__id__utils_8c.html" target="_top" xlink:title=" ">
<polygon fill="none" stroke="black" points="2618,-0.5 2618,-30.5 2735,-30.5 2735,-0.5 2618,-0.5"/>
<text text-anchor="start" x="2626" y="-18.5" font-family="Helvetica,sans-Serif" font-size="10.00">sources/parsing/pars</text>
<text text-anchor="middle" x="2676.5" y="-7.5" font-family="Helvetica,sans-Serif" font-size="10.00">_by_id_utils.c</text>
</a>
</g>
</g>
<!-- Node3&#45;&gt;Node22 -->
<g id="edge21" class="edge">
<title>Node3&#45;&gt;Node22</title>
<path fill="none" stroke="midnightblue" d="M1913.21,-75.56C2041.35,-73.92 2351.98,-66.32 2609.5,-31 2612.21,-30.63 2614.98,-30.21 2617.76,-29.75"/>
<polygon fill="midnightblue" stroke="midnightblue" points="1912.8,-72.06 1902.84,-75.68 1912.89,-79.06 1912.8,-72.06"/>
</g>
<!-- Node23 -->
<g id="node23" class="node">
<title>Node23</title>
<g id="a_node23"><a xlink:href="parsing_8c.html" target="_top" xlink:title=" ">
<polygon fill="none" stroke="black" points="2753.5,-6 2753.5,-25 2893.5,-25 2893.5,-6 2753.5,-6"/>
<text text-anchor="middle" x="2823.5" y="-13" font-family="Helvetica,sans-Serif" font-size="10.00">sources/parsing/parsing.c</text>
</a>
</g>
</g>
<!-- Node3&#45;&gt;Node23 -->
<g id="edge22" class="edge">
<title>Node3&#45;&gt;Node23</title>
<path fill="none" stroke="midnightblue" d="M1913.3,-75.68C2057.03,-74.32 2433.07,-67.29 2744.5,-31 2756.97,-29.55 2770.43,-27.32 2782.65,-25.05"/>
<polygon fill="midnightblue" stroke="midnightblue" points="1912.92,-72.18 1902.95,-75.77 1912.98,-79.18 1912.92,-72.18"/>
</g>
<!-- Node24 -->
<g id="node24" class="node">
<title>Node24</title>
<g id="a_node24"><a xlink:href="color__ray_8c.html" target="_top" xlink:title=" ">
<polygon fill="none" stroke="black" points="2911.5,-0.5 2911.5,-30.5 3027.5,-30.5 3027.5,-0.5 2911.5,-0.5"/>
<text text-anchor="start" x="2919.5" y="-18.5" font-family="Helvetica,sans-Serif" font-size="10.00">sources/render/color</text>
<text text-anchor="middle" x="2969.5" y="-7.5" font-family="Helvetica,sans-Serif" font-size="10.00">_ray.c</text>
</a>
</g>
</g>
<!-- Node3&#45;&gt;Node24 -->
<g id="edge24" class="edge">
<title>Node3&#45;&gt;Node24</title>
<path fill="none" stroke="midnightblue" d="M1912.82,-74.78C2104.95,-70.64 2708.88,-55.92 2902.5,-31 2905.33,-30.64 2908.22,-30.21 2911.14,-29.74"/>
<polygon fill="midnightblue" stroke="midnightblue" points="1912.56,-71.29 1902.64,-75 1912.71,-78.29 1912.56,-71.29"/>
</g>
<!-- Node25 -->
<g id="node25" class="node">
<title>Node25</title>
<g id="a_node25"><a xlink:href="create__mlx__render_8c.html" target="_top" xlink:title=" ">
<polygon fill="none" stroke="black" points="3045.5,-0.5 3045.5,-30.5 3167.5,-30.5 3167.5,-0.5 3045.5,-0.5"/>
<text text-anchor="start" x="3053.5" y="-18.5" font-family="Helvetica,sans-Serif" font-size="10.00">sources/render/create</text>
<text text-anchor="middle" x="3106.5" y="-7.5" font-family="Helvetica,sans-Serif" font-size="10.00">_mlx_render.c</text>
</a>
</g>
</g>
<!-- Node3&#45;&gt;Node25 -->
<g id="edge25" class="edge">
<title>Node3&#45;&gt;Node25</title>
<path fill="none" stroke="midnightblue" d="M1912.9,-75.05C2120.86,-71.51 2815.42,-57.91 3036.5,-31 3039.33,-30.66 3042.22,-30.26 3045.14,-29.81"/>
<polygon fill="midnightblue" stroke="midnightblue" points="1912.73,-71.55 1902.79,-75.22 1912.85,-78.55 1912.73,-71.55"/>
</g>
<!-- Node26 -->
<g id="node26" class="node">
<title>Node26</title>
<g id="a_node26"><a xlink:href="hit__cylinder_8c.html" target="_top" xlink:title=" ">
<polygon fill="none" stroke="black" points="3186,-0.5 3186,-30.5 3311,-30.5 3311,-0.5 3186,-0.5"/>
<text text-anchor="start" x="3194" y="-18.5" font-family="Helvetica,sans-Serif" font-size="10.00">sources/render/hitable</text>
<text text-anchor="middle" x="3248.5" y="-7.5" font-family="Helvetica,sans-Serif" font-size="10.00">/hit_cylinder.c</text>
</a>
</g>
</g>
<!-- Node3&#45;&gt;Node26 -->
<g id="edge26" class="edge">
<title>Node3&#45;&gt;Node26</title>
<path fill="none" stroke="midnightblue" d="M1913.06,-75.28C2136.76,-72.37 2926.66,-60.2 3176.5,-31 3179.54,-30.64 3182.64,-30.23 3185.77,-29.77"/>
<polygon fill="midnightblue" stroke="midnightblue" points="1912.8,-71.78 1902.84,-75.41 1912.89,-78.78 1912.8,-71.78"/>
</g>
<!-- Node27 -->
<g id="node27" class="node">
<title>Node27</title>
<g id="a_node27"><a xlink:href="hit__obj_8c.html" target="_top" xlink:title=" ">
<polygon fill="none" stroke="black" points="3329,-0.5 3329,-30.5 3454,-30.5 3454,-0.5 3329,-0.5"/>
<text text-anchor="start" x="3337" y="-18.5" font-family="Helvetica,sans-Serif" font-size="10.00">sources/render/hitable</text>
<text text-anchor="middle" x="3391.5" y="-7.5" font-family="Helvetica,sans-Serif" font-size="10.00">/hit_obj.c</text>
</a>
</g>
</g>
<!-- Node3&#45;&gt;Node27 -->
<g id="edge27" class="edge">
<title>Node3&#45;&gt;Node27</title>
<path fill="none" stroke="midnightblue" d="M1912.7,-75.53C2151.02,-73.45 3040.88,-63.6 3320.5,-31 3323.25,-30.68 3326.05,-30.31 3328.87,-29.89"/>
<polygon fill="midnightblue" stroke="midnightblue" points="1912.47,-72.04 1902.5,-75.62 1912.53,-79.04 1912.47,-72.04"/>
</g>
<!-- Node28 -->
<g id="node28" class="node">
<title>Node28</title>
<g id="a_node28"><a xlink:href="hit__plane_8c.html" target="_top" xlink:title=" ">
<polygon fill="none" stroke="black" points="3472,-0.5 3472,-30.5 3597,-30.5 3597,-0.5 3472,-0.5"/>
<text text-anchor="start" x="3480" y="-18.5" font-family="Helvetica,sans-Serif" font-size="10.00">sources/render/hitable</text>
<text text-anchor="middle" x="3534.5" y="-7.5" font-family="Helvetica,sans-Serif" font-size="10.00">/hit_plane.c</text>
</a>
</g>
</g>
<!-- Node3&#45;&gt;Node28 -->
<g id="edge28" class="edge">
<title>Node3&#45;&gt;Node28</title>
<path fill="none" stroke="midnightblue" d="M1912.98,-75.72C2166.06,-74.31 3154.41,-66.61 3463.5,-31 3466.25,-30.68 3469.05,-30.31 3471.87,-29.9"/>
<polygon fill="midnightblue" stroke="midnightblue" points="1912.87,-72.22 1902.88,-75.77 1912.9,-79.22 1912.87,-72.22"/>
</g>
<!-- Node29 -->
<g id="node29" class="node">
<title>Node29</title>
<g id="a_node29"><a xlink:href="hit__sphere_8c.html" target="_top" xlink:title=" ">
<polygon fill="none" stroke="black" points="3615,-0.5 3615,-30.5 3740,-30.5 3740,-0.5 3615,-0.5"/>
<text text-anchor="start" x="3623" y="-18.5" font-family="Helvetica,sans-Serif" font-size="10.00">sources/render/hitable</text>
<text text-anchor="middle" x="3677.5" y="-7.5" font-family="Helvetica,sans-Serif" font-size="10.00">/hit_sphere.c</text>
</a>
</g>
</g>
<!-- Node3&#45;&gt;Node29 -->
<g id="edge29" class="edge">
<title>Node3&#45;&gt;Node29</title>
<path fill="none" stroke="midnightblue" d="M1912.92,-75.88C2179.59,-75.11 3267.71,-69.64 3606.5,-31 3609.25,-30.69 3612.05,-30.32 3614.88,-29.91"/>
<polygon fill="midnightblue" stroke="midnightblue" points="1912.66,-72.38 1902.67,-75.91 1912.68,-79.38 1912.66,-72.38"/>
</g>
<!-- Node30 -->
<g id="node30" class="node">
<title>Node30</title>
<g id="a_node30"><a xlink:href="render_8c.html" target="_top" xlink:title=" ">
<polygon fill="none" stroke="black" points="3758,-6 3758,-25 3889,-25 3889,-6 3758,-6"/>
<text text-anchor="middle" x="3823.5" y="-13" font-family="Helvetica,sans-Serif" font-size="10.00">sources/render/render.c</text>
</a>
</g>
</g>
<!-- Node3&#45;&gt;Node30 -->
<g id="edge30" class="edge">
<title>Node3&#45;&gt;Node30</title>
<path fill="none" stroke="midnightblue" d="M1913.12,-75.95C2193.29,-75.49 3380.89,-71.19 3749.5,-31 3761.6,-29.68 3774.68,-27.41 3786.42,-25.04"/>
<polygon fill="midnightblue" stroke="midnightblue" points="1912.76,-72.45 1902.76,-75.96 1912.77,-79.45 1912.76,-72.45"/>
</g>
</g>
</svg>
        <g id="navigator" transform="translate(0 0)" fill="#404254">
                <rect fill="#f2f5e9" fill-opacity="0.5" stroke="#606060" stroke-width=".5" x="0" y="0" width="60" height="60"/>
                <use id="zoomplus" xlink:href="#zoomPlus" x="17" y="9" onmousedown="handleZoom(evt,'in')"/>
                <use id="zoomminus" xlink:href="#zoomMin" x="42" y="9" onmousedown="handleZoom(evt,'out')"/>
                <use id="reset" xlink:href="#resetDef" x="30" y="36" onmousedown="handleReset()"/>
                <g id="arrowUp" xlink:href="#dirArrow" transform="translate(30 24)" onmousedown="handlePan(0,-1)">
                  <use xlink:href="#rim" fill="#404040">
                        <set attributeName="fill" to="#808080" begin="arrowUp.mouseover" end="arrowUp.mouseout"/>
                  </use>
                  <path fill="none" stroke="white" stroke-width="1.5" d="M0,-3.0v7 M-2.5,-0.5L0,-3.0L2.5,-0.5"/>
                </g>
                <g id="arrowRight" xlink:href="#dirArrow" transform="rotate(90) translate(36 -43)" onmousedown="handlePan(1,0)">
                  <use xlink:href="#rim" fill="#404040">
                        <set attributeName="fill" to="#808080" begin="arrowRight.mouseover" end="arrowRight.mouseout"/>
                  </use>
                  <path fill="none" stroke="white" stroke-width="1.5" d="M0,-3.0v7 M-2.5,-0.5L0,-3.0L2.5,-0.5"/>
                </g>
                <g id="arrowDown" xlink:href="#dirArrow" transform="rotate(180) translate(-30 -48)" onmousedown="handlePan(0,1)">
                  <use xlink:href="#rim" fill="#404040">
                        <set attributeName="fill" to="#808080" begin="arrowDown.mouseover" end="arrowDown.mouseout"/>
                  </use>
                  <path fill="none" stroke="white" stroke-width="1.5" d="M0,-3.0v7 M-2.5,-0.5L0,-3.0L2.5,-0.5"/>
                </g>
                <g id="arrowLeft" xlink:href="#dirArrow" transform="rotate(270) translate(-36 17)" onmousedown="handlePan(-1,0)">
                  <use xlink:href="#rim" fill="#404040">
                        <set attributeName="fill" to="#808080" begin="arrowLeft.mouseover" end="arrowLeft.mouseout"/>
                  </use>
                  <path fill="none" stroke="white" stroke-width="1.5" d="M0,-3.0v7 M-2.5,-0.5L0,-3.0L2.5,-0.5"/>
                </g>
        </g>
        <svg viewBox="0 0 15 15" width="100%" height="30px" preserveAspectRatio="xMaxYMin meet">
         <g id="arrow_out" transform="scale(0.3 0.3)">
          <a xlink:href="vector_8h__dep__incl_org.svg" target="_base">
           <rect id="button" ry="5" rx="5" y="6" x="6" height="38" width="38"
                fill="#f2f5e9" fill-opacity="0.5" stroke="#606060" stroke-width="1.0"/>
           <path id="arrow"
             d="M 11.500037,31.436501 C 11.940474,20.09759 22.043105,11.32322 32.158766,21.979434 L 37.068811,17.246167 C 37.068811,17.246167 37.088388,32 37.088388,32 L 22.160133,31.978069 C 22.160133,31.978069 26.997745,27.140456 26.997745,27.140456 C 18.528582,18.264221 13.291696,25.230495 11.500037,31.436501 z"
             style="fill:#404040;"/>
          </a>
         </g>
        </svg>
</svg>
